<svg width="100" height="100" viewBox="0 0 350 350" fill="none" xmlns="http://www.w3.org/2000/svg">
<path d="M46.7865 127.5L54.6365 150H57.1365L60.0865 141.525L63.0365 150H65.5365L73.3865 127.5H70.9365L64.3865 146.3L61.4115 137.775L64.9865 127.5H62.5365L60.1615 134.25L57.8115 127.5H55.1865L58.8615 138L55.9615 146.3L49.4115 127.5H46.7865ZM86.4646 129.5C88.3896 129.5 89.8646 130.9 91.1896 132.3C92.5396 133.725 93.8647 135.325 93.8647 137.275V140.225C93.8647 142.175 92.5396 143.775 91.1896 145.2C89.8646 146.6 88.3896 148 86.4646 148H84.8146C82.8896 148 81.4146 146.6 80.0896 145.2C78.7396 143.775 77.4146 142.175 77.4146 140.225V137.275C77.4146 135.325 78.7396 133.725 80.0896 132.3C81.4146 130.9 82.8896 129.5 84.8146 129.5H86.4646ZM86.4646 127.25H84.8146C82.2896 127.25 80.2646 129.05 78.4896 130.85C76.6896 132.675 74.9396 134.725 74.9396 137.275V140.225C74.9396 142.775 76.6896 144.825 78.4896 146.65C80.2646 148.45 82.2896 150.25 84.8146 150.25H86.4646C88.9896 150.25 91.0146 148.45 92.7896 146.65C94.5896 144.825 96.3396 142.775 96.3396 140.225V137.275C96.3396 134.725 94.5896 132.675 92.7896 130.85C91.0146 129.05 88.9896 127.25 86.4646 127.25ZM100.351 150H102.826V139.575H106.876L112.501 150H115.426L109.401 139.225C110.376 138.85 111.276 138.275 112.126 137.625C113.376 136.7 114.726 135.675 114.726 134.15V132.925C114.726 131.4 113.376 130.375 112.126 129.45C110.751 128.425 109.226 127.5 107.501 127.5H100.351V150ZM102.826 129.75H107.501C108.601 129.75 109.601 130.275 110.526 130.9C111.326 131.425 112.251 132.025 112.251 132.925V134.15C112.251 135.05 111.326 135.65 110.526 136.175C109.601 136.8 108.601 137.325 107.501 137.325H102.826V129.75ZM118.027 150H125.852C128.377 150 130.427 148.25 132.252 146.475C134.052 144.7 135.852 142.725 135.852 140.2V137.3C135.852 134.775 134.052 132.8 132.252 131.025C130.427 129.25 128.377 127.5 125.852 127.5H118.027V150ZM120.502 147.75V129.75H125.852C127.777 129.75 129.327 131.1 130.677 132.475C132.052 133.85 133.377 135.375 133.377 137.3V140.2C133.377 142.125 132.052 143.65 130.677 145.025C129.327 146.4 127.777 147.75 125.852 147.75H120.502ZM139.373 145.775C139.848 146.7 140.748 147.45 141.598 148.15C142.923 149.25 144.423 150.25 146.148 150.25H147.173C148.923 150.25 150.473 149.325 151.823 148.225C153.073 147.2 154.298 146 154.298 144.4V143.15C154.298 140.85 152.448 139.075 150.248 138.25L144.723 136.775C143.473 136.3 142.298 135.475 142.298 134.2V132.9C142.298 132 142.948 131.275 143.648 130.675C144.373 130.025 145.248 129.5 146.223 129.5H147.098C148.073 129.5 148.898 130.1 149.623 130.725C150.048 131.1 150.498 131.5 150.773 131.975L153.073 131.375C152.623 130.6 151.898 129.925 151.198 129.3C150.023 128.25 148.673 127.25 147.098 127.25H146.223C144.623 127.25 143.248 128.175 142.048 129.225C140.923 130.225 139.823 131.4 139.823 132.9V134.2C139.823 136.475 141.673 138.2 143.873 139.025L149.398 140.5C150.648 140.975 151.823 141.85 151.823 143.15V144.4C151.823 145.4 150.998 146.125 150.198 146.75C149.298 147.45 148.298 148 147.173 148H146.148C145.048 148 144.048 147.375 143.173 146.7C142.448 146.125 141.648 145.5 141.523 144.65L139.373 145.775ZM169.085 150H171.56V127.5H169.085V150ZM176.816 150H179.291V131.825L191.291 150H193.791V127.5H191.316V145.675L179.316 127.5H176.816V150ZM208.465 145.775C208.94 146.7 209.84 147.45 210.69 148.15C212.015 149.25 213.515 150.25 215.24 150.25H216.265C218.015 150.25 219.565 149.325 220.915 148.225C222.165 147.2 223.39 146 223.39 144.4V143.15C223.39 140.85 221.54 139.075 219.34 138.25L213.815 136.775C212.565 136.3 211.39 135.475 211.39 134.2V132.9C211.39 132 212.04 131.275 212.74 130.675C213.465 130.025 214.34 129.5 215.315 129.5H216.19C217.165 129.5 217.99 130.1 218.715 130.725C219.14 131.1 219.59 131.5 219.865 131.975L222.165 131.375C221.715 130.6 220.99 129.925 220.29 129.3C219.115 128.25 217.765 127.25 216.19 127.25H215.315C213.715 127.25 212.34 128.175 211.14 129.225C210.015 130.225 208.915 131.4 208.915 132.9V134.2C208.915 136.475 210.765 138.2 212.965 139.025L218.49 140.5C219.74 140.975 220.915 141.85 220.915 143.15V144.4C220.915 145.4 220.09 146.125 219.29 146.75C218.39 147.45 217.39 148 216.265 148H215.24C214.14 148 213.14 147.375 212.265 146.7C211.54 146.125 210.74 145.5 210.615 144.65L208.465 145.775ZM227.353 150H229.828V140.55H234.503C236.253 140.55 237.778 139.55 239.128 138.45C240.378 137.425 241.728 136.3 241.728 134.7V133.35C241.728 131.75 240.378 130.625 239.128 129.6C237.778 128.5 236.253 127.5 234.503 127.5H227.353V150ZM229.828 129.75H234.503C235.628 129.75 236.628 130.375 237.528 131.05C238.353 131.675 239.253 132.35 239.253 133.35V134.7C239.253 135.7 238.353 136.375 237.528 137C236.628 137.675 235.628 138.3 234.503 138.3H229.828V129.75ZM243.1 150H245.525L248.05 143.025H256.675L259.2 150H261.825L253.725 127.5H251.225L243.1 150ZM255.875 140.775H248.85L252.35 131.05L255.875 140.775ZM283.471 143.75L281.521 142.5C281.021 143.475 280.221 144.375 279.446 145.2C278.121 146.6 276.646 148 274.721 148H273.071C271.146 148 269.671 146.6 268.346 145.2C266.996 143.775 265.671 142.175 265.671 140.225V137.275C265.671 135.325 266.996 133.725 268.346 132.3C269.671 130.9 271.146 129.5 273.071 129.5H274.721C276.646 129.5 278.121 130.9 279.446 132.3C280.221 133.125 281.021 134.025 281.521 135L283.471 133.75C282.821 132.7 281.921 131.75 281.046 130.85C279.271 129.05 277.246 127.25 274.721 127.25H273.071C270.546 127.25 268.521 129.05 266.746 130.85C264.946 132.675 263.196 134.725 263.196 137.275V140.225C263.196 142.775 264.946 144.825 266.746 146.65C268.521 148.45 270.546 150.25 273.071 150.25H274.721C277.246 150.25 279.271 148.45 281.046 146.65C281.921 145.75 282.821 144.8 283.471 143.75ZM287.729 150H300.329V147.75H290.204V138.3H299.104V136.05H290.204V129.75H300.329V127.5H287.729V150ZM40.8381 183H43.3131V160.5H40.8381V183ZM47.8691 178.775C48.3441 179.7 49.2441 180.45 50.0941 181.15C51.4191 182.25 52.9191 183.25 54.6441 183.25H55.6691C57.4191 183.25 58.9691 182.325 60.3191 181.225C61.5691 180.2 62.7941 179 62.7941 177.4V176.15C62.7941 173.85 60.9441 172.075 58.7441 171.25L53.2191 169.775C51.9691 169.3 50.7941 168.475 50.7941 167.2V165.9C50.7941 165 51.4441 164.275 52.1441 163.675C52.8691 163.025 53.7441 162.5 54.7191 162.5H55.5941C56.5691 162.5 57.3941 163.1 58.1191 163.725C58.5441 164.1 58.9941 164.5 59.2691 164.975L61.5691 164.375C61.1191 163.6 60.3941 162.925 59.6941 162.3C58.5191 161.25 57.1691 160.25 55.5941 160.25H54.7191C53.1191 160.25 51.7441 161.175 50.5441 162.225C49.4191 163.225 48.3191 164.4 48.3191 165.9V167.2C48.3191 169.475 50.1691 171.2 52.3691 172.025L57.8941 173.5C59.1441 173.975 60.3191 174.85 60.3191 176.15V177.4C60.3191 178.4 59.4941 179.125 58.6941 179.75C57.7941 180.45 56.7941 181 55.6691 181H54.6441C53.5441 181 52.5441 180.375 51.6691 179.7C50.9441 179.125 50.1441 178.5 50.0191 177.65L47.8691 178.775ZM74.8813 162.75H81.6063V183H84.0813V162.75H90.7813V160.5H74.8813V162.75ZM93.3201 183H95.7951V171.3H106.92V183H109.395V160.5H106.92V169.05H95.7951V160.5H93.3201V183ZM114.316 183H126.916V180.75H116.791V171.3H125.691V169.05H116.791V162.75H126.916V160.5H114.316V183ZM138.974 160.5L146.824 183H149.324L152.274 174.525L155.224 183H157.724L165.574 160.5H163.124L156.574 179.3L153.599 170.775L157.174 160.5H154.724L152.349 167.25L149.999 160.5H147.374L151.049 171L148.149 179.3L141.599 160.5H138.974ZM168.369 183H180.969V180.75H170.844V171.3H179.744V169.05H170.844V162.75H180.969V160.5H168.369V183ZM184.653 183H192.303C194.003 183 195.378 181.85 196.603 180.675C197.803 179.5 199.028 178.175 199.028 176.5V174.9C199.028 173.225 197.803 171.925 196.603 170.75C195.978 170.15 195.303 169.55 194.578 169.1C195.028 168.875 195.453 168.625 195.878 168.35C196.803 167.75 197.903 167.025 197.903 166.025V165.125C197.903 163.875 196.853 162.975 195.878 162.175C194.828 161.3 193.653 160.5 192.303 160.5H184.653V183ZM187.128 162.75H192.303C193.053 162.75 193.703 163.15 194.303 163.6C194.828 164 195.428 164.45 195.428 165.125V166.025C195.428 166.7 194.828 167.15 194.303 167.55C193.703 168 193.053 168.4 192.303 168.4H187.128V162.75ZM187.128 170.65H192.303C193.378 170.65 194.253 171.4 195.028 172.175C195.803 172.95 196.553 173.825 196.553 174.9V176.5C196.553 177.575 195.803 178.45 195.028 179.225C194.253 180 193.378 180.75 192.303 180.75H187.128V170.65ZM202.337 178.775C202.812 179.7 203.712 180.45 204.562 181.15C205.887 182.25 207.387 183.25 209.112 183.25H210.137C211.887 183.25 213.437 182.325 214.787 181.225C216.037 180.2 217.262 179 217.262 177.4V176.15C217.262 173.85 215.412 172.075 213.212 171.25L207.687 169.775C206.437 169.3 205.262 168.475 205.262 167.2V165.9C205.262 165 205.912 164.275 206.612 163.675C207.337 163.025 208.212 162.5 209.187 162.5H210.062C211.037 162.5 211.862 163.1 212.587 163.725C213.012 164.1 213.462 164.5 213.737 164.975L216.037 164.375C215.587 163.6 214.862 162.925 214.162 162.3C212.987 161.25 211.637 160.25 210.062 160.25H209.187C207.587 160.25 206.212 161.175 205.012 162.225C203.887 163.225 202.787 164.4 202.787 165.9V167.2C202.787 169.475 204.637 171.2 206.837 172.025L212.362 173.5C213.612 173.975 214.787 174.85 214.787 176.15V177.4C214.787 178.4 213.962 179.125 213.162 179.75C212.262 180.45 211.262 181 210.137 181H209.112C208.012 181 207.012 180.375 206.137 179.7C205.412 179.125 204.612 178.5 204.487 177.65L202.337 178.775ZM221.575 183H224.05V160.5H221.575V183ZM226.956 162.75H233.681V183H236.156V162.75H242.856V160.5H226.956V162.75ZM245.395 183H257.995V180.75H247.87V171.3H256.77V169.05H247.87V162.75H257.995V160.5H245.395V183ZM282.778 162.5C284.703 162.5 286.178 163.9 287.503 165.3C288.853 166.725 290.178 168.325 290.178 170.275V173.225C290.178 175.175 288.853 176.775 287.503 178.2C286.178 179.6 284.703 181 282.778 181H281.128C279.203 181 277.728 179.6 276.403 178.2C275.053 176.775 273.728 175.175 273.728 173.225V170.275C273.728 168.325 275.053 166.725 276.403 165.3C277.728 163.9 279.203 162.5 281.128 162.5H282.778ZM282.778 160.25H281.128C278.603 160.25 276.578 162.05 274.803 163.85C273.003 165.675 271.253 167.725 271.253 170.275V173.225C271.253 175.775 273.003 177.825 274.803 179.65C276.578 181.45 278.603 183.25 281.128 183.25H282.778C285.303 183.25 287.328 181.45 289.103 179.65C290.903 177.825 292.653 175.775 292.653 173.225V170.275C292.653 167.725 290.903 165.675 289.103 163.85C287.328 162.05 285.303 160.25 282.778 160.25ZM296.665 183H299.14V171.3H308.04V169.05H299.14V162.75H309.265V160.5H296.665V183ZM101.373 211.775C101.848 212.7 102.748 213.45 103.598 214.15C104.923 215.25 106.423 216.25 108.148 216.25H109.173C110.923 216.25 112.473 215.325 113.823 214.225C115.073 213.2 116.298 212 116.298 210.4V209.15C116.298 206.85 114.448 205.075 112.248 204.25L106.723 202.775C105.473 202.3 104.298 201.475 104.298 200.2V198.9C104.298 198 104.948 197.275 105.648 196.675C106.373 196.025 107.248 195.5 108.223 195.5H109.098C110.073 195.5 110.898 196.1 111.623 196.725C112.048 197.1 112.498 197.5 112.773 197.975L115.073 197.375C114.623 196.6 113.898 195.925 113.198 195.3C112.023 194.25 110.673 193.25 109.098 193.25H108.223C106.623 193.25 105.248 194.175 104.048 195.225C102.923 196.225 101.823 197.4 101.823 198.9V200.2C101.823 202.475 103.673 204.2 105.873 205.025L111.398 206.5C112.648 206.975 113.823 207.85 113.823 209.15V210.4C113.823 211.4 112.998 212.125 112.198 212.75C111.298 213.45 110.298 214 109.173 214H108.148C107.048 214 106.048 213.375 105.173 212.7C104.448 212.125 103.648 211.5 103.523 210.65L101.373 211.775ZM120.261 216H122.736V204.3H133.861V216H136.336V193.5H133.861V202.05H122.736V193.5H120.261V216ZM139.157 216H141.582L144.107 209.025H152.732L155.257 216H157.882L149.782 193.5H147.282L139.157 216ZM151.932 206.775H144.907L148.407 197.05L151.932 206.775ZM160.691 216H163.166V197.825L175.166 216H177.666V193.5H175.191V211.675L163.191 193.5H160.691V216ZM182.566 216H185.041V197.825L197.041 216H199.541V193.5H197.066V211.675L185.066 193.5H182.566V216ZM215.066 195.5C216.991 195.5 218.466 196.9 219.791 198.3C221.141 199.725 222.466 201.325 222.466 203.275V206.225C222.466 208.175 221.141 209.775 219.791 211.2C218.466 212.6 216.991 214 215.066 214H213.416C211.491 214 210.016 212.6 208.691 211.2C207.341 209.775 206.016 208.175 206.016 206.225V203.275C206.016 201.325 207.341 199.725 208.691 198.3C210.016 196.9 211.491 195.5 213.416 195.5H215.066ZM215.066 193.25H213.416C210.891 193.25 208.866 195.05 207.091 196.85C205.291 198.675 203.541 200.725 203.541 203.275V206.225C203.541 208.775 205.291 210.825 207.091 212.65C208.866 214.45 210.891 216.25 213.416 216.25H215.066C217.591 216.25 219.616 214.45 221.391 212.65C223.191 210.825 224.941 208.775 224.941 206.225V203.275C224.941 200.725 223.191 198.675 221.391 196.85C219.616 195.05 217.591 193.25 215.066 193.25ZM228.952 216H231.427V197.825L243.427 216H245.927V193.5H243.452V211.675L231.452 193.5H228.952V216ZM109.336 249H111.811V232.325L119.186 249H121.686L129.061 232.325V249H131.536V226.5H129.036L120.436 245.925L111.836 226.5H109.336V249ZM134.36 249H136.785L139.31 242.025H147.935L150.46 249H153.085L144.985 226.5H142.485L134.36 249ZM147.135 239.775H140.11L143.61 230.05L147.135 239.775ZM151.444 228.75H158.169V249H160.644V228.75H167.344V226.5H151.444V228.75ZM169.29 228.75H176.015V249H178.49V228.75H185.19V226.5H169.29V228.75ZM187.729 249H200.329V246.75H190.204V237.3H199.104V235.05H190.204V228.75H200.329V226.5H187.729V249ZM204.013 249H206.488V238.575H210.538L216.163 249H219.088L213.063 238.225C214.038 237.85 214.938 237.275 215.788 236.625C217.038 235.7 218.388 234.675 218.388 233.15V231.925C218.388 230.4 217.038 229.375 215.788 228.45C214.413 227.425 212.888 226.5 211.163 226.5H204.013V249ZM206.488 228.75H211.163C212.263 228.75 213.263 229.275 214.188 229.9C214.988 230.425 215.913 231.025 215.913 231.925V233.15C215.913 234.05 214.988 234.65 214.188 235.175C213.263 235.8 212.263 236.325 211.163 236.325H206.488V228.75ZM221.689 249H224.164V230.825L236.164 249H238.664V226.5H236.189V244.675L224.189 226.5H221.689V249Z" fill="#6262F4"/>
<circle cx="175" cy="175" r="165" stroke="#6262F4" stroke-opacity="0.5" stroke-width="20" stroke-dasharray="3 10"/>
</svg>
