<svg width="30" height="30" viewBox="0 0 36 36" fill="none" xmlns="http://www.w3.org/2000/svg">
<style type="text/css">
	.st0{fill-rule:evenodd;clip-rule:evenodd;fill:#5B5A7C;}
</style>
<path class="st0" d="M35.8,18.5l-4.9-0.1c0-0.1,0-0.3,0-0.4s0-0.3,0-0.4l4.9-0.1c0,0.2,0,0.3,0,0.5S35.8,18.3,35.8,18.5z M35.6,15.4
	l-4.9,0.7c0-0.2-0.1-0.5-0.1-0.7l4.8-1C35.5,14.7,35.6,15.1,35.6,15.4z M34.9,12.4L30.2,14c-0.1-0.2-0.2-0.5-0.3-0.7l4.6-1.8
	C34.7,11.7,34.8,12.1,34.9,12.4z M33.7,9.5l-4.4,2.4c-0.1-0.2-0.2-0.4-0.4-0.6l4.2-2.6C33.3,8.9,33.5,9.2,33.7,9.5z M32,7L28.1,10
	c-0.2-0.2-0.3-0.4-0.5-0.6l3.7-3.3C31.5,6.4,31.8,6.7,32,7z M29.8,4.7l-3.3,3.7c-0.2-0.2-0.4-0.3-0.6-0.5L29,4
	C29.3,4.2,29.6,4.5,29.8,4.7z M27.4,2.8L24.8,7c-0.2-0.1-0.4-0.3-0.6-0.4l2.4-4.4C26.8,2.5,27.1,2.7,27.4,2.8z M24.6,1.4L22.8,6
	c-0.2-0.1-0.5-0.2-0.7-0.3l1.6-4.7C23.9,1.2,24.3,1.3,24.6,1.4z M21.6,0.6l-1,4.8c-0.2,0-0.5-0.1-0.7-0.1l0.7-4.9
	C20.9,0.4,21.3,0.5,21.6,0.6z M18.5,0.2l-0.1,4.9c-0.1,0-0.3,0-0.4,0s-0.3,0-0.4,0l-0.1-4.9c0.2,0,0.3,0,0.5,0S18.3,0.2,18.5,0.2z
	 M15.4,0.4l0.7,4.9c-0.2,0-0.5,0.1-0.7,0.1l-1-4.8C14.7,0.5,15.1,0.4,15.4,0.4z M12.4,1.1L14,5.8c-0.2,0.1-0.5,0.2-0.7,0.3l-1.8-4.6
	C11.7,1.3,12.1,1.2,12.4,1.1z M9.5,2.3l2.4,4.4c-0.2,0.1-0.4,0.2-0.6,0.4L8.6,2.8C8.9,2.7,9.2,2.5,9.5,2.3z M7,4L10,7.9
	C9.8,8.1,9.6,8.2,9.4,8.4L6.2,4.7C6.4,4.5,6.7,4.2,7,4z M4.7,6.2l3.7,3.3C8.2,9.6,8.1,9.8,7.9,10L4,7C4.2,6.7,4.5,6.4,4.7,6.2z
	 M2.8,8.6L7,11.2c-0.1,0.2-0.3,0.4-0.4,0.6L2.3,9.5C2.5,9.2,2.7,8.9,2.8,8.6z M1.4,11.4L6,13.2c-0.1,0.2-0.2,0.5-0.3,0.7l-4.7-1.6
	C1.2,12.1,1.3,11.7,1.4,11.4z M0.6,14.4l4.8,1c0,0.2-0.1,0.5-0.1,0.7l-4.9-0.7C0.4,15.1,0.5,14.7,0.6,14.4z M0.2,17.5
	c0,0.2,0,0.3,0,0.5s0,0.3,0,0.5l4.9-0.1c0-0.1,0-0.3,0-0.4s0-0.3,0-0.4L0.2,17.5z M0.4,20.6l4.9-0.7c0,0.2,0.1,0.5,0.1,0.7l-4.8,1
	C0.5,21.3,0.4,20.9,0.4,20.6z M1.1,23.6L5.8,22c0.1,0.2,0.2,0.5,0.3,0.7l-4.6,1.8C1.3,24.3,1.2,23.9,1.1,23.6z M2.3,26.5l4.4-2.4
	c0.1,0.2,0.2,0.4,0.4,0.6l-4.2,2.6C2.7,27.1,2.5,26.8,2.3,26.5z M4,29L7.9,26c0.2,0.2,0.3,0.4,0.5,0.6l-3.7,3.3
	C4.5,29.6,4.2,29.3,4,29z M6.2,31.3l3.3-3.7c0.2,0.2,0.4,0.3,0.6,0.5L7,32C6.7,31.8,6.4,31.5,6.2,31.3z M8.6,33.2l2.6-4.2
	c0.2,0.1,0.4,0.3,0.6,0.4l-2.4,4.4C9.2,33.5,8.9,33.3,8.6,33.2z M11.4,34.6l1.8-4.6c0.2,0.1,0.5,0.2,0.7,0.3l-1.6,4.7
	C12.1,34.8,11.7,34.7,11.4,34.6z M14.4,35.4l1-4.8c0.2,0,0.5,0.1,0.7,0.1l-0.7,4.9C15.1,35.6,14.7,35.5,14.4,35.4z M17.5,35.8
	l0.1-4.9c0.1,0,0.3,0,0.4,0s0.3,0,0.4,0l0.1,4.9c-0.2,0-0.3,0-0.5,0S17.7,35.8,17.5,35.8z M20.6,35.6l-0.7-4.9
	c0.2,0,0.5-0.1,0.7-0.1l1,4.8C21.3,35.5,20.9,35.6,20.6,35.6z M23.6,34.9L22,30.2c0.2-0.1,0.5-0.2,0.7-0.3l1.8,4.6
	C24.3,34.7,23.9,34.8,23.6,34.9z M26.5,33.7l-2.4-4.4c0.2-0.1,0.4-0.2,0.6-0.4l2.6,4.2C27.1,33.3,26.8,33.5,26.5,33.7z M29,32
	L26,28.1c0.2-0.2,0.4-0.3,0.6-0.5l3.3,3.7C29.6,31.5,29.3,31.8,29,32z M31.3,29.8l-3.7-3.3c0.2-0.2,0.3-0.4,0.5-0.6L32,29
	C31.8,29.3,31.5,29.6,31.3,29.8z M33.2,27.4L29,24.8c0.1-0.2,0.3-0.4,0.4-0.6l4.4,2.4C33.5,26.8,33.3,27.1,33.2,27.4z M34.6,24.6
	L30,22.8c0.1-0.2,0.2-0.5,0.3-0.7l4.7,1.6C34.8,23.9,34.7,24.3,34.6,24.6z M35.4,21.6l-4.8-1c0-0.2,0.1-0.5,0.1-0.7l4.9,0.7
	C35.6,20.9,35.5,21.3,35.4,21.6z"/>
</svg>
