<svg width="94" height="84" viewBox="0 0 94 84" fill="none" xmlns="http://www.w3.org/2000/svg">
<path fill-rule="evenodd" clip-rule="evenodd" d="M86.9971 42.502L81.9974 42.4435C81.9991 42.2959 82 42.1481 82 42C82 41.8519 81.9991 41.7041 81.9974 41.5565L86.9971 41.498C86.999 41.6651 87 41.8324 87 42C87 42.1676 86.999 42.3349 86.9971 42.502ZM86.9269 39.5006L81.9354 39.7936C81.9182 39.4991 81.8974 39.2056 81.8733 38.9131L86.8564 38.5023C86.8838 38.834 86.9073 39.1668 86.9269 39.5006ZM86.645 36.5144L81.687 37.1611C81.649 36.87 81.6077 36.58 81.563 36.2911L86.5042 35.5267C86.555 35.8547 86.6019 36.1839 86.645 36.5144ZM86.1515 33.559L81.2524 34.5585C81.1936 34.2701 81.1314 33.9829 81.0659 33.697L85.9395 32.5802C86.014 32.9051 86.0446 33.2313 86.1515 33.559ZM85.4465 30.643L80.6319 31.9921C80.5528 31.7096 80.4703 31.4284 80.3847 31.1487L85.1655 29.6846C85.2629 30.0025 85.3565 30.322 85.4465 30.643ZM84.5344 27.7875L79.8293 29.4792C79.7299 29.2028 79.6273 28.9279 79.5215 28.6545L84.1847 26.8504C84.3048 27.161 84.4214 27.4734 84.5344 27.7875ZM83.4189 25.0038L78.8475 27.0291C78.7286 26.7608 78.6066 26.4941 78.4815 26.2291L83.0032 24.095C83.1453 24.396 83.2838 24.6989 83.4189 25.0038ZM82.1069 22.3079L77.6923 24.6556C77.5544 24.3963 77.4135 24.1388 77.2697 23.8831L81.627 21.4309C81.7903 21.7211 81.9503 22.0135 82.1069 22.3079ZM80.6053 19.7125C80.4281 19.4301 80.2477 19.1499 80.0641 18.8721L75.8928 21.629C76.0546 21.8738 76.2136 22.1206 76.3696 22.3695L80.6053 19.7125ZM78.9225 17.2309L74.8867 20.1827C74.7133 19.9455 74.5371 19.7105 74.3582 19.4777L78.3228 16.4311C78.5258 16.6952 78.7257 16.9618 78.9225 17.2309ZM77.0674 14.8752L73.2515 18.1061C73.0617 17.8819 72.8692 17.6599 72.6741 17.4403L76.4124 14.1199C76.6337 14.3691 76.852 14.6208 77.0674 14.8752ZM75.0498 12.657L71.4727 16.1505C71.2674 15.9403 71.0597 15.7326 70.8495 15.5273L74.343 11.9502C74.5814 12.183 74.817 12.4186 75.0498 12.657ZM72.8801 10.5876L69.5597 14.3259C69.3401 14.1308 69.1181 13.9383 68.8939 13.7485L72.1248 9.93259C72.3792 10.148 72.6309 10.3663 72.8801 10.5876ZM70.5689 8.67722L67.5223 12.6418C67.2895 12.4629 67.0545 12.2867 66.8173 12.1133L69.7691 8.07753C70.0382 8.27432 70.3048 8.47424 70.5689 8.67722ZM68.1279 6.93592L65.371 11.1072C65.1262 10.9454 64.8794 10.7864 64.6305 10.6304L67.2875 6.39471C67.5699 6.57187 67.8501 6.75229 68.1279 6.93592ZM65.5691 5.373L63.1169 9.73033C62.8612 9.58647 62.6037 9.44556 62.3444 9.30766L64.692 4.89306C64.9865 5.04966 65.2789 5.20965 65.5691 5.373ZM62.905 3.99679L60.7709 8.51848C60.5059 8.39341 60.2392 8.27141 59.9708 8.15252L61.9962 3.58109C62.301 3.71615 62.604 3.85474 62.905 3.99679ZM60.1496 2.81532L58.3455 7.47849C58.0721 7.37273 57.7972 7.27013 57.5208 7.17074L59.2125 2.46562C59.5266 2.57857 59.839 2.69515 60.1496 2.81532ZM57.3154 1.83449L55.8513 6.61533C55.5716 6.52967 55.2904 6.44724 55.0079 6.36808L56.357 1.55352C56.678 1.64347 56.9975 1.73714 57.3154 1.83449ZM54.4198 1.06045L53.303 5.93413C53.0171 5.86862 52.7299 5.80642 52.4414 5.74757L53.441 0.848499C53.7687 0.915351 54.0949 0.986019 54.4198 1.06045ZM51.4733 0.49579L50.7089 5.43701C50.42 5.39232 50.13 5.35097 49.8389 5.31299L50.4856 0.354995C50.816 0.398101 51.1453 0.445048 51.4733 0.49579ZM48.4977 0.143567L48.0469 5.12666C47.7944 5.10255 47.5009 5.04183 47.2064 5.06455L47.4994 0.073138C47.8332 0.0927301 48.166 0.116221 48.4977 0.143567ZM45.502 0.00293886L45.4435 5.0026C45.2959 5.00087 45.1481 5 45 5C44.8519 5 44.7041 5.00087 44.5565 5.0026L44.498 0.00293889C44.6651 0.00098144 44.8324 0 45 0C45.1676 0 45.3349 0.000981433 45.502 0.00293886ZM42.5006 0.0731384L42.7936 5.06455C42.4991 5.04183 42.2056 5.10255 41.9131 5.12666L41.5023 0.143567C41.834 0.116222 42.1668 0.0927306 42.5006 0.0731384ZM39.5144 0.354996C39.1839 0.398102 38.8547 0.445049 38.5267 0.495791L39.2911 5.43701C39.58 5.39232 39.87 5.35097 40.1611 5.31299L39.5144 0.354996ZM36.559 0.8485L37.5585 5.74757C37.2701 5.80642 36.9829 5.86862 36.697 5.93414L35.5802 1.06045C35.9051 0.98602 36.2313 0.915353 36.559 0.8485ZM33.643 1.55352L34.9921 6.36808C34.7096 6.44724 34.4284 6.52967 34.1487 6.61533L32.6846 1.83449C33.0025 1.73715 33.322 1.64348 33.643 1.55352ZM30.7875 2.46563L32.4792 7.17074C32.2028 7.27013 31.9279 7.37273 31.6545 7.4785L29.8504 2.81532C30.161 2.69515 30.4734 2.57857 30.7875 2.46563ZM28.0038 3.58109L30.0291 8.15252C29.7608 8.27141 29.4941 8.39342 29.2291 8.51848L27.095 3.9968C27.396 3.85474 27.6989 3.71616 28.0038 3.58109ZM25.3079 4.89307L27.6556 9.30766C27.3963 9.44556 27.1388 9.58647 26.8831 9.73034L24.4309 5.373C24.7211 5.20966 25.0135 5.04966 25.3079 4.89307ZM22.7125 6.39472L25.3695 10.6304C25.1206 10.7864 24.8738 10.9454 24.629 11.1072L21.8721 6.93593C22.1499 6.75229 22.4301 6.57187 22.7125 6.39472ZM20.2309 8.07754L23.1827 12.1133C22.9455 12.2867 22.7105 12.4629 22.4777 12.6418L19.4311 8.67723C19.6952 8.47424 19.9618 8.27433 20.2309 8.07754ZM17.8752 9.9326L21.1061 13.7485C20.8819 13.9383 20.6599 14.1308 20.4403 14.3259L17.1199 10.5876C17.3691 10.3663 17.6208 10.148 17.8752 9.9326ZM15.657 11.9502C15.4186 12.183 15.183 12.4186 14.9502 12.657L18.5273 16.1505C18.7326 15.9403 18.9403 15.7326 19.1505 15.5273L15.657 11.9502ZM13.5876 14.1199L17.3259 17.4403C17.1308 17.6599 16.9383 17.8819 16.7485 18.1061L12.9326 14.8752C13.148 14.6208 13.3663 14.3691 13.5876 14.1199ZM11.6772 16.4311L15.6418 19.4777C15.4629 19.7105 15.2867 19.9455 15.1133 20.1827L11.0775 17.2309C11.2743 16.9618 11.4742 16.6952 11.6772 16.4311ZM9.93592 18.8721L14.1072 21.629C13.9454 21.8738 13.7864 22.1206 13.6304 22.3695L9.39471 19.7125C9.57187 19.4301 9.75229 19.1499 9.93592 18.8721ZM8.373 21.4309L12.7303 23.8831C12.5865 24.1388 12.4456 24.3963 12.3077 24.6556L7.89306 22.308C8.04966 22.0135 8.20965 21.7211 8.373 21.4309ZM6.99679 24.095L11.5185 26.2291C11.3934 26.4941 11.2714 26.7608 11.1525 27.0292L6.58109 25.0038C6.71615 24.699 6.85474 24.396 6.99679 24.095ZM5.81532 26.8504L10.4785 28.6545C10.3727 28.9279 10.2701 29.2028 10.1707 29.4792L5.46562 27.7875C5.57857 27.4734 5.69515 27.161 5.81532 26.8504ZM4.83449 29.6846L9.61533 31.1487C9.52967 31.4284 9.44724 31.7096 9.36808 31.9921L4.55352 30.643C4.64347 30.322 4.73715 30.0025 4.83449 29.6846ZM4.06045 32.5802L8.93413 33.697C8.86862 33.9829 8.80642 34.2701 8.74757 34.5586L3.8485 33.559C3.91535 33.2313 3.98602 32.9051 4.06045 32.5802ZM3.49579 35.5267L8.43701 36.2911C8.39232 36.58 8.35097 36.87 8.31299 37.1611L3.355 36.5144C3.3981 36.184 3.44505 35.8547 3.49579 35.5267ZM3.14357 38.5023L8.12666 38.9131C8.10255 39.2056 8.04183 39.4991 8.06455 39.7936L3.07314 39.5006C3.09273 39.1668 3.11622 38.834 3.14357 38.5023ZM3.00294 41.498C3.00098 41.6651 3 41.8324 3 42C3 42.1676 3.00098 42.3349 3.00294 42.502L8.0026 42.4435C8.00087 42.2959 8 42.1481 8 42C8 41.8519 8.00087 41.7041 8.0026 41.5565L3.00294 41.498ZM3.07314 44.4994L8.06455 44.2064C8.04183 44.5009 8.10255 44.7944 8.12666 45.0469L3.14357 45.4977C3.11622 45.166 3.09273 44.8332 3.07314 44.4994ZM3.355 47.4856C3.3981 47.8161 3.44505 48.1453 3.49579 48.4733L8.43701 47.7089C8.39232 47.42 8.35097 47.13 8.31299 46.8389L3.355 47.4856ZM3.8485 50.441L8.74757 49.4415C8.80642 49.7299 8.86862 50.0171 8.93414 50.303L4.06045 51.4198C3.98602 51.0949 3.91535 50.7687 3.8485 50.441ZM4.55352 53.357L9.36808 52.0079C9.44724 52.2904 9.52967 52.5716 9.61533 52.8513L4.83449 54.3154C4.73715 53.9975 4.64348 53.678 4.55352 53.357ZM5.46563 56.2125L10.1707 54.5208C10.2701 54.7972 10.3727 55.0721 10.4785 55.3455L5.81532 57.1496C5.69515 56.839 5.57857 56.5266 5.46563 56.2125ZM6.58109 58.9962L11.1525 56.9709C11.2714 57.2392 11.3934 57.5059 11.5185 57.7709L6.9968 59.905C6.85474 59.604 6.71615 59.3011 6.58109 58.9962ZM7.89307 61.6921L12.3077 59.3444C12.4456 59.6037 12.5865 59.8612 12.7303 60.1169L8.373 62.5691C8.20966 62.2789 8.04966 61.9865 7.89307 61.6921ZM9.39472 64.2875L13.6304 61.6305C13.7864 61.8794 13.9454 62.1262 14.1072 62.371L9.93593 65.1279C9.75229 64.8501 9.57187 64.5699 9.39472 64.2875ZM11.0775 66.7691L15.1133 63.8173C15.2867 64.0545 15.4629 64.2895 15.6418 64.5223L11.6772 67.5689C11.4742 67.3048 11.2743 67.0382 11.0775 66.7691ZM12.9326 69.1248L16.7485 65.8939C16.9383 66.1181 17.1308 66.3401 17.3259 66.5597L13.5876 69.8801C13.3663 69.6309 13.148 69.3792 12.9326 69.1248ZM14.9502 71.343L18.5273 67.8495C18.7326 68.0597 18.9403 68.2674 19.1505 68.4727L15.657 72.0498C15.4186 71.817 15.183 71.5814 14.9502 71.343ZM17.1199 73.4124L20.4403 69.6741C20.6599 69.8692 20.8819 70.0617 21.1061 70.2515L17.8752 74.0674C17.6208 73.852 17.3691 73.6337 17.1199 73.4124ZM19.4311 75.3228L22.4777 71.3582C22.7105 71.5371 22.9455 71.7133 23.1827 71.8867L20.2309 75.9225C19.9618 75.7257 19.6952 75.5258 19.4311 75.3228ZM21.8721 77.0641L24.629 72.8928C24.8738 73.0546 25.1206 73.2136 25.3695 73.3696L22.7125 77.6053C22.4301 77.4281 22.1499 77.2477 21.8721 77.0641ZM24.4309 78.627L26.8831 74.2697C27.1388 74.4135 27.3963 74.5544 27.6556 74.6923L25.308 79.1069C25.0135 78.9503 24.7211 78.7903 24.4309 78.627ZM27.095 80.0032L29.2291 75.4815C29.4941 75.6066 29.7608 75.7286 30.0292 75.8475L28.0038 80.4189C27.699 80.2839 27.396 80.1453 27.095 80.0032ZM29.8504 81.1847L31.6545 76.5215C31.9279 76.6273 32.2028 76.7299 32.4792 76.8293L30.7875 81.5344C30.4734 81.4214 30.161 81.3049 29.8504 81.1847ZM32.6846 82.1655L34.1487 77.3847C34.4284 77.4703 34.7096 77.5528 34.9921 77.6319L33.643 82.4465C33.322 82.3565 33.0025 82.2629 32.6846 82.1655ZM35.5802 82.9395L36.697 78.0659C36.9829 78.1314 37.2701 78.1936 37.5586 78.2524L36.559 83.1515C36.2313 83.0447 35.9051 83.014 35.5802 82.9395ZM38.5267 83.5042L39.2911 78.563C39.58 78.6077 39.87 78.649 40.1611 78.687L39.5144 83.645C39.184 83.6019 38.8547 83.555 38.5267 83.5042ZM41.5023 83.8564L41.9131 78.8733C42.2056 78.8975 42.4991 78.9182 42.7936 78.9354L42.5006 83.9269C42.1668 83.9073 41.834 83.8838 41.5023 83.8564ZM44.498 83.9971L44.5565 78.9974C44.7041 78.9991 44.8519 79 45 79C45.1481 79 45.2959 78.9991 45.4435 78.9974L45.502 83.9971C45.3349 83.999 45.1676 84 45 84C44.8324 84 44.6651 83.999 44.498 83.9971ZM47.4994 83.9269L47.2064 78.9354C47.5009 78.9182 47.7944 78.8974 48.0469 78.8733L48.4977 83.8564C48.166 83.8838 47.8332 83.9073 47.4994 83.9269ZM50.4856 83.645L49.8389 78.687C50.13 78.649 50.42 78.6077 50.7089 78.563L51.4733 83.5042C51.1453 83.555 50.8161 83.6019 50.4856 83.645ZM53.441 83.1515L52.4415 78.2524C52.7299 78.1936 53.0171 78.1314 53.303 78.0659L54.4198 82.9395C54.0949 83.014 53.7687 83.0446 53.441 83.1515ZM56.357 82.4465L55.0079 77.6319C55.2904 77.5528 55.5716 77.4703 55.8513 77.3847L57.3154 82.1655C56.9975 82.2629 56.678 82.3565 56.357 82.4465ZM59.2125 81.5344L57.5208 76.8293C57.7972 76.7299 58.0721 76.6273 58.3455 76.5215L60.1496 81.1847C59.839 81.3049 59.5266 81.4214 59.2125 81.5344ZM61.9962 80.4189L59.9709 75.8475C60.2392 75.7286 60.5059 75.6066 60.7709 75.4815L62.905 80.0032C62.604 80.1453 62.3011 80.2838 61.9962 80.4189ZM64.6921 79.1069L62.3444 74.6923C62.6037 74.5544 62.8612 74.4135 63.1169 74.2697L65.5691 78.627C65.2789 78.7903 64.9865 78.9503 64.6921 79.1069ZM67.2875 77.6053L64.6305 73.3696C64.8794 73.2136 65.1262 73.0546 65.371 72.8928L68.1279 77.0641C67.8501 77.2477 67.5699 77.4281 67.2875 77.6053ZM69.7691 75.9225L66.8173 71.8867C67.0545 71.7133 67.2895 71.5371 67.5223 71.3582L70.5689 75.3228C70.3048 75.5258 70.0382 75.7257 69.7691 75.9225ZM72.1248 74.0674L68.8939 70.2515C69.1181 70.0617 69.3401 69.8692 69.5597 69.6741L72.8801 73.4124C72.6309 73.6337 72.3792 73.852 72.1248 74.0674ZM74.343 72.0498L70.8495 68.4727C71.0597 68.2674 71.2674 68.0597 71.4727 67.8495L75.0498 71.343C74.817 71.5814 74.5814 71.817 74.343 72.0498ZM76.4124 69.8801L72.6741 66.5597C72.8692 66.3401 73.0617 66.1181 73.2515 65.8939L77.0674 69.1248C76.852 69.3792 76.6337 69.6309 76.4124 69.8801ZM78.3228 67.5689L74.3582 64.5223C74.5371 64.2895 74.7133 64.0545 74.8867 63.8173L78.9225 66.7691C78.7257 67.0382 78.5258 67.3048 78.3228 67.5689ZM80.0641 65.1279L75.8928 62.371C76.0546 62.1262 76.2136 61.8794 76.3696 61.6305L80.6053 64.2875C80.4281 64.5699 80.2477 64.8501 80.0641 65.1279ZM81.627 62.5691L77.2697 60.1169C77.4135 59.8612 77.5544 59.6037 77.6923 59.3444L82.1069 61.692C81.9503 61.9865 81.7903 62.2789 81.627 62.5691ZM83.0032 59.905L78.4815 57.7709C78.6066 57.5059 78.7286 57.2392 78.8475 56.9708L83.4189 58.9962C83.2839 59.301 83.1453 59.604 83.0032 59.905ZM84.1847 57.1496L79.5215 55.3455C79.6273 55.0721 79.7299 54.7972 79.8293 54.5208L84.5344 56.2125C84.4214 56.5266 84.3049 56.839 84.1847 57.1496ZM85.1655 54.3154L80.3847 52.8513C80.4703 52.5716 80.5528 52.2904 80.6319 52.0079L85.4465 53.357C85.3565 53.678 85.2629 53.9975 85.1655 54.3154ZM85.9395 51.4198L81.0659 50.303C81.1314 50.0171 81.1936 49.7299 81.2524 49.4414L86.1515 50.441C86.0447 50.7687 86.014 51.0949 85.9395 51.4198ZM86.5042 48.4733L81.563 47.7089C81.6077 47.42 81.649 47.13 81.687 46.8389L86.645 47.4856C86.6019 47.816 86.555 48.1453 86.5042 48.4733ZM86.8564 45.4977L81.8733 45.0469C81.8975 44.7944 81.9182 44.5009 81.9354 44.2064L86.9269 44.4994C86.9073 44.8332 86.8838 45.166 86.8564 45.4977Z" fill="#5B5A7C"/>
<path d="M2.61591 25.8L5.12791 33H5.92791L6.87191 30.288L7.81591 33H8.61591L11.1279 25.8H10.3439L8.24791 31.816L7.29591 29.048L8.43991 25.8H7.65591L6.89591 27.96L6.14391 25.8H5.30391L6.47991 29.16L5.55191 31.816L3.45591 25.8H2.61591ZM15.3129 26.44C15.9289 26.44 16.4009 26.888 16.8249 27.336C17.2569 27.792 17.6809 28.304 17.6809 28.928V29.872C17.6809 30.496 17.2569 31.008 16.8249 31.464C16.4009 31.912 15.9289 32.36 15.3129 32.36H14.7849C14.1689 32.36 13.6969 31.912 13.2729 31.464C12.8409 31.008 12.4169 30.496 12.4169 29.872V28.928C12.4169 28.304 12.8409 27.792 13.2729 27.336C13.6969 26.888 14.1689 26.44 14.7849 26.44H15.3129ZM15.3129 25.72H14.7849C13.9769 25.72 13.3289 26.296 12.7609 26.872C12.1849 27.456 11.6249 28.112 11.6249 28.928V29.872C11.6249 30.688 12.1849 31.344 12.7609 31.928C13.3289 32.504 13.9769 33.04 14.7849 33.04H15.3129C16.1209 33.04 16.7689 32.504 17.3369 31.928C17.9129 31.344 18.4729 30.688 18.4729 29.872V28.928C18.4729 28.112 17.9129 27.456 17.3369 26.872C16.7689 26.296 16.1209 25.72 15.3129 25.72ZM19.7567 33H20.5487V29.664H21.8447L23.6447 33H24.5807L22.6527 29.552C22.9647 29.432 23.2527 29.248 23.5247 29.04C23.9247 28.744 24.3567 28.416 24.3567 27.928V27.536C24.3567 27.048 23.9247 26.72 23.5247 26.424C23.0447 26.096 22.5967 25.8 22.0447 25.8H19.7567V33ZM20.5487 26.52H22.0447C22.3967 26.52 22.7167 26.688 23.0127 26.888C23.2687 27.056 23.5647 27.248 23.5647 27.536V27.928C23.5647 28.216 23.2687 28.408 23.0127 28.576C22.7167 28.776 22.3967 28.944 22.0447 28.944H20.5487V26.52ZM25.4129 33H27.9169C28.7249 33 29.3809 32.44 29.9649 31.872C30.5409 31.304 31.1169 30.672 31.1169 29.864V28.936C31.1169 28.128 30.5409 27.496 29.9649 26.928C29.3809 26.36 28.7249 25.8 27.9169 25.8H25.4129V33ZM26.2049 32.28V26.52H27.9169C28.5329 26.52 29.0289 26.952 29.4609 27.392C29.9009 27.832 30.3249 28.32 30.3249 28.936V29.864C30.3249 30.48 29.9009 30.968 29.4609 31.408C29.0289 31.848 28.5329 32.28 27.9169 32.28H26.2049ZM32.2436 31.648C32.3956 31.944 32.6836 32.184 32.9556 32.408C33.3796 32.76 33.8596 33.04 34.4116 33.04H34.7396C35.2996 33.04 35.7956 32.784 36.2276 32.432C36.6276 32.104 37.0196 31.72 37.0196 31.208V30.808C37.0196 30.072 36.4276 29.504 35.7236 29.24L33.9556 28.768C33.5556 28.616 33.1796 28.352 33.1796 27.944V27.528C33.1796 27.24 33.3876 27.008 33.6116 26.816C33.8436 26.608 34.1236 26.44 34.4356 26.44H34.7156C35.0276 26.44 35.2916 26.632 35.5236 26.832C35.6596 26.952 35.8036 27.04 35.8916 27.232L36.6276 27.04C36.4836 26.792 36.2516 26.576 36.0276 26.376C35.6516 26.04 35.2196 25.72 34.7156 25.72H34.4356C33.9236 25.72 33.4836 26.016 33.0996 26.352C32.7396 26.672 32.3876 27.048 32.3876 27.528V27.944C32.3876 28.672 32.9796 29.224 33.6836 29.488L35.4516 29.96C35.8516 30.112 36.2276 30.392 36.2276 30.808V31.208C36.2276 31.528 35.9636 31.76 35.7076 31.96C35.4196 32.184 35.0996 32.36 34.7396 32.36H34.4116C34.0596 32.36 33.7396 32.16 33.4596 31.944C33.2276 31.76 32.9716 31.56 32.9316 31.288L32.2436 31.648ZM41.7515 33H42.5435V25.8H41.7515V33ZM44.2254 33H45.0174V27.184L48.8574 33H49.6574V25.8H48.8654V31.616L45.0254 25.8H44.2254V33ZM54.353 31.648C54.505 31.944 54.793 32.184 55.065 32.408C55.489 32.76 55.969 33.04 56.521 33.04H56.849C57.409 33.04 57.905 32.784 58.337 32.432C58.737 32.104 59.129 31.72 59.129 31.208V30.808C59.129 30.072 58.537 29.504 57.833 29.24L56.065 28.768C55.665 28.616 55.289 28.352 55.289 27.944V27.528C55.289 27.24 55.497 27.008 55.721 26.816C55.953 26.608 56.233 26.44 56.545 26.44H56.825C57.137 26.44 57.401 26.632 57.633 26.832C57.769 26.952 57.913 27.04 58.001 27.232L58.737 27.04C58.593 26.792 58.361 26.576 58.137 26.376C57.761 26.04 57.329 25.72 56.825 25.72H56.545C56.033 25.72 55.593 26.016 55.209 26.352C54.849 26.672 54.497 27.048 54.497 27.528V27.944C54.497 28.672 55.049 29.224 55.793 29.488L57.561 29.96C57.961 30.112 58.337 30.392 58.337 30.808V31.208C58.337 31.528 58.073 31.76 57.817 31.96C57.529 32.184 57.209 32.36 56.849 32.36H56.521C56.169 32.36 55.849 32.16 55.569 31.944C55.337 31.76 55.041 31.56 55.041 31.288L54.353 31.648ZM60.3973 33H61.1893V29.976H62.6853C63.2453 29.976 63.7333 29.656 64.1653 29.304C64.5653 28.976 64.9973 28.616 64.9973 28.104V27.672C64.9973 27.16 64.5653 26.8 64.1653 26.472C63.7333 26.12 63.2453 25.8 62.6853 25.8H60.3973V33ZM61.1893 26.52H62.6853C63.0453 26.52 63.3653 26.72 63.6533 26.936C63.9173 27.136 64.2053 27.352 64.2053 27.672V28.104C64.2053 28.424 63.9173 28.64 63.6533 28.84C63.3653 29.056 63.0453 29.256 62.6853 29.256H61.1893V26.52ZM65.4362 33H66.2122L67.0202 30.768H69.7802L70.5882 33H71.4282L68.8362 25.8H68.0362L65.4362 33ZM69.5242 30.048H67.2762L68.3962 26.936L69.5242 30.048ZM78.3551 31L77.7311 30.6C77.5711 30.912 77.3151 31.2 77.0671 31.464C76.6431 31.912 76.1711 32.36 75.5551 32.36H75.0271C74.4111 32.36 73.9391 31.912 73.5151 31.464C73.0431 31.008 72.6591 30.496 72.6591 29.872V28.928C72.6591 28.304 73.0431 27.792 73.5151 27.336C73.9391 26.888 74.4111 26.44 75.0271 26.44H75.5551C76.1711 26.44 76.6431 26.888 77.0671 27.336C77.3151 27.6 77.5711 27.888 77.7311 28.2L78.3551 27.8C78.1471 27.464 77.8591 27.16 77.5791 26.872C77.0111 26.296 76.3631 25.72 75.5551 25.72H75.0271C74.2191 25.72 73.5711 26.296 73.0031 26.872C72.4271 27.456 71.8671 28.112 71.8671 28.928V29.872C71.8671 30.688 72.4271 31.344 73.0031 31.928C73.5711 32.504 74.2191 33.04 75.0271 33.04H75.5551C76.3631 33.04 77.0111 32.504 77.5791 31.928C77.8591 31.64 78.1471 31.336 78.3551 31ZM79.7176 33H83.7496V32.28H80.5096V29.256H83.3576V28.536H80.5096V26.52H83.7496V25.8H79.7176V33ZM4.38819 46H5.18019V38.8H4.38819V46ZM6.63813 44.648C6.79013 44.944 7.07812 45.184 7.35013 45.408C7.77413 45.76 8.25413 46.04 8.80613 46.04H9.13413C9.69413 46.04 10.1901 45.784 10.6221 45.432C11.0221 45.104 11.4141 44.72 11.4141 44.208V43.808C11.4141 43.072 10.8221 42.504 10.1181 42.24L8.35013 41.768C7.95013 41.616 7.57413 41.352 7.57413 40.944V40.528C7.57413 40.24 7.78213 40.008 8.00613 39.816C8.23813 39.608 8.51813 39.44 8.83013 39.44H9.11013C9.42213 39.44 9.68613 39.632 9.91813 39.832C10.0541 39.952 10.1981 40.04 10.2861 40.232L11.0221 40.04C10.8781 39.792 10.6461 39.576 10.4221 39.376C10.0461 39.04 9.61413 38.72 9.11013 38.72H8.83013C8.31813 38.72 7.87813 39.016 7.49413 39.352C7.13412 39.672 6.78213 40.048 6.78213 40.528V40.944C6.78213 41.672 7.37413 42.224 8.07812 42.488L9.84613 42.96C10.2461 43.112 10.6221 43.392 10.6221 43.808V44.208C10.6221 44.528 10.3581 44.76 10.1021 44.96C9.81413 45.184 9.49413 45.36 9.13413 45.36H8.80613C8.45413 45.36 8.13412 45.16 7.85413 44.944C7.62213 44.76 7.36613 44.56 7.32613 44.288L6.63813 44.648ZM15.282 39.52H17.434V46H18.226V39.52H20.37V38.8H15.282V39.52ZM21.1824 46H21.9744V42.256H25.5344V46H26.3264V38.8H25.5344V41.536H21.9744V38.8H21.1824V46ZM27.9012 46H31.9332V45.28H28.6932V42.256H31.5412V41.536H28.6932V39.52H31.9332V38.8H27.9012V46ZM35.7917 38.8L38.3037 46H39.1037L40.0477 43.288L40.9917 46H41.7917L44.3037 38.8H43.5197L41.4237 44.816L40.4717 42.048L41.6157 38.8H40.8317L40.0717 40.96L39.3197 38.8H38.4797L39.6557 42.16L38.7277 44.816L36.6317 38.8H35.7917ZM45.1981 46H49.2301V45.28H45.9901V42.256H48.8381V41.536H45.9901V39.52H49.2301V38.8H45.1981V46ZM50.409 46H52.857C53.401 46 53.841 45.632 54.233 45.256C54.617 44.88 55.009 44.456 55.009 43.92V43.408C55.009 42.872 54.617 42.456 54.233 42.04C54.033 41.888 53.817 41.696 53.585 41.552C53.729 41.48 53.865 41.4 54.001 41.312C54.297 41.12 54.649 40.888 54.649 40.568V40.28C54.649 39.88 54.313 39.592 54.001 39.336C53.665 39.056 53.289 38.8 52.857 38.8H50.409V46ZM51.201 39.52H52.857C53.097 39.52 53.305 39.648 53.497 39.792C53.665 39.92 53.857 40.064 53.857 40.28V40.568C53.857 40.784 53.665 40.928 53.497 41.056C53.305 41.2 53.097 41.328 52.857 41.328H51.201V39.52ZM51.201 42.048H52.857C53.201 42.048 53.481 42.288 53.729 42.536C53.977 42.784 54.217 43.064 54.217 43.408V43.92C54.217 44.264 53.977 44.544 53.729 44.792C53.481 45.04 53.201 45.28 52.857 45.28H51.201V42.048ZM56.0678 44.648C56.2198 44.944 56.5078 45.184 56.7798 45.408C57.2038 45.76 57.6838 46.04 58.2358 46.04H58.5638C59.1238 46.04 59.6198 45.784 60.0518 45.432C60.4518 45.104 60.8438 44.72 60.8438 44.208V43.808C60.8438 43.072 60.2518 42.504 59.5478 42.24L57.7798 41.768C57.3798 41.616 57.0038 41.352 57.0038 40.944V40.528C57.0038 40.24 57.2118 40.008 57.4358 39.816C57.6678 39.608 57.9478 39.44 58.2598 39.44H58.5398C58.8518 39.44 59.1158 39.632 59.3478 39.832C59.4838 39.952 59.6278 40.04 59.7158 40.232L60.4518 40.04C60.3078 39.792 60.0758 39.576 59.8518 39.376C59.4758 39.04 59.0438 38.72 58.5398 38.72H58.2598C57.7478 38.72 57.3078 39.016 56.9238 39.352C56.5638 39.672 56.2118 40.048 56.2118 40.528V40.944C56.2118 41.672 56.8038 42.224 57.5078 42.488L59.2758 42.96C59.6758 43.112 60.0518 43.392 60.0518 43.808V44.208C60.0518 44.528 59.7878 44.76 59.5318 44.96C59.2438 45.184 58.9238 45.36 58.5638 45.36H58.2358C57.8838 45.36 57.5638 45.16 57.2838 44.944C57.0518 44.76 56.7958 44.56 56.7558 44.288L56.0678 44.648ZM62.2241 46H63.0161V38.8H62.2241V46ZM63.9461 39.52H66.0981V46H66.8901V39.52H69.0341V38.8H63.9461V39.52ZM69.8465 46H73.8785V45.28H70.6385V42.256H73.4865V41.536H70.6385V39.52H73.8785V38.8H69.8465V46ZM81.809 39.44C82.425 39.44 82.897 39.888 83.321 40.336C83.753 40.792 84.177 41.304 84.177 41.928V42.872C84.177 43.496 83.753 44.008 83.321 44.464C82.897 44.912 82.425 45.36 81.809 45.36H81.281C80.665 45.36 80.193 44.912 79.769 44.464C79.337 44.008 78.913 43.496 78.913 42.872V41.928C78.913 41.304 79.337 40.792 79.769 40.336C80.193 39.888 80.665 39.44 81.281 39.44H81.809ZM81.809 38.72H81.281C80.473 38.72 79.825 39.296 79.257 39.872C78.681 40.456 78.121 41.112 78.121 41.928V42.872C78.121 43.688 78.681 44.344 79.257 44.928C79.825 45.504 80.473 46.04 81.281 46.04H81.809C82.617 46.04 83.265 45.504 83.833 44.928C84.409 44.344 84.969 43.688 84.969 42.872V41.928C84.969 41.112 84.409 40.456 83.833 39.872C83.265 39.296 82.617 38.72 81.809 38.72ZM86.2528 46H87.0448V42.256H89.8928V41.536H87.0448V39.52H90.2848V38.8H86.2528V46ZM0.606875 57.648C0.758875 57.944 1.04688 58.184 1.31888 58.408C1.74288 58.76 2.22288 59.04 2.77488 59.04H3.10288C3.66288 59.04 4.15887 58.784 4.59088 58.432C4.99088 58.104 5.38288 57.72 5.38288 57.208V56.808C5.38288 56.072 4.79088 55.504 4.04687 55.24L2.31888 54.768C1.91888 54.616 1.54288 54.352 1.54288 53.944V53.528C1.54288 53.24 1.75088 53.008 1.97488 52.816C2.20688 52.608 2.48688 52.44 2.79888 52.44H3.07888C3.39088 52.44 3.65488 52.632 3.88688 52.832C4.02288 52.952 4.16688 53.04 4.25488 53.232L4.99088 53.04C4.84688 52.792 4.61488 52.576 4.39088 52.376C4.01488 52.04 3.58288 51.72 3.07888 51.72H2.79888C2.28688 51.72 1.84688 52.016 1.46288 52.352C1.10287 52.672 0.750875 53.048 0.750875 53.528V53.944C0.750875 54.672 1.34288 55.224 2.04688 55.488L3.81488 55.96C4.21488 56.112 4.59088 56.392 4.59088 56.808V57.208C4.59088 57.528 4.32688 57.76 4.07088 57.96C3.78288 58.184 3.46288 58.36 3.10288 58.36H2.77488C2.42288 58.36 2.10287 58.16 1.82288 57.944C1.59088 57.76 1.33488 57.56 1.29488 57.288L0.606875 57.648ZM6.65119 59H7.44319V55.256H11.0032V59H11.7952V51.8H11.0032V54.536H7.44319V51.8H6.65119V59ZM12.6979 59H13.4739L14.2819 56.768H17.0419L17.8499 59H18.6899L16.0979 51.8H15.2979L12.6979 59ZM16.7859 56.048H14.5379L15.6579 52.936L16.7859 56.048ZM19.5887 59H20.3807V53.184L24.2207 59H25.0207V51.8H24.2287V57.616L20.3887 51.8H19.5887V59ZM26.5887 59H27.3807V53.184L31.2207 59H32.0207V51.8H31.2287V57.616L27.3887 51.8H26.5887V59ZM36.9887 52.44C37.6047 52.44 38.0767 52.888 38.5007 53.336C38.9327 53.792 39.3567 54.304 39.3567 54.928V55.872C39.3567 56.496 38.9327 57.008 38.5007 57.464C38.0767 57.912 37.6047 58.36 36.9887 58.36H36.4607C35.8447 58.36 35.3727 57.912 34.9487 57.464C34.5167 57.008 34.0927 56.496 34.0927 55.872V54.928C34.0927 54.304 34.5167 53.792 34.9487 53.336C35.3727 52.888 35.8447 52.44 36.4607 52.44H36.9887ZM36.9887 51.72H36.4607C35.6527 51.72 35.0047 52.296 34.4367 52.872C33.8607 53.456 33.3007 54.112 33.3007 54.928V55.872C33.3007 56.688 33.8607 57.344 34.4367 57.928C35.0047 58.504 35.6527 59.04 36.4607 59.04H36.9887C37.7967 59.04 38.4447 58.504 39.0127 57.928C39.5887 57.344 40.1487 56.688 40.1487 55.872V54.928C40.1487 54.112 39.5887 53.456 39.0127 52.872C38.4447 52.296 37.7967 51.72 36.9887 51.72ZM41.4324 59H42.2244V53.184L46.0644 59H46.8644V51.8H46.0724V57.616L42.2324 51.8H41.4324V59ZM51.784 59H52.576V53.664L54.936 59H55.736L58.096 53.664V59H58.888V51.8H58.048L55.336 58.016L52.584 51.8H51.784V59ZM59.7917 59H60.5677L61.3757 56.768H64.1357L64.9437 59H65.7837L63.1917 51.8H62.3917L59.7917 59ZM63.8797 56.048H61.6317L62.7517 52.936L63.8797 56.048ZM65.2586 52.52H67.4106V59H68.2026V52.52H70.3466V51.8H65.2586V52.52ZM70.9695 52.52H73.1215V59H73.9135V52.52H76.0575V51.8H70.9695V52.52ZM76.8699 59H80.9019V58.28H77.6619V55.256H80.5099V54.536H77.6619V52.52H80.9019V51.8H76.8699V59ZM82.0409 59H82.8729V55.664H84.1689L85.9689 59H86.9049L84.9769 55.552C85.2889 55.432 85.5769 55.248 85.8489 55.04C86.2489 54.744 86.6809 54.416 86.6809 53.928V53.536C86.6809 53.048 86.2489 52.72 85.8489 52.424C85.4089 52.096 84.9209 51.8 84.3689 51.8H82.0409V59ZM82.8729 52.52H84.3689C84.7209 52.52 85.0409 52.688 85.3369 52.888C85.5929 53.056 85.8889 53.248 85.8889 53.536V53.928C85.8889 54.216 85.5929 54.408 85.3369 54.576C85.0409 54.776 84.7209 54.944 84.3689 54.944H82.8729V52.52ZM87.7371 59H88.5291V53.184L92.3691 59H93.1691V51.8H92.3771V57.616L88.5371 51.8H87.7371V59Z" fill="#5B5A7C"/>
</svg>
