<svg width="350" height="350" viewBox="0 0 350 350" fill="none" xmlns="http://www.w3.org/2000/svg">
<style type="text/css">
	.st0{fill-rule:evenodd;clip-rule:evenodd;fill:#5B5A7C;}
</style>
<path class="st0" d="M350,176.5l-20-0.2c0-0.4,0-0.9,0-1.3s0-0.9,0-1.3l20-0.2c0,0.5,0,1,0,1.5S350,176,350,176.5z M349.6,163.4
	l-20,1.3c-0.1-0.9-0.1-1.8-0.2-2.7l19.9-1.6C349.5,161.4,349.6,162.4,349.6,163.4z M348.3,150.4l-19.8,2.8c-0.1-0.9-0.3-1.8-0.4-2.6
	l19.8-3.1C348,148.4,348.1,149.4,348.3,150.4z M346,137.5c-0.2-1-0.4-2-0.7-2.9l-19.5,4.6c0.2,0.9,0.4,1.7,0.6,2.6L346,137.5z
	 M342.7,124.8l-19.2,5.7c-0.3-0.9-0.5-1.7-0.8-2.6l19.1-6.1C342.1,122.9,342.4,123.9,342.7,124.8z M338.5,112.5l-18.7,7.1
	c-0.3-0.8-0.6-1.7-1-2.5l18.6-7.5C337.8,110.6,338.1,111.5,338.5,112.5z M333.4,100.4l-18.1,8.5c-0.4-0.8-0.8-1.6-1.2-2.4l17.9-8.8
	C332.5,98.6,332.9,99.5,333.4,100.4z M327.3,88.8l-17.4,9.9c-0.4-0.8-0.9-1.5-1.3-2.3l17.2-10.2C326.3,87,326.8,87.9,327.3,88.8z
	 M320.5,77.7l-16.6,11.1c-0.5-0.7-1-1.5-1.5-2.2l16.4-11.4C319.3,76,319.9,76.8,320.5,77.7z M312.8,67.1L297,79.4
	c-0.6-0.7-1.1-1.4-1.7-2.1l15.5-12.6C311.5,65.5,312.1,66.3,312.8,67.1z M304.3,57.1l-14.8,13.5c-0.6-0.7-1.2-1.3-1.8-2l14.5-13.7
	C302.9,55.6,303.6,56.3,304.3,57.1z M295.1,47.7l-13.7,14.5c-0.6-0.6-1.3-1.2-2-1.8l13.5-14.8C293.7,46.4,294.4,47.1,295.1,47.7z
	 M285.3,39.1l-12.6,15.5c-0.7-0.6-1.4-1.1-2.1-1.7l12.3-15.7C283.7,37.9,284.5,38.5,285.3,39.1z M274.8,31.3l-11.4,16.4
	c-0.7-0.5-1.5-1-2.2-1.5l11.1-16.6C273.2,30.1,274,30.7,274.8,31.3z M263.8,24.2l-10.2,17.2c-0.8-0.5-1.5-0.9-2.3-1.3l9.9-17.4
	C262.1,23.2,263,23.7,263.8,24.2z M252.3,18l-8.8,17.9c-0.8-0.4-1.6-0.8-2.4-1.2l8.5-18.1C250.5,17.1,251.4,17.5,252.3,18z
	 M240.4,12.6l-7.5,18.6c-0.8-0.3-1.7-0.7-2.5-1l7.2-18.7C238.5,11.9,239.4,12.2,240.4,12.6z M228,8.2L222,27.2
	c-0.8-0.3-1.7-0.5-2.6-0.8l5.7-19.2C226.1,7.6,227.1,7.9,228,8.2z M215.4,4.7l-4.6,19.5c-0.9-0.2-1.7-0.4-2.6-0.6L212.5,4
	C213.5,4.2,214.5,4.5,215.4,4.7z M202.6,2.2l-3.1,19.8c-0.9-0.1-1.8-0.3-2.6-0.4l2.8-19.8C200.6,1.9,201.6,2,202.6,2.2z M189.6,0.6
	L188,20.5c-0.9-0.1-1.8-0.1-2.7-0.2l1.3-20C187.6,0.4,188.6,0.5,189.6,0.6z M176.5,0l-0.2,20c-0.4,0-0.9,0-1.3,0s-0.9,0-1.3,0
	l-0.2-20c0.5,0,1,0,1.5,0S176,0,176.5,0z M163.4,0.4l1.3,20c-0.9,0.1-1.8,0.1-2.7,0.2l-1.6-19.9C161.4,0.5,162.4,0.4,163.4,0.4z
	 M150.4,1.7l2.8,19.8c-0.9,0.1-1.8,0.3-2.6,0.4l-3.1-19.8C148.4,2,149.4,1.9,150.4,1.7z M137.5,4l4.3,19.5c-0.9,0.2-1.7,0.4-2.6,0.6
	l-4.6-19.5C135.5,4.5,136.5,4.2,137.5,4z M124.8,7.3l5.7,19.2c-0.9,0.3-1.7,0.5-2.6,0.8L122,8.2C122.9,7.9,123.9,7.6,124.8,7.3z
	 M112.5,11.5l7.1,18.7c-0.8,0.3-1.7,0.6-2.5,1l-7.5-18.6C110.6,12.2,111.5,11.9,112.5,11.5z M100.4,16.6l8.5,18.1
	c-0.8,0.4-1.6,0.8-2.4,1.2L97.7,18C98.6,17.5,99.5,17.1,100.4,16.6z M88.8,22.7l9.9,17.4c-0.8,0.4-1.5,0.9-2.3,1.3L86.2,24.2
	C87,23.7,87.9,23.2,88.8,22.7z M77.7,29.5l11.1,16.6c-0.7,0.5-1.5,1-2.2,1.5L75.2,31.3C76,30.7,76.8,30.1,77.7,29.5z M67.1,37.2
	L79.4,53c-0.7,0.6-1.4,1.1-2.1,1.7L64.7,39.1C65.5,38.5,66.3,37.9,67.1,37.2z M57.1,45.7l13.5,14.8c-0.7,0.6-1.3,1.2-2,1.8
	L54.9,47.7C55.6,47.1,56.3,46.4,57.1,45.7z M47.7,54.9l14.5,13.7c-0.6,0.6-1.2,1.3-1.8,2L45.7,57.1C46.4,56.3,47.1,55.6,47.7,54.9z
	 M39.1,64.7l15.5,12.6c-0.6,0.7-1.1,1.4-1.7,2.1L37.2,67.1C37.9,66.3,38.5,65.5,39.1,64.7z M31.3,75.2c-0.6,0.8-1.1,1.7-1.7,2.5
	l16.6,11.1c0.5-0.7,1-1.5,1.5-2.2L31.3,75.2z M24.2,86.2l17.2,10.2c-0.5,0.8-0.9,1.5-1.3,2.3l-17.4-9.9C23.2,87.9,23.7,87,24.2,86.2
	z M18,97.7l17.9,8.8c-0.4,0.8-0.8,1.6-1.2,2.4l-18.1-8.5C17.1,99.5,17.5,98.6,18,97.7z M12.6,109.6l18.6,7.5c-0.3,0.8-0.7,1.7-1,2.5
	l-18.7-7.1C11.9,111.5,12.2,110.6,12.6,109.6z M8.2,122l19.1,6.1c-0.3,0.8-0.5,1.7-0.8,2.6l-19.2-5.7C7.6,123.9,7.9,122.9,8.2,122z
	 M4.7,134.6l19.5,4.6c-0.2,0.9-0.4,1.7-0.6,2.6L4,137.5C4.2,136.5,4.5,135.5,4.7,134.6z M2.2,147.4l19.8,3.1
	c-0.1,0.9-0.3,1.8-0.4,2.6l-19.8-2.8C1.9,149.4,2,148.4,2.2,147.4z M0.6,160.4l19.9,1.6c-0.1,0.9-0.1,1.8-0.2,2.7l-20-1.3
	C0.4,162.4,0.5,161.4,0.6,160.4z M0,173.5c0,0.5,0,1,0,1.5s0,1,0,1.5l20-0.2c0-0.4,0-0.9,0-1.3s0-0.9,0-1.3L0,173.5z M0.4,186.6
	l20-1.3c0.1,0.9,0.1,1.8,0.2,2.7l-19.9,1.6C0.5,188.6,0.4,187.6,0.4,186.6z M1.7,199.6l19.8-2.8c0.1,0.9,0.3,1.8,0.4,2.6l-19.8,3.1
	C2,201.6,1.9,200.6,1.7,199.6z M4,212.5l19.5-4.3c0.2,0.9,0.4,1.7,0.6,2.6l-19.5,4.6C4.5,214.5,4.2,213.5,4,212.5z M7.3,225.2
	l19.2-5.7c0.3,0.9,0.5,1.7,0.8,2.6L8.2,228C7.9,227.1,7.6,226.1,7.3,225.2z M11.5,237.5l18.7-7.2c0.3,0.8,0.6,1.7,1,2.5l-18.6,7.5
	C12.2,239.4,11.9,238.5,11.5,237.5z M16.6,249.6l18.1-8.5c0.4,0.8,0.8,1.6,1.2,2.4L18,252.3C17.5,251.4,17.1,250.5,16.6,249.6z
	 M22.7,261.2l17.4-9.9c0.4,0.8,0.9,1.5,1.3,2.3l-17.2,10.2C23.7,263,23.2,262.1,22.7,261.2z M29.5,272.3c0.6,0.8,1.1,1.7,1.7,2.5
	l16.4-11.4c-0.5-0.7-1-1.5-1.5-2.2L29.5,272.3z M37.2,282.9L53,270.6c0.6,0.7,1.1,1.4,1.7,2.1l-15.5,12.6
	C38.5,284.5,37.9,283.7,37.2,282.9z M45.7,292.9l14.8-13.5c0.6,0.7,1.2,1.3,1.8,2l-14.5,13.7C47.1,294.4,46.4,293.7,45.7,292.9z
	 M54.9,302.3l13.7-14.5c0.6,0.6,1.3,1.2,2,1.8l-13.5,14.8C56.3,303.6,55.6,302.9,54.9,302.3z M64.7,310.9l12.6-15.5
	c0.7,0.6,1.4,1.1,2.1,1.7l-12.3,15.7C66.3,312.1,65.5,311.5,64.7,310.9z M75.2,318.7l11.4-16.4c0.7,0.5,1.5,1,2.2,1.5l-11.1,16.6
	C76.8,319.9,76,319.3,75.2,318.7z M86.2,325.8l10.2-17.2c0.8,0.5,1.5,0.9,2.3,1.3l-9.9,17.4C87.9,326.8,87,326.3,86.2,325.8z
	 M97.7,332l8.8-17.9c0.8,0.4,1.6,0.8,2.4,1.2l-8.5,18.1C99.5,332.9,98.6,332.5,97.7,332z M109.6,337.4l7.5-18.6
	c0.8,0.3,1.7,0.7,2.5,1l-7.1,18.7C111.5,338.1,110.6,337.8,109.6,337.4z M122,341.8l6.1-19.1c0.8,0.3,1.7,0.5,2.6,0.8l-5.7,19.2
	C123.9,342.4,122.9,342.1,122,341.8z M134.6,345.3l4.6-19.5c0.9,0.2,1.7,0.4,2.6,0.6l-4.3,19.5C136.5,345.8,135.5,345.5,134.6,345.3
	z M147.4,347.8l3.1-19.8c0.9,0.1,1.8,0.3,2.6,0.4l-2.8,19.8C149.4,348.1,148.4,348,147.4,347.8z M160.4,349.4l1.6-19.9
	c0.9,0.1,1.8,0.1,2.7,0.2l-1.3,20C162.4,349.6,161.4,349.5,160.4,349.4z M173.5,350l0.2-20c0.4,0,0.9,0,1.3,0s0.9,0,1.3,0l0.2,20
	c-0.5,0-1,0-1.5,0S174,350,173.5,350z M186.6,349.6l-1.3-20c0.9-0.1,1.8-0.1,2.7-0.2l1.6,19.9C188.6,349.5,187.6,349.6,186.6,349.6z
	 M199.6,348.3l-2.8-19.8c0.9-0.1,1.8-0.3,2.6-0.4l3.1,19.8C201.6,348,200.6,348.1,199.6,348.3z M212.5,346c1-0.2,2-0.4,2.9-0.7
	l-4.6-19.5c-0.9,0.2-1.7,0.4-2.6,0.6L212.5,346z M225.2,342.7l-5.7-19.2c0.9-0.3,1.7-0.5,2.6-0.8l6.1,19.1
	C227.1,342.1,226.1,342.4,225.2,342.7z M237.5,338.5l-7.2-18.7c0.8-0.3,1.7-0.6,2.5-1l7.5,18.6C239.4,337.8,238.5,338.1,237.5,338.5
	z M249.6,333.4l-8.5-18.1c0.8-0.4,1.6-0.8,2.4-1.2l8.8,17.9C251.4,332.5,250.5,332.9,249.6,333.4z M261.2,327.3l-9.9-17.4
	c0.8-0.4,1.5-0.9,2.3-1.3l10.2,17.2C263,326.3,262.1,326.8,261.2,327.3z M272.3,320.5l-11.1-16.6c0.7-0.5,1.5-1,2.2-1.5l11.4,16.4
	C274,319.3,273.2,319.9,272.3,320.5z M282.9,312.8L270.6,297c0.7-0.6,1.4-1.1,2.1-1.7l12.6,15.5
	C284.5,311.5,283.7,312.1,282.9,312.8z M292.9,304.3l-13.5-14.8c0.7-0.6,1.3-1.2,2-1.8l13.7,14.5
	C294.4,302.9,293.7,303.6,292.9,304.3z M302.3,295.1l-14.5-13.7c0.6-0.6,1.2-1.3,1.8-2l14.8,13.5
	C303.6,293.7,302.9,294.4,302.3,295.1z M310.9,285.3l-15.5-12.6c0.6-0.7,1.1-1.4,1.7-2.1l15.7,12.3
	C312.1,283.7,311.5,284.5,310.9,285.3z M318.7,274.8l-16.4-11.4c0.5-0.7,1-1.5,1.5-2.2l16.6,11.1C319.9,273.2,319.3,274,318.7,274.8
	z M325.8,263.8l-17.2-10.2c0.5-0.8,0.9-1.5,1.3-2.3l17.4,9.9C326.8,262.1,326.3,263,325.8,263.8z M332,252.3l-17.9-8.8
	c0.4-0.8,0.8-1.6,1.2-2.4l18.1,8.5C332.9,250.5,332.5,251.4,332,252.3z M337.4,240.4l-18.6-7.5c0.3-0.8,0.7-1.7,1-2.5l18.7,7.2
	C338.1,238.5,337.8,239.4,337.4,240.4z M341.8,228l-19.1-6.1c0.3-0.8,0.5-1.7,0.8-2.6l19.2,5.7C342.4,226.1,342.1,227.1,341.8,228z
	 M345.3,215.4l-19.5-4.6c0.2-0.9,0.4-1.7,0.6-2.6l19.5,4.3C345.8,213.5,345.5,214.5,345.3,215.4z M347.8,202.6l-19.8-3.1
	c0.1-0.9,0.3-1.8,0.4-2.6l19.8,2.8C348.1,200.6,348,201.6,347.8,202.6z M349.4,189.6l-19.9-1.6c0.1-0.9,0.1-1.8,0.2-2.7l20,1.3
	C349.6,187.6,349.5,188.6,349.4,189.6z"/>
</svg>
