<svg width="389" height="389" viewBox="0 0 389 389" fill="none" xmlns="http://www.w3.org/2000/svg">
<circle cx="194.5" cy="194.5" r="194.5" fill="url(#paint0_linear)"/>
<circle cx="194.5" cy="194.5" r="194" stroke="#6262F4" stroke-dasharray="10 10"/>
<path d="M149.497 170.6H148.633V180.6C148.633 181.576 147.897 182.344 147.161 183C146.377 183.688 145.497 184.296 144.457 184.296C143.417 184.296 142.521 183.688 141.737 183C141.001 182.344 140.281 181.576 140.281 180.6V170.6H139.417V180.6C139.417 181.8 140.281 182.744 141.177 183.56C142.105 184.408 143.193 185.16 144.457 185.16C145.721 185.16 146.793 184.408 147.721 183.56C148.617 182.744 149.497 181.8 149.497 180.6V170.6ZM152.513 185H153.377V178.776H156.641C157.841 178.776 158.881 178.12 159.793 177.352C160.641 176.632 161.489 175.8 161.489 174.696C161.489 173.592 160.641 172.744 159.793 172.024C158.881 171.256 157.841 170.6 156.641 170.6H152.513V185ZM153.377 171.464H156.641C157.617 171.464 158.481 171.992 159.233 172.6C159.921 173.16 160.625 173.816 160.625 174.696C160.625 175.576 159.921 176.232 159.233 176.792C158.481 177.4 157.617 177.912 156.641 177.912H153.377V171.464ZM175.316 181.192L174.66 180.728C174.356 181.176 174.004 181.608 173.636 182.024C172.596 183.176 171.38 184.296 169.844 184.296C168.308 184.296 167.092 183.176 166.052 182.024C164.964 180.824 164.02 179.416 164.02 177.8C164.02 176.184 164.964 174.776 166.052 173.576C167.092 172.424 168.308 171.304 169.844 171.304C171.38 171.304 172.596 172.424 173.636 173.576C174.004 173.992 174.356 174.424 174.66 174.872L175.316 174.408C174.98 173.912 174.596 173.464 174.196 173.016C173.012 171.704 171.604 170.44 169.844 170.44C168.084 170.44 166.676 171.704 165.492 173.016C164.26 174.376 163.156 175.96 163.156 177.8C163.156 179.64 164.26 181.224 165.492 182.584C166.676 183.896 168.084 185.16 169.844 185.16C171.604 185.16 173.012 183.896 174.196 182.584C174.596 182.136 174.98 181.688 175.316 181.192ZM184.641 171.304C186.177 171.304 187.393 172.424 188.433 173.576C189.521 174.776 190.465 176.184 190.465 177.8C190.465 179.416 189.521 180.824 188.433 182.024C187.393 183.176 186.177 184.296 184.641 184.296C183.105 184.296 181.889 183.176 180.849 182.024C179.761 180.824 178.817 179.416 178.817 177.8C178.817 176.184 179.761 174.776 180.849 173.576C181.889 172.424 183.105 171.304 184.641 171.304ZM184.641 170.44C182.881 170.44 181.473 171.704 180.289 173.016C179.057 174.376 177.953 175.96 177.953 177.8C177.953 179.64 179.057 181.224 180.289 182.584C181.473 183.896 182.881 185.16 184.641 185.16C186.401 185.16 187.809 183.896 188.993 182.584C190.225 181.224 191.329 179.64 191.329 177.8C191.329 175.96 190.225 174.376 188.993 173.016C187.809 171.704 186.401 170.44 184.641 170.44ZM193.841 185H194.705V170.824L199.921 185H201.697L206.913 170.824V185H207.777V170.6H206.001L200.801 184.712L195.617 170.6H193.841V185ZM211.049 185H211.913V170.6H211.049V185ZM215.2 185H216.064V170.92L224.048 185H225.824V170.6H224.96V184.68L216.976 170.6H215.2V185ZM241.735 185V176.504H235.047V177.368H240.871V179.096C240.871 180.472 239.879 181.544 238.839 182.472C237.751 183.432 236.503 184.296 235.047 184.296C233.511 184.296 232.295 183.176 231.255 182.024C230.167 180.824 229.223 179.416 229.223 177.8C229.223 176.184 230.167 174.776 231.255 173.576C232.295 172.424 233.511 171.304 235.047 171.304C236.583 171.304 237.799 172.424 238.839 173.576C239.111 173.88 239.383 174.184 239.623 174.52L240.263 174.04C239.991 173.688 239.703 173.352 239.399 173.016C238.215 171.704 236.807 170.44 235.047 170.44C233.287 170.44 231.879 171.704 230.695 173.016C229.463 174.376 228.359 175.96 228.359 177.8C228.359 179.64 229.463 181.224 230.695 182.584C231.879 183.896 233.287 185.16 235.047 185.16C236.631 185.16 237.959 184.136 239.111 183.032C239.799 182.376 240.455 181.64 240.871 180.824V185H241.735ZM158.497 211H166.385V210.136H159.361V203.368H165.953V202.504H159.361V197.464H166.385V196.6H158.497V211ZM167.324 196.6L172.028 211H173.804L178.508 196.6H177.564L172.892 210.888L168.236 196.6H167.324ZM180.216 211H188.104V210.136H181.08V203.368H187.672V202.504H181.08V197.464H188.104V196.6H180.216V211ZM190.403 211H191.267V196.92L199.251 211H201.027V196.6H200.163V210.68L192.179 196.6H190.403V211ZM202.554 197.464H207.178V211H208.042V197.464H212.666V196.6H202.554V197.464ZM214.056 208.584C214.376 209.016 214.792 209.4 215.208 209.752C216.104 210.504 217.128 211.16 218.296 211.16C219.48 211.16 220.552 210.568 221.464 209.8C222.296 209.096 223.064 208.232 223.064 207.144C223.064 205.448 221.912 203.976 220.264 203.576L216.968 203.064C215.672 202.744 214.696 201.656 214.696 200.344C214.696 199.528 215.288 198.856 215.912 198.328C216.6 197.752 217.4 197.304 218.296 197.304C219.176 197.304 219.976 197.784 220.648 198.36C220.92 198.584 221.176 198.824 221.4 199.096L222.136 198.76C221.864 198.424 221.544 198.088 221.208 197.8C220.376 197.08 219.4 196.44 218.296 196.44C217.176 196.44 216.184 197.016 215.336 197.752C214.552 198.44 213.832 199.304 213.832 200.344C213.832 202.072 215.08 203.512 216.76 203.928L220.056 204.44C221.304 204.744 222.2 205.864 222.2 207.144C222.2 208.008 221.56 208.696 220.888 209.24C220.136 209.848 219.256 210.296 218.296 210.296C217.352 210.296 216.504 209.784 215.768 209.192C215.368 208.872 214.968 208.52 214.712 208.104L214.056 208.584Z" fill="#6262F4"/>
<defs>
<linearGradient id="paint0_linear" x1="194.5" y1="0" x2="194.5" y2="389" gradientUnits="userSpaceOnUse">
<stop stop-color="#E79180" stop-opacity="0.49"/>
<stop offset="1" stop-color="#C4C4C4" stop-opacity="0"/>
</linearGradient>
</defs>
</svg>
