<?xml version="1.0" encoding="utf-8"?>
<!-- Generator: Adobe Illustrator 23.0.1, SVG Export Plug-In . SVG Version: 6.00 Build 0)  -->
<svg version="1.1" id="Layer_1" xmlns="http://www.w3.org/2000/svg" xmlns:xlink="http://www.w3.org/1999/xlink" x="0px" y="0px"
	 viewBox="0 0 181 181" style="enable-background:new 0 0 181 181;" xml:space="preserve">
<style type="text/css">
	.st0{fill-rule:evenodd;clip-rule:evenodd;fill:#9F9FD6;}
</style>
<path class="st0" d="M181,92l-5-0.1c0-0.5,0-0.9,0-1.4s0-0.9,0-1.4l5-0.1c0,0.5,0,1,0,1.5S181,91.5,181,92z M180.3,79.1l-5,0.6
	c-0.1-0.9-0.3-1.9-0.4-2.8l4.9-0.8C180,77.1,180.2,78.1,180.3,79.1z M177.8,66.4l-4.8,1.3c-0.3-0.9-0.5-1.8-0.8-2.7l4.8-1.5
	C177.2,64.5,177.5,65.5,177.8,66.4z M173.5,54.3l-4.6,2c-0.4-0.9-0.8-1.7-1.2-2.6l4.5-2.2C172.6,52.4,173.1,53.3,173.5,54.3z
	 M167.4,42.8l-4.2,2.6c-0.5-0.8-1-1.6-1.5-2.4l4.2-2.8C166.4,41.1,166.9,42,167.4,42.8z M159.9,32.4l-3.8,3.2
	c-0.6-0.7-1.2-1.4-1.8-2.1l3.7-3.3C158.6,30.9,159.2,31.6,159.9,32.4z M150.9,23.1l-3.3,3.7c-0.7-0.6-1.4-1.2-2.1-1.8l3.2-3.8
	C149.4,21.8,150.1,22.4,150.9,23.1z M140.7,15.2l-2.8,4.2c-0.8-0.5-1.6-1-2.4-1.5l2.6-4.2C139,14.1,139.9,14.6,140.7,15.2z
	 M129.5,8.8l-2.2,4.5c-0.8-0.4-1.7-0.8-2.6-1.2l2-4.6C127.7,7.9,128.6,8.4,129.5,8.8z M117.4,4.1l-1.5,4.8c-0.9-0.3-1.8-0.5-2.7-0.8
	l1.3-4.8C115.5,3.5,116.5,3.8,117.4,4.1z M104.9,1.1l-0.8,4.9c-0.9-0.1-1.9-0.3-2.8-0.4l0.6-5C102.9,0.8,103.9,1,104.9,1.1z M92,0
	l-0.1,5c-0.5,0-0.9,0-1.4,0s-0.9,0-1.4,0L89,0c0.5,0,1,0,1.5,0S91.5,0,92,0z M79.1,0.7l0.6,5c-0.9,0.1-1.9,0.2-2.8,0.4l-0.8-4.9
	C77.1,1,78.1,0.8,79.1,0.7z M66.4,3.2l1.3,4.8c-0.9,0.2-1.8,0.5-2.7,0.8l-1.5-4.8C64.5,3.8,65.5,3.5,66.4,3.2z M54.3,7.5l2,4.6
	c-0.9,0.4-1.7,0.8-2.6,1.2l-2.2-4.5C52.4,8.4,53.3,7.9,54.3,7.5z M42.8,13.6l2.6,4.2c-0.8,0.5-1.6,1-2.4,1.5l-2.8-4.2
	C41.1,14.6,42,14.1,42.8,13.6z M32.4,21.1l3.2,3.8c-0.7,0.6-1.4,1.2-2.1,1.8l-3.3-3.7C30.9,22.4,31.6,21.8,32.4,21.1z M23.1,30.1
	l3.7,3.3c-0.6,0.7-1.2,1.4-1.8,2.1l-3.8-3.2C21.8,31.6,22.4,30.9,23.1,30.1z M15.2,40.3l4.2,2.8c-0.5,0.8-1,1.6-1.5,2.4l-4.2-2.6
	C14.1,42,14.6,41.1,15.2,40.3z M8.8,51.5l4.5,2.2c-0.4,0.8-0.8,1.7-1.2,2.6l-4.6-2C7.9,53.3,8.4,52.4,8.8,51.5z M4.1,63.6l4.8,1.5
	c-0.3,0.9-0.5,1.8-0.8,2.7l-4.8-1.3C3.5,65.5,3.8,64.5,4.1,63.6z M1.1,76.1l4.9,0.8c-0.1,0.9-0.3,1.9-0.4,2.8l-5-0.6
	C0.8,78.1,1,77.1,1.1,76.1z M0,89c0,0.5,0,1,0,1.5s0,1,0,1.5l5-0.1c0-0.5,0-0.9,0-1.4s0-0.9,0-1.4L0,89z M0.7,101.9l5-0.6
	c0.1,0.9,0.2,1.9,0.4,2.8l-4.9,0.8C1,103.9,0.8,102.9,0.7,101.9z M3.2,114.6l4.8-1.3c0.2,0.9,0.5,1.8,0.8,2.7l-4.8,1.5
	C3.8,116.5,3.5,115.5,3.2,114.6z M7.5,126.7l4.6-2c0.4,0.9,0.8,1.7,1.2,2.6l-4.5,2.2C8.4,128.6,7.9,127.7,7.5,126.7z M13.6,138.2
	l4.2-2.6c0.5,0.8,1,1.6,1.5,2.4l-4.2,2.8C14.6,139.9,14.1,139,13.6,138.2z M21.1,148.6l3.8-3.2c0.6,0.7,1.2,1.4,1.8,2.1l-3.7,3.3
	C22.4,150.1,21.8,149.4,21.1,148.6z M30.1,157.9l3.3-3.7c0.7,0.6,1.4,1.2,2.1,1.8l-3.2,3.8C31.6,159.2,30.9,158.6,30.1,157.9z
	 M40.3,165.8l2.8-4.2c0.8,0.5,1.6,1,2.4,1.5l-2.6,4.2C42,166.9,41.1,166.4,40.3,165.8z M51.5,172.2l2.2-4.5c0.8,0.4,1.7,0.8,2.6,1.2
	l-2,4.6C53.3,173.1,52.4,172.6,51.5,172.2z M63.6,176.9l1.5-4.8c0.9,0.3,1.8,0.5,2.7,0.8l-1.3,4.8C65.5,177.5,64.5,177.2,63.6,176.9
	z M76.1,179.9l0.8-4.9c0.9,0.1,1.9,0.3,2.8,0.4l-0.6,5C78.1,180.2,77.1,180,76.1,179.9z M89,181l0.1-5c0.5,0,0.9,0,1.4,0
	s0.9,0,1.4,0l0.1,5c-0.5,0-1,0-1.5,0S89.5,181,89,181z M101.9,180.3l-0.6-5c0.9-0.1,1.9-0.3,2.8-0.4l0.8,4.9
	C103.9,180,102.9,180.2,101.9,180.3z M114.6,177.8l-1.3-4.8c0.9-0.3,1.8-0.5,2.7-0.8l1.5,4.8C116.5,177.2,115.5,177.5,114.6,177.8z
	 M126.7,173.5l-2-4.6c0.9-0.4,1.7-0.8,2.6-1.2l2.2,4.5C128.6,172.6,127.7,173.1,126.7,173.5z M138.2,167.4l-2.6-4.2
	c0.8-0.5,1.6-1,2.4-1.5l2.8,4.2C139.9,166.4,139,166.9,138.2,167.4z M148.6,159.9l-3.2-3.8c0.7-0.6,1.4-1.2,2.1-1.8l3.3,3.7
	C150.1,158.6,149.4,159.2,148.6,159.9z M157.9,150.9l-3.7-3.3c0.6-0.7,1.2-1.4,1.8-2.1l3.8,3.2C159.2,149.4,158.6,150.1,157.9,150.9
	z M165.8,140.7l-4.2-2.8c0.5-0.8,1-1.6,1.5-2.4l4.2,2.6C166.9,139,166.4,139.9,165.8,140.7z M172.2,129.5l-4.5-2.2
	c0.4-0.8,0.8-1.7,1.2-2.6l4.6,2C173.1,127.7,172.6,128.6,172.2,129.5z M176.9,117.4c0.3-0.9,0.6-1.9,0.8-2.9l-4.8-1.3
	c-0.3,0.9-0.5,1.8-0.8,2.7L176.9,117.4z M179.9,104.9l-4.9-0.8c0.1-0.9,0.3-1.9,0.4-2.8l5,0.6C180.2,102.9,180,103.9,179.9,104.9z"
	/>
</svg>
