<svg width="84" height="12" viewBox="0 0 84 12" fill="none" xmlns="http://www.w3.org/2000/svg">
<path d="M10.1224 8.76514L9.15948 8.14786C8.91257 8.62934 8.5175 9.07378 8.13479 9.48119C7.48047 10.1726 6.75207 10.8639 5.80146 10.8639H4.98664C4.03602 10.8639 3.30763 10.1726 2.65331 9.48119C1.98664 8.77749 1.33232 7.98736 1.33232 7.0244V5.56761C1.33232 4.60465 1.98664 3.81453 2.65331 3.11082C3.30763 2.41946 4.03602 1.72811 4.98664 1.72811H5.80146C6.75207 1.72811 7.48047 2.41946 8.13479 3.11082C8.5175 3.51823 8.91257 3.96267 9.15948 4.44416L10.1224 3.82687C9.80146 3.30835 9.35701 2.83922 8.92491 2.39477C8.04837 1.50588 7.04837 0.616995 5.80146 0.616995H4.98664C3.73973 0.616995 2.73973 1.50588 1.86318 2.39477C0.974295 3.29601 0.110098 4.30835 0.110098 5.56761V7.0244C0.110098 8.28366 0.974295 9.29601 1.86318 10.1972C2.73973 11.0461 3.73973 11.975 4.98664 11.975H5.80146C7.04837 11.975 8.04837 11.0461 8.92491 10.1972C9.35701 9.7528 9.80146 9.28366 10.1224 8.76514ZM17.472 1.72811C18.4226 1.72811 19.151 2.41946 19.8053 3.11082C20.472 3.81453 21.1263 4.60465 21.1263 5.56761V7.0244C21.1263 7.98736 20.472 8.77749 19.8053 9.48119C19.151 10.1726 18.4226 10.8639 17.472 10.8639H16.6572C15.7065 10.8639 14.9782 10.1726 14.3238 9.48119C13.6572 8.77749 13.0028 7.98736 13.0028 7.0244V5.56761C13.0028 4.60465 13.6572 3.81453 14.3238 3.11082C14.9782 2.41946 15.7065 1.72811 16.6572 1.72811H17.472ZM17.472 0.616995H16.6572C15.4103 0.616995 14.4103 1.50588 13.5337 2.39477C12.6448 3.29601 11.7806 4.30835 11.7806 5.56761V7.0244C11.7806 8.28366 12.6448 9.29601 13.5337 10.1972C14.4103 11.0461 15.4103 11.975 16.6572 11.975H17.472C18.7189 11.975 19.7189 11.0461 20.5954 10.1972C21.4843 9.29601 22.3485 8.28366 22.3485 7.0244V5.56761C22.3485 4.30835 21.4843 3.29601 20.5954 2.39477C19.7189 1.50588 18.7189 0.616995 17.472 0.616995ZM24.3296 11.8516H30.5518V10.7405H25.5518V0.740452H24.3296V11.8516ZM36.9188 1.72811C37.8695 1.72811 38.5978 2.41946 39.2522 3.11082C39.9188 3.81453 40.5732 4.60465 40.5732 5.56761V7.0244C40.5732 7.98736 39.9188 8.77749 39.2522 9.48119C38.5978 10.1726 37.8695 10.8639 36.9188 10.8639H36.104C35.1534 10.8639 34.425 10.1726 33.7707 9.48119C33.104 8.77749 32.4497 7.98736 32.4497 7.0244V5.56761C32.4497 4.60465 33.104 3.81453 33.7707 3.11082C34.425 2.41946 35.1534 1.72811 36.104 1.72811H36.9188ZM36.9188 0.616995H36.104C34.8571 0.616995 33.8571 1.50588 32.9806 2.39477C32.0917 3.29601 31.2275 4.30835 31.2275 5.56761V7.0244C31.2275 8.28366 32.0917 9.29601 32.9806 10.1972C33.8571 11.0461 34.8571 11.975 36.104 11.975H36.9188C38.1657 11.975 39.1657 11.0461 40.0423 10.1972C40.9312 9.29601 41.7954 8.28366 41.7954 7.0244V5.56761C41.7954 4.30835 40.9312 3.29601 40.0423 2.39477C39.1657 1.50588 38.1657 0.616995 36.9188 0.616995ZM43.7765 11.8516H44.9987V7.1849H47.3073C48.1715 7.1849 48.9246 6.69107 49.5913 6.14786C50.2086 5.64169 50.8752 5.04613 50.8752 4.29601V3.62934C50.8752 2.83922 50.2086 2.28366 49.5913 1.77749C48.9246 1.23428 48.1715 0.740452 47.3073 0.740452H43.7765V11.8516ZM44.9987 1.85156H47.3073C47.8629 1.85156 48.3567 2.1602 48.8012 2.49354C49.2086 2.80218 49.653 3.13551 49.653 3.62934V4.29601C49.653 4.78983 49.2086 5.12317 48.8012 5.43181C48.3567 5.76514 47.8629 6.07378 47.3073 6.07378H44.9987V1.85156ZM52.5896 11.8516H53.8119V6.07378H59.3057V11.8516H60.5279V0.740452H59.3057V4.96267H53.8119V0.740452H52.5896V11.8516ZM68.205 1.72811C69.1556 1.72811 69.884 2.41946 70.5383 3.11082C71.205 3.81453 71.8593 4.60465 71.8593 5.56761V7.0244C71.8593 7.98736 71.205 8.77749 70.5383 9.48119C69.884 10.1726 69.1556 10.8639 68.205 10.8639H67.3902C66.4396 10.8639 65.7112 10.1726 65.0569 9.48119C64.3902 8.77749 63.7359 7.98736 63.7359 7.0244V5.56761C63.7359 4.60465 64.3902 3.81453 65.0569 3.11082C65.7112 2.41946 66.4396 1.72811 67.3902 1.72811H68.205ZM68.205 0.616995H67.3902C66.1433 0.616995 65.1433 1.50588 64.2667 2.39477C63.3778 3.29601 62.5136 4.30835 62.5136 5.56761V7.0244C62.5136 8.28366 63.3778 9.29601 64.2667 10.1972C65.1433 11.0461 66.1433 11.975 67.3902 11.975H68.205C69.4519 11.975 70.4519 11.0461 71.3285 10.1972C72.2174 9.29601 73.0415 8.28366 73.0415 7.0244V5.56761C73.0415 4.30835 72.2174 3.29601 71.3285 2.39477C70.4519 1.50588 69.4519 0.616995 68.205 0.616995ZM75.0626 11.8516H76.2849V2.87625L82.2108 11.8516H83.4454V0.740452H82.2231V9.71576L76.2972 0.740452H75.0626V11.8516Z" fill="#6262F4"/>
</svg>
