<svg width="389" height="389" viewBox="0 0 389 389" fill="none" xmlns="http://www.w3.org/2000/svg" id="sticker-browser">
<circle cx="194.5" cy="194.5" r="194.5" fill="url(#paint0_linear)"/>
<circle cx="194.5" cy="194.5" r="179" stroke="#6262F4" stroke-width="31" stroke-dasharray="2 10"/>
<path d="M153.841 185H158.321C159.473 185 160.433 184.264 161.249 183.448C162.065 182.648 162.817 181.688 162.817 180.552C162.817 179.416 162.065 178.456 161.249 177.656C160.721 177.128 160.129 176.632 159.457 176.344C159.985 176.168 160.497 175.896 160.961 175.576C161.649 175.112 162.385 174.6 162.385 173.784C162.385 172.904 161.665 172.264 160.961 171.72C160.193 171.112 159.297 170.6 158.321 170.6H153.841V185ZM154.705 171.464H158.321C159.089 171.464 159.777 171.832 160.401 172.28C160.945 172.68 161.521 173.128 161.521 173.784C161.521 174.44 160.945 174.888 160.401 175.288C159.777 175.736 159.089 176.104 158.321 176.104H154.705V171.464ZM154.705 176.968H158.321C159.249 176.968 160.033 177.56 160.689 178.216C161.345 178.872 161.953 179.624 161.953 180.552C161.953 181.48 161.345 182.232 160.689 182.888C160.033 183.544 159.249 184.136 158.321 184.136H154.705V176.968ZM165.341 185H166.205V178.168H169.757L173.757 185H174.797L170.605 177.992C171.341 177.768 172.029 177.336 172.653 176.856C173.485 176.2 174.349 175.448 174.349 174.392C174.349 173.336 173.485 172.584 172.653 171.928C171.725 171.208 170.669 170.6 169.485 170.6H165.341V185ZM166.205 171.464H169.485C170.445 171.464 171.325 171.928 172.093 172.488C172.781 172.984 173.485 173.56 173.485 174.392C173.485 175.224 172.781 175.784 172.093 176.28C171.325 176.84 170.445 177.304 169.485 177.304H166.205V171.464ZM182.563 171.304C184.099 171.304 185.315 172.424 186.355 173.576C187.443 174.776 188.387 176.184 188.387 177.8C188.387 179.416 187.443 180.824 186.355 182.024C185.315 183.176 184.099 184.296 182.563 184.296C181.027 184.296 179.811 183.176 178.771 182.024C177.683 180.824 176.739 179.416 176.739 177.8C176.739 176.184 177.683 174.776 178.771 173.576C179.811 172.424 181.027 171.304 182.563 171.304ZM182.563 170.44C180.803 170.44 179.395 171.704 178.211 173.016C176.979 174.376 175.875 175.96 175.875 177.8C175.875 179.64 176.979 181.224 178.211 182.584C179.395 183.896 180.803 185.16 182.563 185.16C184.323 185.16 185.731 183.896 186.915 182.584C188.147 181.224 189.251 179.64 189.251 177.8C189.251 175.96 188.147 174.376 186.915 173.016C185.731 171.704 184.323 170.44 182.563 170.44ZM190.216 170.6L195.112 185H196.888L198.552 180.104L200.216 185H201.992L206.888 170.6H205.944L201.096 184.888L199.016 178.76L201.784 170.6H200.84L198.536 177.368L196.248 170.6H195.336L198.088 178.712L195.992 184.888L191.128 170.6H190.216ZM208.525 182.584C208.845 183.016 209.261 183.4 209.677 183.752C210.573 184.504 211.597 185.16 212.765 185.16C213.949 185.16 215.021 184.568 215.933 183.8C216.765 183.096 217.533 182.232 217.533 181.144C217.533 179.448 216.381 177.976 214.733 177.576L211.437 177.064C210.141 176.744 209.165 175.656 209.165 174.344C209.165 173.528 209.757 172.856 210.381 172.328C211.069 171.752 211.869 171.304 212.765 171.304C213.645 171.304 214.445 171.784 215.117 172.36C215.389 172.584 215.645 172.824 215.869 173.096L216.605 172.76C216.333 172.424 216.013 172.088 215.677 171.8C214.845 171.08 213.869 170.44 212.765 170.44C211.645 170.44 210.653 171.016 209.805 171.752C209.021 172.44 208.301 173.304 208.301 174.344C208.301 176.072 209.549 177.512 211.229 177.928L214.525 178.44C215.773 178.744 216.669 179.864 216.669 181.144C216.669 182.008 216.029 182.696 215.357 183.24C214.605 183.848 213.725 184.296 212.765 184.296C211.821 184.296 210.973 183.784 210.237 183.192C209.837 182.872 209.437 182.52 209.181 182.104L208.525 182.584ZM220.044 185H227.932V184.136H220.908V177.368H227.5V176.504H220.908V171.464H227.932V170.6H220.044V185ZM163.247 196.6L168.143 211H169.919L171.583 206.104L173.247 211H175.023L179.919 196.6H178.975L174.127 210.888L172.047 204.76L174.815 196.6H173.871L171.567 203.368L169.279 196.6H168.367L171.119 204.712L169.023 210.888L164.159 196.6H163.247ZM187.61 197.304C189.146 197.304 190.362 198.424 191.402 199.576C192.49 200.776 193.434 202.184 193.434 203.8C193.434 205.416 192.49 206.824 191.402 208.024C190.362 209.176 189.146 210.296 187.61 210.296C186.074 210.296 184.858 209.176 183.818 208.024C182.73 206.824 181.786 205.416 181.786 203.8C181.786 202.184 182.73 200.776 183.818 199.576C184.858 198.424 186.074 197.304 187.61 197.304ZM187.61 196.44C185.85 196.44 184.442 197.704 183.258 199.016C182.026 200.376 180.922 201.96 180.922 203.8C180.922 205.64 182.026 207.224 183.258 208.584C184.442 209.896 185.85 211.16 187.61 211.16C189.37 211.16 190.778 209.896 191.962 208.584C193.194 207.224 194.298 205.64 194.298 203.8C194.298 201.96 193.194 200.376 191.962 199.016C190.778 197.704 189.37 196.44 187.61 196.44ZM196.809 211H197.673V204.168H201.225L205.225 211H206.265L202.073 203.992C202.809 203.768 203.497 203.336 204.121 202.856C204.953 202.2 205.817 201.448 205.817 200.392C205.817 199.336 204.953 198.584 204.121 197.928C203.193 197.208 202.137 196.6 200.953 196.6H196.809V211ZM197.673 197.464H200.953C201.913 197.464 202.793 197.928 203.561 198.488C204.249 198.984 204.953 199.56 204.953 200.392C204.953 201.224 204.249 201.784 203.561 202.28C202.793 202.84 201.913 203.304 200.953 203.304H197.673V197.464ZM207.888 196.6V211H208.752V204.104L211.296 202.024L216.944 211H218L211.984 201.464L218 196.6H216.56L208.752 202.936V196.6H207.888Z" fill="#6262F4"/>
<defs>
<linearGradient id="paint0_linear" x1="194.5" y1="0" x2="194.5" y2="389" gradientUnits="userSpaceOnUse">
<stop stop-color="#E79180" stop-opacity="0.49"/>
<stop offset="1" stop-color="#C4C4C4" stop-opacity="0"/>
</linearGradient>
</defs>
</svg>
