<svg width="350" height="350" viewBox="0 0 350 350" fill="none" xmlns="http://www.w3.org/2000/svg">
<style type="text/css">
	.st0{fill:#5B5A7C;}
</style>
<path class="st0" d="M108.5,152.5H106v15.9c0,1.2-0.9,2.1-1.8,3c-0.9,0.9-2,1.7-3.2,1.7h-1.1c-1.3,0-2.3-0.8-3.2-1.7
	c-0.9-0.8-1.8-1.8-1.8-3v-15.9h-2.5v15.9c0,1.8,1.4,3.2,2.7,4.4c1.4,1.3,2.9,2.5,4.8,2.5h1.1c1.9,0,3.4-1.2,4.8-2.5
	c1.3-1.2,2.7-2.6,2.7-4.4V152.5z"/>
<path class="st0" d="M113.3,175h2.5v-9.4h4.7c1.8,0,3.3-1,4.6-2.1c1.3-1,2.6-2.1,2.6-3.8v-1.3c0-1.6-1.3-2.7-2.6-3.8
	c-1.4-1.1-2.9-2.1-4.6-2.1h-7.2V175z M115.8,154.8h4.7c1.1,0,2.1,0.6,3,1.3c0.8,0.6,1.7,1.3,1.7,2.3v1.3c0,1-0.9,1.7-1.7,2.3
	c-0.9,0.7-1.9,1.3-3,1.3h-4.7V154.8z"/>
<path class="st0" d="M150.5,168.8l-1.9-1.3c-0.5,1-1.3,1.9-2.1,2.7c-1.3,1.4-2.8,2.8-4.7,2.8h-1.7c-1.9,0-3.4-1.4-4.7-2.8
	c-1.4-1.4-2.7-3-2.7-5v-3c0-1.9,1.3-3.5,2.7-5c1.3-1.4,2.8-2.8,4.7-2.8h1.7c1.9,0,3.4,1.4,4.7,2.8c0.8,0.8,1.6,1.7,2.1,2.7l1.9-1.3
	c-0.7-1.1-1.6-2-2.4-2.9c-1.8-1.8-3.8-3.6-6.3-3.6h-1.7c-2.5,0-4.5,1.8-6.3,3.6c-1.8,1.8-3.6,3.9-3.6,6.4v3c0,2.5,1.8,4.6,3.6,6.4
	c1.8,1.8,3.8,3.6,6.3,3.6h1.7c2.5,0,4.6-1.8,6.3-3.6C149,170.8,149.9,169.8,150.5,168.8z"/>
<path class="st0" d="M165.4,154.5c1.9,0,3.4,1.4,4.7,2.8c1.3,1.4,2.7,3,2.7,5v3c0,1.9-1.3,3.5-2.7,5c-1.3,1.4-2.8,2.8-4.7,2.8h-1.6
	c-1.9,0-3.4-1.4-4.7-2.8c-1.3-1.4-2.7-3-2.7-5v-3c0-1.9,1.3-3.5,2.7-5c1.3-1.4,2.8-2.8,4.7-2.8H165.4z M165.4,152.3h-1.6
	c-2.5,0-4.6,1.8-6.3,3.6c-1.8,1.8-3.6,3.9-3.6,6.4v3c0,2.5,1.8,4.6,3.6,6.4c1.8,1.8,3.8,3.6,6.3,3.6h1.6c2.5,0,4.6-1.8,6.3-3.6
	c1.8-1.8,3.6-3.9,3.6-6.4v-3c0-2.5-1.8-4.6-3.6-6.4C170,154.1,167.9,152.3,165.4,152.3z"/>
<path class="st0" d="M179.3,175h2.5v-16.7l7.4,16.7h2.5l7.4-16.7V175h2.5v-22.5H199l-8.6,19.4l-8.6-19.4h-2.5V175z"/>
<path class="st0" d="M206.8,175h2.5v-22.5h-2.5V175z"/>
<path class="st0" d="M214.5,175h2.5v-18.2l12,18.2h2.5v-22.5H229v18.2l-12-18.2h-2.5V175z"/>
<path class="st0" d="M256.9,175v-13.9h-10.7v2.3h8.2v3.5c0,1.7-1.4,2.9-2.7,4c-1.4,1.1-2.9,2.3-4.7,2.3h-1.6c-1.9,0-3.4-1.4-4.7-2.8
	c-1.3-1.4-2.7-3-2.7-5v-3c0-1.9,1.3-3.5,2.7-5c1.3-1.4,2.8-2.8,4.7-2.8h1.6c1.9,0,3.4,1.4,4.7,2.8c0.5,0.6,1.1,1.1,1.5,1.8l1.7-1.4
	c-0.5-0.6-1.1-1.3-1.6-1.8c-1.8-1.8-3.8-3.6-6.3-3.6h-1.6c-2.5,0-4.6,1.8-6.3,3.6c-1.8,1.8-3.6,3.9-3.6,6.4v3c0,2.5,1.8,4.6,3.6,6.4
	c1.8,1.8,3.8,3.6,6.3,3.6h1.6c2.2,0,4-1.5,5.5-3.1c0.7-0.6,1.3-1.3,1.9-2.1v4.9H256.9z"/>
<path class="st0" d="M123.4,208H136v-2.3h-10.1v-9.4h8.9v-2.3h-8.9v-6.3H136v-2.3h-12.6V208z"/>
<path class="st0" d="M137.5,185.5l7.6,22.5h2.5l7.7-22.5h-2.5l-6.4,18.7l-6.3-18.7H137.5z"/>
<path class="st0" d="M158.1,208h12.6v-2.3h-10.1v-9.4h8.9v-2.3h-8.9v-6.3h10.1v-2.3h-12.6V208z"/>
<path class="st0" d="M174.4,208h2.5v-18.2l12,18.2h2.5v-22.5h-2.5v18.2l-12-18.2h-2.5V208z"/>
<path class="st0" d="M193.9,187.8h6.7V208h2.5v-20.3h6.7v-2.3h-15.9V187.8z"/>
<path class="st0" d="M211.6,203.8c0.5,0.9,1.4,1.7,2.2,2.4c1.3,1.1,2.8,2.1,4.6,2.1h1c1.8,0,3.3-0.9,4.7-2c1.3-1,2.5-2.2,2.5-3.8
	v-1.3c0-2.3-1.8-4.1-4-4.9l-5.5-1.5c-1.3-0.5-2.4-1.3-2.4-2.6v-1.3c0-0.9,0.7-1.6,1.4-2.2c0.7-0.7,1.6-1.2,2.6-1.2h0.9
	c1,0,1.8,0.6,2.5,1.2c0.4,0.4,0.9,0.8,1.1,1.3l2.3-0.6c-0.4-0.8-1.2-1.4-1.9-2.1c-1.2-1.1-2.5-2.1-4.1-2.1h-0.9c-1.6,0-3,0.9-4.2,2
	c-1.1,1-2.2,2.2-2.2,3.7v1.3c0,2.3,1.8,4,4.1,4.8l5.5,1.5c1.3,0.5,2.4,1.4,2.4,2.6v1.3c0,1-0.8,1.7-1.6,2.4c-0.9,0.7-1.9,1.3-3,1.3
	h-1c-1.1,0-2.1-0.6-3-1.3c-0.7-0.6-1.5-1.2-1.6-2.1L211.6,203.8z"/>
</svg>
