<svg width="69" height="12" viewBox="0 0 69 12" fill="none" xmlns="http://www.w3.org/2000/svg">
<path d="M0.421295 11.8516H6.64352V10.7405H1.64352V6.07378H6.03858V4.96267H1.64352V1.85156H6.64352V0.740451H0.421295V11.8516ZM8.46287 11.8516H9.68509V3.61699L13.3271 11.8516H14.5616L18.2036 3.61699V11.8516H19.4258V0.740451H18.1913L13.9443 10.333L9.69743 0.740451H8.46287V11.8516ZM20.8204 11.8516H22.0179L23.2649 8.40712H27.5241L28.771 11.8516H30.0673L26.0673 0.740451H24.8328L20.8204 11.8516ZM27.129 7.29601H23.6599L25.3883 2.49354L27.129 7.29601ZM31.6271 11.8516H32.8493V0.740451H31.6271V11.8516ZM35.4449 11.8516H41.6671V10.7405H36.6671V0.740451H35.4449V11.8516ZM48.5622 11.8516H49.7844V3.61699L53.4264 11.8516H54.661L58.303 3.61699V11.8516H59.5252V0.740451H58.2906L54.0437 10.333L49.7968 0.740451H48.5622V11.8516ZM61.9568 11.8516H68.179V10.7405H63.179V6.07378H67.5741V4.96267H63.179V1.85156H68.179V0.740451H61.9568V11.8516Z" fill="#6262F4"/>
</svg>
