<svg width="151" height="57" viewBox="0 0 151 57" fill="none" xmlns="http://www.w3.org/2000/svg">
<path d="M16.9515 23H24.6015C26.3015 23 27.6765 21.85 28.9015 20.675C30.1015 19.5 31.3265 18.175 31.3265 16.5V14.9C31.3265 13.225 30.1015 11.925 28.9015 10.75C28.2765 10.15 27.6015 9.55 26.8765 9.1C27.3265 8.875 27.7515 8.625 28.1765 8.35C29.1015 7.75 30.2015 7.025 30.2015 6.025V5.125C30.2015 3.875 29.1515 2.975 28.1765 2.175C27.1265 1.3 25.9515 0.499999 24.6015 0.499999H16.9515V23ZM19.4265 2.75H24.6015C25.3515 2.75 26.0015 3.15 26.6015 3.6C27.1265 4 27.7265 4.45 27.7265 5.125V6.025C27.7265 6.7 27.1265 7.15 26.6015 7.55C26.0015 8 25.3515 8.4 24.6015 8.4H19.4265V2.75ZM19.4265 10.65H24.6015C25.6765 10.65 26.5515 11.4 27.3265 12.175C28.1015 12.95 28.8515 13.825 28.8515 14.9V16.5C28.8515 17.575 28.1015 18.45 27.3265 19.225C26.5515 20 25.6765 20.75 24.6015 20.75H19.4265V10.65ZM35.3353 23H37.8103V12.575H41.8603L47.4853 23H50.4103L44.3853 12.225C45.3603 11.85 46.2603 11.275 47.1103 10.625C48.3603 9.7 49.7103 8.675 49.7103 7.15V5.925C49.7103 4.4 48.3603 3.375 47.1103 2.45C45.7353 1.425 44.2103 0.499999 42.4853 0.499999H35.3353V23ZM37.8103 2.75H42.4853C43.5853 2.75 44.5853 3.275 45.5103 3.9C46.3103 4.425 47.2353 5.025 47.2353 5.925V7.15C47.2353 8.05 46.3103 8.65 45.5103 9.175C44.5853 9.8 43.5853 10.325 42.4853 10.325H37.8103V2.75ZM63.636 2.5C65.561 2.5 67.036 3.9 68.361 5.3C69.711 6.725 71.036 8.325 71.036 10.275V13.225C71.036 15.175 69.711 16.775 68.361 18.2C67.036 19.6 65.561 21 63.636 21H61.986C60.061 21 58.586 19.6 57.261 18.2C55.911 16.775 54.586 15.175 54.586 13.225V10.275C54.586 8.325 55.911 6.725 57.261 5.3C58.586 3.9 60.061 2.5 61.986 2.5H63.636ZM63.636 0.249999H61.986C59.461 0.249999 57.436 2.05 55.661 3.85C53.861 5.675 52.111 7.725 52.111 10.275V13.225C52.111 15.775 53.861 17.825 55.661 19.65C57.436 21.45 59.461 23.25 61.986 23.25H63.636C66.161 23.25 68.186 21.45 69.961 19.65C71.761 17.825 73.511 15.775 73.511 13.225V10.275C73.511 7.725 71.761 5.675 69.961 3.85C68.186 2.05 66.161 0.249999 63.636 0.249999ZM75.081 0.499999L82.931 23H85.431L88.381 14.525L91.331 23H93.831L101.681 0.499999H99.231L92.681 19.3L89.706 10.775L93.281 0.499999H90.831L88.456 7.25L86.106 0.499999H83.481L87.156 11L84.256 19.3L77.706 0.499999H75.081ZM103.776 18.775C104.251 19.7 105.151 20.45 106.001 21.15C107.326 22.25 108.826 23.25 110.551 23.25H111.576C113.326 23.25 114.876 22.325 116.226 21.225C117.476 20.2 118.701 19 118.701 17.4V16.15C118.701 13.85 116.851 12.075 114.651 11.25L109.126 9.775C107.876 9.3 106.701 8.475 106.701 7.2V5.9C106.701 5 107.351 4.275 108.051 3.675C108.776 3.025 109.651 2.5 110.626 2.5H111.501C112.476 2.5 113.301 3.1 114.026 3.725C114.451 4.1 114.901 4.5 115.176 4.975L117.476 4.375C117.026 3.6 116.301 2.925 115.601 2.3C114.426 1.25 113.076 0.249999 111.501 0.249999H110.626C109.026 0.249999 107.651 1.175 106.451 2.225C105.326 3.225 104.226 4.4 104.226 5.9V7.2C104.226 9.475 106.076 11.2 108.276 12.025L113.801 13.5C115.051 13.975 116.226 14.85 116.226 16.15V17.4C116.226 18.4 115.401 19.125 114.601 19.75C113.701 20.45 112.701 21 111.576 21H110.551C109.451 21 108.451 20.375 107.576 19.7C106.851 19.125 106.051 18.5 105.926 17.65L103.776 18.775ZM122.664 23H135.264V20.75H125.139V11.3H134.039V9.05H125.139V2.75H135.264V0.499999H122.664V23ZM0.959863 56H3.38486L5.90986 49.025H14.5349L17.0599 56H19.6849L11.5849 33.5H9.08486L0.959863 56ZM13.7349 46.775H6.70986L10.2099 37.05L13.7349 46.775ZM22.4935 56H35.0935V53.75H24.9685V33.5H22.4935V56ZM38.5823 56H51.1823V53.75H41.0573V33.5H38.5823V56ZM63.0448 33.5L70.8948 56H73.3948L76.3448 47.525L79.2948 56H81.7948L89.6448 33.5H87.1948L80.6448 52.3L77.6698 43.775L81.2448 33.5H78.7948L76.4198 40.25L74.0698 33.5H71.4448L75.1198 44L72.2198 52.3L65.6698 33.5H63.0448ZM102.723 35.5C104.648 35.5 106.123 36.9 107.448 38.3C108.798 39.725 110.123 41.325 110.123 43.275V46.225C110.123 48.175 108.798 49.775 107.448 51.2C106.123 52.6 104.648 54 102.723 54H101.073C99.1479 54 97.6729 52.6 96.3479 51.2C94.9979 49.775 93.6729 48.175 93.6729 46.225V43.275C93.6729 41.325 94.9979 39.725 96.3479 38.3C97.6729 36.9 99.1479 35.5 101.073 35.5H102.723ZM102.723 33.25H101.073C98.5479 33.25 96.5229 35.05 94.7479 36.85C92.9479 38.675 91.1979 40.725 91.1979 43.275V46.225C91.1979 48.775 92.9479 50.825 94.7479 52.65C96.5229 54.45 98.5479 56.25 101.073 56.25H102.723C105.248 56.25 107.273 54.45 109.048 52.65C110.848 50.825 112.598 48.775 112.598 46.225V43.275C112.598 40.725 110.848 38.675 109.048 36.85C107.273 35.05 105.248 33.25 102.723 33.25ZM116.61 56H119.085V45.575H123.135L128.76 56H131.685L125.66 45.225C126.635 44.85 127.535 44.275 128.385 43.625C129.635 42.7 130.985 41.675 130.985 40.15V38.925C130.985 37.4 129.635 36.375 128.385 35.45C127.01 34.425 125.485 33.5 123.76 33.5H116.61V56ZM119.085 35.75H123.76C124.86 35.75 125.86 36.275 126.785 36.9C127.585 37.425 128.51 38.025 128.51 38.925V40.15C128.51 41.05 127.585 41.65 126.785 42.175C125.86 42.8 124.86 43.325 123.76 43.325H119.085V35.75ZM134.285 33.5V56H136.76V46.5L139.985 43.375L147.26 56H150.185L141.86 41.55L150.185 33.5H146.76L140.635 39.425C139.335 40.675 138.06 41.925 136.76 43.175V33.5H134.285Z" fill="#6262F4"/>
</svg>
