<svg width="120" height="120" viewBox="0 0 243 243" fill="none" xmlns="http://www.w3.org/2000/svg" id='sticker-cv'>
<circle cx="121.5" cy="121.5" r="78" stroke="#6262F4" stroke-opacity="0.5" stroke-width="87" stroke-dasharray="3 20"/>
<path d="M115.542 126.75L113.592 125.5C113.092 126.475 112.292 127.375 111.517 128.2C110.192 129.6 108.717 131 106.792 131H105.142C103.217 131 101.742 129.6 100.417 128.2C99.0668 126.775 97.7418 125.175 97.7418 123.225V120.275C97.7418 118.325 99.0668 116.725 100.417 115.3C101.742 113.9 103.217 112.5 105.142 112.5H106.792C108.717 112.5 110.192 113.9 111.517 115.3C112.292 116.125 113.092 117.025 113.592 118L115.542 116.75C114.892 115.7 113.992 114.75 113.117 113.85C111.342 112.05 109.317 110.25 106.792 110.25H105.142C102.617 110.25 100.592 112.05 98.8168 113.85C97.0168 115.675 95.2668 117.725 95.2668 120.275V123.225C95.2668 125.775 97.0168 127.825 98.8168 129.65C100.592 131.45 102.617 133.25 105.142 133.25H106.792C109.317 133.25 111.342 131.45 113.117 129.65C113.992 128.75 114.892 127.8 115.542 126.75ZM121.4 129.775C121 129.775 120.675 130.05 120.375 130.35C120.075 130.65 119.775 131 119.775 131.4C119.775 131.8 120.075 132.125 120.375 132.425C120.675 132.725 121 133 121.4 133C121.8 133 122.125 132.725 122.425 132.425C122.725 132.125 123 131.8 123 131.4C123 131 122.725 130.65 122.425 130.35C122.125 130.05 121.8 129.775 121.4 129.775ZM125.731 110.5L133.381 133H135.881L143.556 110.5H141.081L134.706 129.2L128.356 110.5H125.731ZM145.252 129.775C144.852 129.775 144.527 130.05 144.227 130.35C143.927 130.65 143.627 131 143.627 131.4C143.627 131.8 143.927 132.125 144.227 132.425C144.527 132.725 144.852 133 145.252 133C145.652 133 145.977 132.725 146.277 132.425C146.577 132.125 146.852 131.8 146.852 131.4C146.852 131 146.577 130.65 146.277 130.35C145.977 130.05 145.652 129.775 145.252 129.775Z" fill="#6262F4"/>
</svg>
