<svg width="73" height="12" viewBox="0 0 73 12" fill="none" xmlns="http://www.w3.org/2000/svg">
<path d="M0.208957 11.8516H1.43118V7.1849H3.73982C4.60402 7.1849 5.35711 6.69107 6.02377 6.14786C6.64106 5.64169 7.30772 5.08613 7.30772 4.29601V3.62934C7.30772 2.83922 6.64106 2.28366 6.02377 1.77749C5.35711 1.23428 4.60402 0.740451 3.73982 0.740451H0.208957V11.8516ZM1.43118 1.85156H3.73982C4.29538 1.85156 4.7892 2.1602 5.23365 2.49354C5.64106 2.80218 6.0855 3.13551 6.0855 3.62934V4.29601C6.0855 4.78983 5.64106 5.12317 5.23365 5.43181C4.7892 5.76514 4.29538 6.07378 3.73982 6.07378H1.43118V1.85156ZM9.19497 11.8516H10.4172V0.740451H9.19497V11.8516ZM13.0128 11.8516H14.235V2.87625L20.1609 11.8516H21.3955V0.740451H20.1733V9.71576L14.2473 0.740451H13.0128V11.8516ZM23.8152 11.8516H27.593C28.4325 11.8516 29.1115 11.2837 29.7165 10.7034C30.3091 10.1232 30.914 9.46885 30.914 8.64169V7.85156C30.914 7.0244 30.3091 6.38243 29.7165 5.80218C29.4078 5.50588 29.0745 5.20959 28.7165 4.98736C28.9387 4.87625 29.1486 4.7528 29.3585 4.61699C29.8152 4.3207 30.3585 3.96267 30.3585 3.46885V3.0244C30.3585 2.40712 29.8399 1.96267 29.3585 1.56761C28.8399 1.13551 28.2597 0.740451 27.593 0.740451H23.8152V11.8516ZM25.0375 1.85156H27.593C27.9634 1.85156 28.2844 2.04909 28.5807 2.27132C28.8399 2.46885 29.1362 2.69107 29.1362 3.0244V3.46885C29.1362 3.80218 28.8399 4.0244 28.5807 4.22193C28.2844 4.44415 27.9634 4.64169 27.593 4.64169H25.0375V1.85156ZM25.0375 5.7528H27.593C28.1239 5.7528 28.556 6.12317 28.9387 6.50588C29.3214 6.8886 29.6918 7.3207 29.6918 7.85156V8.64169C29.6918 9.17255 29.3214 9.60465 28.9387 9.98736C28.556 10.3701 28.1239 10.7405 27.593 10.7405H25.0375V5.7528ZM38.1406 1.7281C39.0912 1.7281 39.8196 2.41946 40.4739 3.11082C41.1406 3.81453 41.7949 4.60465 41.7949 5.56761V7.0244C41.7949 7.98736 41.1406 8.77749 40.4739 9.48119C39.8196 10.1726 39.0912 10.8639 38.1406 10.8639H37.3258C36.3751 10.8639 35.6467 10.1726 34.9924 9.48119C34.3258 8.77749 33.6714 7.98736 33.6714 7.0244V5.56761C33.6714 4.60465 34.3258 3.81453 34.9924 3.11082C35.6467 2.41946 36.3751 1.7281 37.3258 1.7281H38.1406ZM38.1406 0.616994H37.3258C36.0788 0.616994 35.0788 1.50588 34.2023 2.39477C33.3134 3.29601 32.4492 4.30835 32.4492 5.56761V7.0244C32.4492 8.28366 33.3134 9.29601 34.2023 10.1972C35.0788 11.0861 36.0788 11.975 37.3258 11.975H38.1406C39.3875 11.975 40.3875 11.0861 41.264 10.1972C42.1529 9.29601 43.0171 8.28366 43.0171 7.0244V5.56761C43.0171 4.30835 42.1529 3.29601 41.264 2.39477C40.3875 1.50588 39.3875 0.616994 38.1406 0.616994ZM43.9612 11.8516H45.1587L46.4056 8.40712H50.6649L51.9118 11.8516H53.2081L49.2081 0.740451H47.9735L43.9612 11.8516ZM50.2698 7.29601H46.8007L48.5291 2.49354L50.2698 7.29601ZM54.5951 11.8516H55.8173V6.70341H57.8173L60.5951 11.8516H62.0395L59.0642 6.53057C59.5457 6.34539 59.9901 6.06144 60.4099 5.74045C61.0271 5.28366 61.6938 4.77749 61.6938 4.0244V3.41946C61.6938 2.66638 61.0271 2.1602 60.4099 1.70341C59.7309 1.19724 58.9778 0.740451 58.1259 0.740451H54.5951V11.8516ZM55.8173 1.85156H58.1259C58.6691 1.85156 59.163 2.11082 59.6197 2.41946C60.0148 2.67872 60.4716 2.97502 60.4716 3.41946V4.0244C60.4716 4.46885 60.0148 4.76514 59.6197 5.0244C59.163 5.33304 58.6691 5.5923 58.1259 5.5923H55.8173V1.85156ZM63.3238 11.8516H67.188C68.4349 11.8516 69.4473 10.9874 70.3485 10.1108C71.2374 9.23428 72.1263 8.25897 72.1263 7.01206V5.57996C72.1263 4.33304 71.2374 3.35773 70.3485 2.48119C69.4473 1.60465 68.4349 0.740451 67.188 0.740451H63.3238V11.8516ZM64.5461 10.7405V1.85156H67.188C68.1386 1.85156 68.9041 2.51823 69.5707 3.19724C70.2498 3.87625 70.9041 4.62934 70.9041 5.57996V7.01206C70.9041 7.96267 70.2498 8.71576 69.5707 9.39477C68.9041 10.0738 68.1386 10.7405 67.188 10.7405H64.5461Z" fill="#6262F4"/>
</svg>
