<?xml version="1.0" encoding="utf-8"?>
<!-- Generator: Adobe Illustrator 23.0.1, SVG Export Plug-In . SVG Version: 6.00 Build 0)  -->
<svg version="1.1" id="Layer_1" xmlns="http://www.w3.org/2000/svg" xmlns:xlink="http://www.w3.org/1999/xlink" x="0px" y="0px"
	 viewBox="0 0 181 181" style="enable-background:new 0 0 181 181;" xml:space="preserve">
<style type="text/css">
	.st0{fill:#5B5A7C;}
</style>
<path class="st0" d="M18,103h2.5v-9.4h4.7c1.8,0,3.3-1,4.6-2.1c1.3-1,2.6-2.1,2.6-3.8v-1.3c0-1.6-1.4-2.7-2.6-3.8
	c-1.4-1.1-2.9-2.1-4.6-2.1H18V103z M20.5,82.8h4.7c1.1,0,2.1,0.6,3,1.3c0.8,0.6,1.7,1.3,1.7,2.3v1.3c0,1-0.9,1.7-1.7,2.3
	c-0.9,0.7-1.9,1.3-3,1.3h-4.7V82.8z"/>
<path class="st0" d="M36.2,103h2.5V80.5h-2.5V103z"/>
<path class="st0" d="M44,103h2.5V84.8l12,18.2h2.5V80.5h-2.5v18.2l-12-18.2H44V103z"/>
<path class="st0" d="M65.8,103h7.7c1.7,0,3.1-1.2,4.3-2.3c1.2-1.2,2.4-2.5,2.4-4.2v-1.6c0-1.7-1.2-3-2.4-4.2c-0.6-0.6-1.3-1.2-2-1.7
	c0.4-0.2,0.9-0.5,1.3-0.8c0.9-0.6,2-1.3,2-2.3v-0.9c0-1.3-1-2.2-2-2.9c-1.1-0.9-2.2-1.7-3.6-1.7h-7.7V103z M68.3,82.8h5.2
	c0.8,0,1.4,0.4,2,0.8c0.5,0.4,1.1,0.8,1.1,1.5V86c0,0.7-0.6,1.1-1.1,1.5c-0.6,0.4-1.3,0.8-2,0.8h-5.2V82.8z M68.3,90.7h5.2
	c1.1,0,2,0.8,2.7,1.5c0.8,0.8,1.5,1.6,1.5,2.7v1.6c0,1.1-0.8,1.9-1.5,2.7c-0.8,0.8-1.6,1.5-2.7,1.5h-5.2V90.7z"/>
<path class="st0" d="M94.8,82.5c1.9,0,3.4,1.4,4.7,2.8c1.4,1.4,2.7,3,2.7,5v2.9c0,2-1.3,3.6-2.7,5c-1.3,1.4-2.8,2.8-4.7,2.8h-1.7
	c-1.9,0-3.4-1.4-4.7-2.8c-1.3-1.4-2.7-3-2.7-5v-2.9c0-2,1.3-3.6,2.7-5c1.3-1.4,2.8-2.8,4.7-2.8H94.8z M94.8,80.3h-1.7
	c-2.5,0-4.6,1.8-6.3,3.6c-1.8,1.8-3.6,3.9-3.6,6.4v2.9c0,2.6,1.8,4.6,3.6,6.4c1.8,1.8,3.8,3.6,6.3,3.6h1.7c2.5,0,4.5-1.8,6.3-3.6
	c1.8-1.8,3.5-3.9,3.5-6.4v-2.9c0-2.6-1.8-4.6-3.5-6.4C99.4,82.1,97.4,80.3,94.8,80.3z"/>
<path class="st0" d="M106.6,103h2.4l2.5-7h8.6l2.5,7h2.6l-8.1-22.5h-2.5L106.6,103z M119.4,93.8h-7l3.5-9.7L119.4,93.8z"/>
<path class="st0" d="M128.2,103h2.5V92.6h4l5.6,10.4h2.9l-6-10.8c1-0.4,1.9-0.9,2.7-1.6c1.3-0.9,2.6-1.9,2.6-3.5v-1.2
	c0-1.5-1.4-2.6-2.6-3.5c-1.4-1-2.9-1.9-4.6-1.9h-7.1V103z M130.6,82.8h4.7c1.1,0,2.1,0.5,3,1.2c0.8,0.5,1.7,1.1,1.7,2v1.2
	c0,0.9-0.9,1.5-1.7,2c-0.9,0.6-1.9,1.1-3,1.1h-4.7V82.8z"/>
<path class="st0" d="M145.8,103h7.8c2.5,0,4.6-1.8,6.4-3.5c1.8-1.8,3.6-3.8,3.6-6.3v-2.9c0-2.5-1.8-4.5-3.6-6.3
	c-1.8-1.8-3.9-3.5-6.4-3.5h-7.8V103z M148.3,100.8v-18h5.4c1.9,0,3.5,1.3,4.8,2.7c1.4,1.4,2.7,2.9,2.7,4.8v2.9
	c0,1.9-1.3,3.5-2.7,4.8c-1.4,1.4-2.9,2.7-4.8,2.7H148.3z"/>
</svg>
