<svg width="60" height="12" viewBox="0 0 60 12" fill="none" xmlns="http://www.w3.org/2000/svg">
<path d="M0.57764 1.85156H3.89863V11.8516H5.12085V1.85156H8.42949V0.740451H0.57764V1.85156ZM8.64622 0.740451L12.5228 11.8516H13.7573L15.2141 7.66638L16.6709 11.8516H17.9055L21.782 0.740451H20.5721L17.3376 10.0244L15.8684 5.81453L17.6339 0.740451H16.424L15.2512 4.07378L14.0907 0.740451H12.7944L14.6092 5.92564L13.1771 10.0244L9.94251 0.740451H8.64622ZM23.3351 11.8516H24.5573V0.740451H23.3351V11.8516ZM25.9924 1.85156H29.3134V11.8516H30.5356V1.85156H33.8442V0.740451H25.9924V1.85156ZM34.8056 1.85156H38.1265V11.8516H39.3488V1.85156H42.6574V0.740451H34.8056V1.85156ZM43.9112 11.8516H50.1334V10.7405H45.1334V6.07378H49.5285V4.96267H45.1334V1.85156H50.1334V0.740451H43.9112V11.8516ZM51.9527 11.8516H53.175V6.70341H55.175L57.9527 11.8516H59.3972L56.4219 6.53057C56.9034 6.34539 57.3478 6.06144 57.7676 5.74045C58.3848 5.28366 59.0515 4.77749 59.0515 4.0244V3.41946C59.0515 2.66638 58.3848 2.1602 57.7676 1.70341C57.0885 1.19724 56.3355 0.740451 55.4836 0.740451H51.9527V11.8516ZM53.175 1.85156H55.4836C56.0268 1.85156 56.5206 2.11082 56.9774 2.41946C57.3725 2.67872 57.8293 2.97502 57.8293 3.41946V4.0244C57.8293 4.46885 57.3725 4.76514 56.9774 5.0244C56.5206 5.33304 56.0268 5.5923 55.4836 5.5923H53.175V1.85156Z" fill="#6262F4"/>
</svg>
