<svg width="120" height="120" viewBox="0 0 243 243" fill="none" xmlns="http://www.w3.org/2000/svg" id='sticker-twitter'>
<circle cx="121.5" cy="121.5" r="109" stroke="#6262F4" stroke-opacity="0.5" stroke-width="25" stroke-dasharray="1 40"/>
<path d="M61.9198 112.75H68.6448V133H71.1198V112.75H77.8198V110.5H61.9198V112.75ZM78.2587 110.5L86.1087 133H88.6087L91.5587 124.525L94.5087 133H97.0087L104.859 110.5H102.409L95.8587 129.3L92.8837 120.775L96.4587 110.5H94.0087L91.6337 117.25L89.2837 110.5H86.6587L90.3337 121L87.4337 129.3L80.8837 110.5H78.2587ZM108.004 133H110.479V110.5H108.004V133ZM113.385 112.75H120.11V133H122.585V112.75H129.285V110.5H113.385V112.75ZM131.231 112.75H137.956V133H140.431V112.75H147.131V110.5H131.231V112.75ZM149.67 133H162.27V130.75H152.145V121.3H161.045V119.05H152.145V112.75H162.27V110.5H149.67V133ZM165.954 133H168.429V122.575H172.479L178.104 133H181.029L175.004 122.225C175.979 121.85 176.879 121.275 177.729 120.625C178.979 119.7 180.329 118.675 180.329 117.15V115.925C180.329 114.4 178.979 113.375 177.729 112.45C176.354 111.425 174.829 110.5 173.104 110.5H165.954V133ZM168.429 112.75H173.104C174.204 112.75 175.204 113.275 176.129 113.9C176.929 114.425 177.854 115.025 177.854 115.925V117.15C177.854 118.05 176.929 118.65 176.129 119.175C175.204 119.8 174.204 120.325 173.104 120.325H168.429V112.75Z" fill="#6262F4"/>
</svg>
