<svg width="350" height="350" viewBox="0 0 350 350" fill="none" xmlns="http://www.w3.org/2000/svg">
<circle cx="175" cy="175" r="145" stroke="#5B5A7C" stroke-width="60" stroke-dasharray="3 20"/>
<path d="M123.04 181.775C123.515 182.7 124.415 183.45 125.265 184.15C126.59 185.25 128.09 186.25 129.815 186.25H130.84C132.59 186.25 134.14 185.325 135.49 184.225C136.74 183.2 137.965 182 137.965 180.4V179.15C137.965 176.85 136.115 175.075 133.915 174.25L128.39 172.775C127.14 172.3 125.965 171.475 125.965 170.2V168.9C125.965 168 126.615 167.275 127.315 166.675C128.04 166.025 128.915 165.5 129.89 165.5H130.765C131.74 165.5 132.565 166.1 133.29 166.725C133.715 167.1 134.165 167.5 134.44 167.975L136.74 167.375C136.29 166.6 135.565 165.925 134.865 165.3C133.69 164.25 132.34 163.25 130.765 163.25H129.89C128.29 163.25 126.915 164.175 125.715 165.225C124.59 166.225 123.49 167.4 123.49 168.9V170.2C123.49 172.475 125.34 174.2 127.54 175.025L133.065 176.5C134.315 176.975 135.49 177.85 135.49 179.15V180.4C135.49 181.4 134.665 182.125 133.865 182.75C132.965 183.45 131.965 184 130.84 184H129.815C128.715 184 127.715 183.375 126.84 182.7C126.115 182.125 125.315 181.5 125.19 180.65L123.04 181.775ZM152.553 165.5C154.478 165.5 155.953 166.9 157.278 168.3C158.628 169.725 159.953 171.325 159.953 173.275V176.225C159.953 178.175 158.628 179.775 157.278 181.2C155.953 182.6 154.478 184 152.553 184H150.903C148.978 184 147.503 182.6 146.178 181.2C144.828 179.775 143.503 178.175 143.503 176.225V173.275C143.503 171.325 144.828 169.725 146.178 168.3C147.503 166.9 148.978 165.5 150.903 165.5H152.553ZM152.553 163.25H150.903C148.378 163.25 146.353 165.05 144.578 166.85C142.778 168.675 141.028 170.725 141.028 173.275V176.225C141.028 178.775 142.778 180.825 144.578 182.65C146.353 184.45 148.378 186.25 150.903 186.25H152.553C155.078 186.25 157.103 184.45 158.878 182.65C160.678 180.825 162.428 178.775 162.428 176.225V173.275C162.428 170.725 160.678 168.675 158.878 166.85C157.103 165.05 155.078 163.25 152.553 163.25ZM166.44 186H168.915V175.575H172.965L178.59 186H181.515L175.49 175.225C176.465 174.85 177.365 174.275 178.215 173.625C179.465 172.7 180.815 171.675 180.815 170.15V168.925C180.815 167.4 179.465 166.375 178.215 165.45C176.84 164.425 175.315 163.5 173.59 163.5H166.44V186ZM168.915 165.75H173.59C174.69 165.75 175.69 166.275 176.615 166.9C177.415 167.425 178.34 168.025 178.34 168.925V170.15C178.34 171.05 177.415 171.65 176.615 172.175C175.69 172.8 174.69 173.325 173.59 173.325H168.915V165.75ZM184.116 186H186.591V175.575H190.641L196.266 186H199.191L193.166 175.225C194.141 174.85 195.041 174.275 195.891 173.625C197.141 172.7 198.491 171.675 198.491 170.15V168.925C198.491 167.4 197.141 166.375 195.891 165.45C194.516 164.425 192.991 163.5 191.266 163.5H184.116V186ZM186.591 165.75H191.266C192.366 165.75 193.366 166.275 194.291 166.9C195.091 167.425 196.016 168.025 196.016 168.925V170.15C196.016 171.05 195.091 171.65 194.291 172.175C193.366 172.8 192.366 173.325 191.266 173.325H186.591V165.75ZM199.541 163.5L207.216 176.125V186H209.691V176.125L217.366 163.5H214.591L208.516 173.5L202.416 163.5H199.541ZM221.38 179.4H223.88V163.5H221.38V179.4ZM222.63 182.775C222.23 182.775 221.905 183.05 221.605 183.35C221.305 183.65 221.03 184 221.03 184.4C221.03 184.8 221.305 185.125 221.605 185.425C221.905 185.725 222.23 186 222.63 186C223.03 186 223.355 185.725 223.655 185.425C223.955 185.125 224.23 184.8 224.23 184.4C224.23 184 223.955 183.65 223.655 183.35C223.355 183.05 223.03 182.775 222.63 182.775Z" fill="#5B5A7C"/>
</svg>
