<svg width="120" height="120" viewBox="0 0 243 243" fill="none" xmlns="http://www.w3.org/2000/svg">
<circle cx="121.5" cy="121.5" r="119" stroke="#6262F4" stroke-opacity="0.5" stroke-width="5" stroke-dasharray="3 10"/>
<path d="M49.0232 133H51.4982V123.55H56.1732C57.9232 123.55 59.4482 122.55 60.7982 121.45C62.0482 120.425 63.3982 119.3 63.3982 117.7V116.35C63.3982 114.75 62.0482 113.625 60.7982 112.6C59.4482 111.5 57.9232 110.5 56.1732 110.5H49.0232V133ZM51.4982 112.75H56.1732C57.2982 112.75 58.2982 113.375 59.1982 114.05C60.0232 114.675 60.9232 115.35 60.9232 116.35V117.7C60.9232 118.7 60.0232 119.375 59.1982 120C58.2982 120.675 57.2982 121.3 56.1732 121.3H51.4982V112.75ZM67.2199 133H69.6949V110.5H67.2199V133ZM74.951 133H77.426V114.825L89.426 133H91.926V110.5H89.451V128.675L77.451 110.5H74.951V133ZM96.826 133H104.476C106.176 133 107.551 131.85 108.776 130.675C109.976 129.5 111.201 128.175 111.201 126.5V124.9C111.201 123.225 109.976 121.925 108.776 120.75C108.151 120.15 107.476 119.55 106.751 119.1C107.201 118.875 107.626 118.625 108.051 118.35C108.976 117.75 110.076 117.025 110.076 116.025V115.125C110.076 113.875 109.026 112.975 108.051 112.175C107.001 111.3 105.826 110.5 104.476 110.5H96.826V133ZM99.301 112.75H104.476C105.226 112.75 105.876 113.15 106.476 113.6C107.001 114 107.601 114.45 107.601 115.125V116.025C107.601 116.7 107.001 117.15 106.476 117.55C105.876 118 105.226 118.4 104.476 118.4H99.301V112.75ZM99.301 120.65H104.476C105.551 120.65 106.426 121.4 107.201 122.175C107.976 122.95 108.726 123.825 108.726 124.9V126.5C108.726 127.575 107.976 128.45 107.201 129.225C106.426 130 105.551 130.75 104.476 130.75H99.301V120.65ZM125.835 112.5C127.76 112.5 129.235 113.9 130.56 115.3C131.91 116.725 133.235 118.325 133.235 120.275V123.225C133.235 125.175 131.91 126.775 130.56 128.2C129.235 129.6 127.76 131 125.835 131H124.185C122.26 131 120.785 129.6 119.46 128.2C118.11 126.775 116.785 125.175 116.785 123.225V120.275C116.785 118.325 118.11 116.725 119.46 115.3C120.785 113.9 122.26 112.5 124.185 112.5H125.835ZM125.835 110.25H124.185C121.66 110.25 119.635 112.05 117.86 113.85C116.06 115.675 114.31 117.725 114.31 120.275V123.225C114.31 125.775 116.06 127.825 117.86 129.65C119.635 131.45 121.66 133.25 124.185 133.25H125.835C128.36 133.25 130.385 131.45 132.16 129.65C133.96 127.825 135.71 125.775 135.71 123.225V120.275C135.71 117.725 133.96 115.675 132.16 113.85C130.385 112.05 128.36 110.25 125.835 110.25ZM137.621 133H140.046L142.571 126.025H151.196L153.721 133H156.346L148.246 110.5H145.746L137.621 133ZM150.396 123.775H143.371L146.871 114.05L150.396 123.775ZM159.155 133H161.63V122.575H165.68L171.305 133H174.23L168.205 122.225C169.18 121.85 170.08 121.275 170.93 120.625C172.18 119.7 173.53 118.675 173.53 117.15V115.925C173.53 114.4 172.18 113.375 170.93 112.45C169.555 111.425 168.03 110.5 166.305 110.5H159.155V133ZM161.63 112.75H166.305C167.405 112.75 168.405 113.275 169.33 113.9C170.13 114.425 171.055 115.025 171.055 115.925V117.15C171.055 118.05 170.13 118.65 169.33 119.175C168.405 119.8 167.405 120.325 166.305 120.325H161.63V112.75ZM176.831 133H184.656C187.181 133 189.231 131.25 191.056 129.475C192.856 127.7 194.656 125.725 194.656 123.2V120.3C194.656 117.775 192.856 115.8 191.056 114.025C189.231 112.25 187.181 110.5 184.656 110.5H176.831V133ZM179.306 130.75V112.75H184.656C186.581 112.75 188.131 114.1 189.481 115.475C190.856 116.85 192.181 118.375 192.181 120.3V123.2C192.181 125.125 190.856 126.65 189.481 128.025C188.131 129.4 186.581 130.75 184.656 130.75H179.306Z" fill="#6262F4"/>
</svg>
