<svg width="181" height="181" viewBox="0 0 181 181" fill="none" xmlns="http://www.w3.org/2000/svg">
<path d="M65.9 78.9H73C74.7 78.9 76.2 79.8 77.6 80.8C78.8 81.7 80.2 82.7 80.2 84.3V85.5C80.2 87 78.9 88 77.6 89C76.7 89.7 75.9 90.2 74.9 90.6L80.9 101.4H78L72.4 91H68.4V101.4H65.9V78.9ZM68.4 88.7H73.1C74.2 88.7 75.2 88.2 76.1 87.6C76.9 87.1 77.8 86.5 77.8 85.6V84.4C77.8 83.5 76.9 82.9 76.1 82.4C75.2 81.8 74.2 81.3 73.1 81.3H68.4V88.7Z" fill="#5B5A7C"/>
<path d="M85 96.1C85.1 96.9 85.9 97.6 86.6 98.1C87.5 98.8 88.5 99.4 89.6 99.4H90.6C91.7 99.4 92.7 98.8 93.6 98.2C94.4 97.6 95.2 96.9 95.2 95.9V94.7C95.2 93.4 94 92.5 92.8 92.1L87.3 90.6C85.1 89.8 83.3 88.1 83.3 85.8V84.5C83.3 83 84.4 81.8 85.5 80.8C86.7 79.8 88.1 78.8 89.7 78.8H90.6C92.2 78.8 93.5 79.8 94.7 80.8C95.4 81.4 96.1 82.1 96.6 82.9L94.3 83.5C94 83 93.6 82.6 93.2 82.3C92.5 81.7 91.7 81.1 90.7 81.1H89.8C88.8 81.1 88 81.6 87.2 82.3C86.5 82.9 85.9 83.6 85.9 84.5V85.8C85.9 87.1 87.1 87.9 88.3 88.4L93.8 89.9C96 90.7 97.8 92.5 97.8 94.8V96C97.8 97.6 96.6 98.8 95.3 99.8C94 100.9 92.4 101.8 90.7 101.8H89.7C88 101.8 86.5 100.8 85.2 99.7C84.3 99 83.5 98.3 83 97.3L85 96.1Z" fill="#5B5A7C"/>
<path d="M103.2 96.1C103.3 96.9 104.1 97.6 104.8 98.1C105.7 98.8 106.7 99.4 107.8 99.4H108.8C109.9 99.4 110.9 98.8 111.8 98.2C112.6 97.6 113.4 96.9 113.4 95.9V94.7C113.4 93.4 112.2 92.5 111 92.1L105.5 90.6C103.3 89.8 101.5 88.1 101.5 85.8V84.5C101.5 83 102.6 81.8 103.7 80.8C104.9 79.8 106.3 78.8 107.9 78.8H108.8C110.4 78.8 111.7 79.8 112.9 80.8C113.6 81.4 114.3 82.1 114.8 82.9L112.5 83.5C112.2 83 111.8 82.6 111.4 82.3C110.7 81.7 109.9 81.1 108.9 81.1H108C107 81.1 106.2 81.6 105.4 82.3C104.7 82.9 104.1 83.6 104.1 84.5V85.8C104.1 87.1 105.3 87.9 106.5 88.4L112 89.9C114.2 90.7 116 92.5 116 94.8V96C116 97.6 114.8 98.8 113.5 99.8C112.2 100.9 110.6 101.8 108.9 101.8H107.9C106.2 101.8 104.7 100.8 103.4 99.7C102.6 99 101.7 98.3 101.2 97.3L103.2 96.1Z" fill="#5B5A7C"/>
</svg>
