<svg width="350" height="350" viewBox="0 0 350 350" fill="none" xmlns="http://www.w3.org/2000/svg">
<style type="text/css">
	.st0{fill-rule:evenodd;clip-rule:evenodd;fill:#5B5A7C;}
</style>
<path class="st0" d="M350,176.5l-60-0.5c0-0.3,0-0.7,0-1s0-0.7,0-1l60-0.5c0,0.5,0,1,0,1.5S350,176,350,176.5z M348.7,153.6
	l-59.6,7.3c-0.1-0.7-0.2-1.3-0.3-1.9l59.4-8.3C348.5,151.6,348.6,152.6,348.7,153.6z M344.5,131.1l-58.1,15
	c-0.2-0.6-0.3-1.3-0.5-1.9l57.8-16C344,129.2,344.2,130.2,344.5,131.1z M337.3,109.4l-55.6,22.5c-0.2-0.6-0.5-1.2-0.7-1.8l55.2-23.5
	C336.5,107.6,336.9,108.5,337.3,109.4z M327.3,88.8l-52.2,29.6c-0.3-0.6-0.6-1.1-1-1.7l51.7-30.5C326.3,87.1,326.8,87.9,327.3,88.8z
	 M314.8,69.7l-47.9,36.2c-0.4-0.5-0.8-1-1.2-1.6l47.3-37C313.5,68.1,314.1,68.9,314.8,69.7z M299.8,52.3L257,94.4
	c-0.5-0.5-0.9-0.9-1.4-1.4l42.1-42.8C298.4,50.9,299.1,51.6,299.8,52.3z M282.7,37.1l-37,47.3c-0.5-0.4-1-0.8-1.6-1.2l36.2-47.9
	C281.1,35.8,281.9,36.5,282.7,37.1z M263.8,24.2l-30.5,51.7c-0.6-0.3-1.1-0.7-1.7-1l29.6-52.2C262.1,23.2,262.9,23.7,263.8,24.2z
	 M243.4,13.9l-23.5,55.2c-0.6-0.3-1.2-0.5-1.8-0.7l22.5-55.6C241.5,13.1,242.4,13.5,243.4,13.9z M221.8,6.3l-16,57.8
	c-0.6-0.2-1.3-0.3-1.9-0.5l15-58.1C219.8,5.8,220.8,6,221.8,6.3z M199.3,1.7l-8.3,59.4c-0.6-0.1-1.3-0.2-1.9-0.3l7.3-59.6
	C197.4,1.4,198.4,1.5,199.3,1.7z M176.5,0L176,60c-0.3,0-0.7,0-1,0s-0.7,0-1,0l-0.5-60c0.5,0,1,0,1.5,0S176,0,176.5,0z M153.6,1.3
	l7.3,59.6c-0.7,0.1-1.3,0.2-1.9,0.3l-8.3-59.4C151.6,1.5,152.6,1.4,153.6,1.3z M131.1,5.5l15,58.1c-0.6,0.2-1.3,0.3-1.9,0.5
	l-16-57.8C129.2,6,130.2,5.8,131.1,5.5z M109.4,12.7l22.5,55.6c-0.6,0.2-1.2,0.5-1.8,0.7l-23.5-55.2
	C107.6,13.5,108.5,13.1,109.4,12.7z M88.8,22.7l29.6,52.2c-0.6,0.3-1.1,0.7-1.7,1L86.2,24.2C87.1,23.7,87.9,23.2,88.8,22.7z
	 M69.7,35.2l36.2,47.9c-0.5,0.4-1,0.8-1.6,1.2l-37-47.3C68.1,36.5,68.9,35.8,69.7,35.2z M52.3,50.2L94.4,93
	c-0.5,0.5-0.9,0.9-1.4,1.4L50.2,52.3C50.9,51.6,51.6,50.9,52.3,50.2z M37.1,67.3l47.3,37c-0.4,0.5-0.8,1-1.2,1.6L35.2,69.7
	C35.8,68.9,36.5,68.1,37.1,67.3z M24.2,86.2l51.7,30.5c-0.3,0.6-0.7,1.1-1,1.7L22.7,88.8C23.2,87.9,23.7,87.1,24.2,86.2z
	 M13.9,106.6l55.2,23.5c-0.3,0.6-0.5,1.2-0.7,1.8l-55.6-22.5C13.1,108.5,13.5,107.6,13.9,106.6z M6.3,128.2l57.8,16
	c-0.2,0.6-0.3,1.3-0.5,1.9l-58.1-15C5.8,130.2,6,129.2,6.3,128.2z M1.7,150.7l59.4,8.3c-0.1,0.6-0.2,1.3-0.3,1.9l-59.6-7.3
	C1.4,152.6,1.5,151.6,1.7,150.7z M0,173.5c0,0.5,0,1,0,1.5s0,1,0,1.5l60-0.5c0-0.3,0-0.7,0-1s0-0.7,0-1L0,173.5z M1.3,196.4
	l59.6-7.3c0.1,0.7,0.2,1.3,0.3,1.9l-59.4,8.3C1.5,198.4,1.4,197.4,1.3,196.4z M5.5,218.9l58.1-15c0.2,0.6,0.3,1.3,0.5,1.9l-57.8,16
	C6,220.8,5.8,219.8,5.5,218.9z M12.7,240.6l55.6-22.5c0.2,0.6,0.5,1.2,0.7,1.8l-55.2,23.5C13.5,242.4,13.1,241.5,12.7,240.6z
	 M22.7,261.2l52.2-29.6c0.3,0.6,0.7,1.1,1,1.7l-51.7,30.5C23.7,262.9,23.2,262.1,22.7,261.2z M35.2,280.3l47.9-36.2
	c0.4,0.5,0.8,1,1.2,1.6l-47.3,37C36.5,281.9,35.8,281.1,35.2,280.3z M50.2,297.7L93,255.6c0.5,0.5,0.9,0.9,1.4,1.4l-42.1,42.8
	C51.6,299.1,50.9,298.4,50.2,297.7z M67.3,312.9l37-47.3c0.5,0.4,1,0.8,1.6,1.2l-36.2,47.9C68.9,314.1,68.1,313.5,67.3,312.9z
	 M86.2,325.8l30.5-51.7c0.6,0.3,1.1,0.7,1.7,1l-29.6,52.2C87.9,326.8,87.1,326.3,86.2,325.8z M106.6,336.1l23.5-55.2
	c0.6,0.3,1.2,0.5,1.8,0.7l-22.5,55.6C108.5,336.9,107.6,336.5,106.6,336.1z M128.2,343.7l16-57.8c0.6,0.2,1.3,0.3,1.9,0.5l-15,58.1
	C130.2,344.2,129.2,344,128.2,343.7z M150.7,348.3l8.3-59.4c0.6,0.1,1.3,0.2,1.9,0.3l-7.3,59.6C152.6,348.6,151.6,348.5,150.7,348.3
	z M173.5,350l0.5-60c0.3,0,0.7,0,1,0s0.7,0,1,0l0.5,60c-0.5,0-1,0-1.5,0S174,350,173.5,350z M196.4,348.7l-7.3-59.6
	c0.7-0.1,1.3-0.2,1.9-0.3l8.3,59.4C198.4,348.5,197.4,348.6,196.4,348.7z M218.9,344.5l-15-58.1c0.6-0.2,1.3-0.3,1.9-0.5l16,57.8
	C220.8,344,219.8,344.2,218.9,344.5z M240.6,337.3l-22.5-55.6c0.6-0.2,1.2-0.5,1.8-0.7l23.5,55.2
	C242.4,336.5,241.5,336.9,240.6,337.3z M261.2,327.3l-29.6-52.2c0.6-0.3,1.1-0.6,1.7-1l30.5,51.7
	C262.9,326.3,262.1,326.8,261.2,327.3z M280.3,314.8l-36.2-47.9c0.5-0.4,1-0.8,1.6-1.2l37,47.3C281.9,313.5,281.1,314.1,280.3,314.8
	z M297.7,299.8c0.7-0.7,1.4-1.4,2.1-2.1L257,255.6c-0.5,0.5-0.9,0.9-1.4,1.4L297.7,299.8z M312.9,282.7l-47.3-37
	c0.4-0.5,0.8-1,1.2-1.6l47.9,36.2C314.1,281.1,313.5,281.9,312.9,282.7z M325.8,263.8l-51.7-30.5c0.3-0.6,0.7-1.1,1-1.7l52.2,29.6
	C326.8,262.1,326.3,262.9,325.8,263.8z M336.1,243.4l-55.2-23.5c0.3-0.6,0.5-1.2,0.7-1.8l55.6,22.5
	C336.9,241.5,336.5,242.4,336.1,243.4z M343.7,221.8l-57.8-16c0.2-0.6,0.3-1.3,0.5-1.9l58.1,15C344.2,219.8,344,220.8,343.7,221.8z
	 M348.3,199.3l-59.4-8.3c0.1-0.6,0.2-1.3,0.3-1.9l59.6,7.3C348.6,197.4,348.5,198.4,348.3,199.3z"/>
</svg>
