<?xml version="1.0" encoding="utf-8"?>
<!-- Generator: Adobe Illustrator 23.0.1, SVG Export Plug-In . SVG Version: 6.00 Build 0)  -->
<svg version="1.1" id="Layer_1" xmlns="http://www.w3.org/2000/svg" xmlns:xlink="http://www.w3.org/1999/xlink" x="0px" y="0px"
	 viewBox="0 0 181 181" style="enable-background:new 0 0 181 181;" xml:space="preserve">
<style type="text/css">
	.st0{fill-rule:evenodd;clip-rule:evenodd;fill:#5B5A7C;}
</style>
<path class="st0" d="M178.8,110.4L93.9,91.3c0,0,0-0.1,0-0.1c0,0,0-0.1,0-0.1l85.5,16.3c-0.1,0.5-0.2,1-0.3,1.5
	C179,109.4,178.9,109.9,178.8,110.4z M180.9,86.9L94,90.3c0,0,0-0.1,0-0.1l86.8-6.4C180.9,84.8,180.9,85.9,180.9,86.9z M176.9,63.6
	L93.9,89.5c0,0,0-0.1,0-0.1L176,60.7C176.3,61.7,176.6,62.6,176.9,63.6z M167,42.2L93.5,88.6c0,0,0-0.1-0.1-0.1l71.9-48.9
	C165.9,40.4,166.5,41.3,167,42.2z M151.9,24L92.8,87.9c0,0,0,0,0,0c0,0,0,0-0.1-0.1L149.6,22C150.4,22.6,151.2,23.3,151.9,24z
	 M132.6,10.4l-40.4,77c0,0-0.1,0-0.1,0L129.9,9C130.8,9.4,131.7,9.9,132.6,10.4z M110.4,2.2L91.3,87.1c0,0-0.1,0-0.1,0
	c0,0-0.1,0-0.1,0l16.3-85.5c0.5,0.1,1,0.2,1.5,0.3C109.4,2,109.9,2.1,110.4,2.2z M86.9,0L90.3,87c0,0,0,0-0.1,0c0,0,0,0,0,0
	L83.8,0.2C84.8,0.1,85.9,0.1,86.9,0z M63.6,4.1l25.9,83.1c0,0-0.1,0-0.1,0L60.7,5C61.7,4.7,62.6,4.4,63.6,4.1z M42.2,14l46.5,73.6
	c0,0-0.1,0-0.1,0.1L39.6,15.7C40.4,15.1,41.3,14.5,42.2,14z M24,29.1l63.9,59.1c0,0-0.1,0.1-0.1,0.1L22,31.4
	C22.6,30.6,23.3,29.8,24,29.1z M10.4,48.4l77,40.4c0,0,0,0.1,0,0.1L9,51.1C9.4,50.2,9.9,49.3,10.4,48.4z M2.2,70.6l84.9,19.1
	c0,0,0,0.1,0,0.1c0,0,0,0.1,0,0.1L1.6,73.6c0.1-0.5,0.2-1,0.3-1.5C2,71.6,2.1,71.1,2.2,70.6z M0,94.1L87,90.7c0,0,0,0.1,0,0.1
	L0.2,97.2C0.1,96.2,0.1,95.1,0,94.1z M4.1,117.4l83.1-25.9c0,0,0,0.1,0,0.1L5,120.3C4.7,119.3,4.4,118.4,4.1,117.4z M14,138.8
	l73.6-46.5c0,0,0,0.1,0.1,0.1l-71.9,48.9C15.1,140.6,14.5,139.7,14,138.8z M29.1,157l59.1-63.9c0,0,0.1,0.1,0.1,0.1L31.4,159
	C30.6,158.4,29.8,157.7,29.1,157z M48.4,170.6l40.4-77c0,0,0.1,0,0.1,0L51.1,172C50.2,171.6,49.3,171.1,48.4,170.6z M70.6,178.8
	l19.1-84.9c0,0,0.1,0,0.1,0c0,0,0.1,0,0.1,0l-16.3,85.5c-0.5-0.1-1-0.2-1.5-0.3C71.6,179,71.1,178.9,70.6,178.8z M94.1,180.9
	L90.7,94c0,0,0.1,0,0.1,0l6.4,86.8C96.2,180.9,95.1,180.9,94.1,180.9z M117.4,176.9L91.5,93.9c0,0,0.1,0,0.1,0l28.7,82.1
	C119.3,176.3,118.4,176.6,117.4,176.9z M138.8,167L92.4,93.5c0,0,0.1,0,0.1-0.1l48.9,71.9C140.6,165.9,139.7,166.5,138.8,167z
	 M157,151.9L93.1,92.8c0,0,0.1-0.1,0.1-0.1l65.8,56.9C158.4,150.4,157.7,151.2,157,151.9z M170.6,132.6l-77-40.4c0,0,0-0.1,0-0.1
	l78.4,37.8C171.6,130.8,171.1,131.7,170.6,132.6z"/>
</svg>
