<svg width="350" height="350" viewBox="0 0 350 350" fill="none" xmlns="http://www.w3.org/2000/svg">
<path d="M102.402 186H104.877V176.55H109.552C111.302 176.55 112.827 175.55 114.177 174.45C115.427 173.425 116.777 172.3 116.777 170.7V169.35C116.777 167.75 115.427 166.625 114.177 165.6C112.827 164.5 111.302 163.5 109.552 163.5H102.402V186ZM104.877 165.75H109.552C110.677 165.75 111.677 166.375 112.577 167.05C113.402 167.675 114.302 168.35 114.302 169.35V170.7C114.302 171.7 113.402 172.375 112.577 173C111.677 173.675 110.677 174.3 109.552 174.3H104.877V165.75ZM120.248 186H122.723V175.575H126.773L132.398 186H135.323L129.298 175.225C130.273 174.85 131.173 174.275 132.023 173.625C133.273 172.7 134.623 171.675 134.623 170.15V168.925C134.623 167.4 133.273 166.375 132.023 165.45C130.648 164.425 129.123 163.5 127.398 163.5H120.248V186ZM122.723 165.75H127.398C128.498 165.75 129.498 166.275 130.423 166.9C131.223 167.425 132.148 168.025 132.148 168.925V170.15C132.148 171.05 131.223 171.65 130.423 172.175C129.498 172.8 128.498 173.325 127.398 173.325H122.723V165.75ZM148.549 165.5C150.474 165.5 151.949 166.9 153.274 168.3C154.624 169.725 155.949 171.325 155.949 173.275V176.225C155.949 178.175 154.624 179.775 153.274 181.2C151.949 182.6 150.474 184 148.549 184H146.899C144.974 184 143.499 182.6 142.174 181.2C140.824 179.775 139.499 178.175 139.499 176.225V173.275C139.499 171.325 140.824 169.725 142.174 168.3C143.499 166.9 144.974 165.5 146.899 165.5H148.549ZM148.549 163.25H146.899C144.374 163.25 142.349 165.05 140.574 166.85C138.774 168.675 137.024 170.725 137.024 173.275V176.225C137.024 178.775 138.774 180.825 140.574 182.65C142.349 184.45 144.374 186.25 146.899 186.25H148.549C151.074 186.25 153.099 184.45 154.874 182.65C156.674 180.825 158.424 178.775 158.424 176.225V173.275C158.424 170.725 156.674 168.675 154.874 166.85C153.099 165.05 151.074 163.25 148.549 163.25ZM172.599 163.5H170.124V180.2C170.124 181.175 169.449 181.95 168.749 182.625C168.049 183.3 167.249 184 166.274 184H165.424C164.449 184 163.649 183.3 162.949 182.625C162.649 182.325 162.374 182.025 162.124 181.7L160.499 183.2C160.774 183.5 161.074 183.8 161.374 184.075C162.524 185.175 163.824 186.25 165.424 186.25H166.274C167.874 186.25 169.174 185.175 170.324 184.075C171.449 183 172.599 181.75 172.599 180.2V163.5ZM177.304 186H189.904V183.75H179.779V174.3H188.679V172.05H179.779V165.75H189.904V163.5H177.304V186ZM212.963 179.75L211.013 178.5C210.513 179.475 209.713 180.375 208.938 181.2C207.613 182.6 206.138 184 204.213 184H202.563C200.638 184 199.163 182.6 197.838 181.2C196.488 179.775 195.163 178.175 195.163 176.225V173.275C195.163 171.325 196.488 169.725 197.838 168.3C199.163 166.9 200.638 165.5 202.563 165.5H204.213C206.138 165.5 207.613 166.9 208.938 168.3C209.713 169.125 210.513 170.025 211.013 171L212.963 169.75C212.313 168.7 211.413 167.75 210.538 166.85C208.763 165.05 206.738 163.25 204.213 163.25H202.563C200.038 163.25 198.013 165.05 196.238 166.85C194.438 168.675 192.688 170.725 192.688 173.275V176.225C192.688 178.775 194.438 180.825 196.238 182.65C198.013 184.45 200.038 186.25 202.563 186.25H204.213C206.738 186.25 208.763 184.45 210.538 182.65C211.413 181.75 212.313 180.8 212.963 179.75ZM214.871 165.75H221.596V186H224.071V165.75H230.771V163.5H214.871V165.75ZM232.61 181.775C233.085 182.7 233.985 183.45 234.835 184.15C236.16 185.25 237.66 186.25 239.385 186.25H240.41C242.16 186.25 243.71 185.325 245.06 184.225C246.31 183.2 247.535 182 247.535 180.4V179.15C247.535 176.85 245.685 175.075 243.485 174.25L237.96 172.775C236.71 172.3 235.535 171.475 235.535 170.2V168.9C235.535 168 236.185 167.275 236.885 166.675C237.61 166.025 238.485 165.5 239.46 165.5H240.335C241.31 165.5 242.135 166.1 242.86 166.725C243.285 167.1 243.735 167.5 244.01 167.975L246.31 167.375C245.86 166.6 245.135 165.925 244.435 165.3C243.26 164.25 241.91 163.25 240.335 163.25H239.46C237.86 163.25 236.485 164.175 235.285 165.225C234.16 166.225 233.06 167.4 233.06 168.9V170.2C233.06 172.475 234.91 174.2 237.11 175.025L242.635 176.5C243.885 176.975 245.06 177.85 245.06 179.15V180.4C245.06 181.4 244.235 182.125 243.435 182.75C242.535 183.45 241.535 184 240.41 184H239.385C238.285 184 237.285 183.375 236.41 182.7C235.685 182.125 234.885 181.5 234.76 180.65L232.61 181.775Z" fill="#5B5A7C"/>
</svg>
