<svg width="127" height="24" viewBox="0 0 127 24" fill="none" xmlns="http://www.w3.org/2000/svg">
<path d="M20.3226 16.75L18.3726 15.5C17.8726 16.475 17.0726 17.375 16.2976 18.2C14.9726 19.6 13.4976 21 11.5726 21H9.92256C7.99756 21 6.52256 19.6 5.19756 18.2C3.84756 16.775 2.52256 15.175 2.52256 13.225V10.275C2.52256 8.325 3.84756 6.725 5.19756 5.3C6.52256 3.9 7.99756 2.5 9.92256 2.5H11.5726C13.4976 2.5 14.9726 3.9 16.2976 5.3C17.0726 6.125 17.8726 7.025 18.3726 8L20.3226 6.75C19.6726 5.7 18.7726 4.75 17.8976 3.85C16.1226 2.05 14.0976 0.249999 11.5726 0.249999H9.92256C7.39756 0.249999 5.37256 2.05 3.59756 3.85C1.79756 5.675 0.0475587 7.725 0.0475587 10.275V13.225C0.0475587 15.775 1.79756 17.825 3.59756 19.65C5.37256 21.45 7.39756 23.25 9.92256 23.25H11.5726C14.0976 23.25 16.1226 21.45 17.8976 19.65C18.7726 18.75 19.6726 17.8 20.3226 16.75ZM24.5804 23H37.1804V20.75H27.0554V0.499999H24.5804V23ZM38.5692 23H40.9942L43.5192 16.025H52.1442L54.6692 23H57.2942L49.1942 0.499999H46.6942L38.5692 23ZM51.3442 13.775H44.3192L47.8192 4.05L51.3442 13.775ZM59.4028 18.775C59.8778 19.7 60.7778 20.45 61.6278 21.15C62.9528 22.25 64.4528 23.25 66.1778 23.25H67.2028C68.9528 23.25 70.5028 22.325 71.8528 21.225C73.1028 20.2 74.3278 19 74.3278 17.4V16.15C74.3278 13.85 72.4778 12.075 70.2778 11.25L64.7528 9.775C63.5028 9.3 62.3278 8.475 62.3278 7.2V5.9C62.3278 5 62.9778 4.275 63.6778 3.675C64.4028 3.025 65.2778 2.5 66.2528 2.5H67.1278C68.1028 2.5 68.9278 3.1 69.6528 3.725C70.0778 4.1 70.5278 4.5 70.8028 4.975L73.1028 4.375C72.6528 3.6 71.9278 2.925 71.2278 2.3C70.0528 1.25 68.7028 0.249999 67.1278 0.249999H66.2528C64.6528 0.249999 63.2778 1.175 62.0778 2.225C60.9528 3.225 59.8528 4.4 59.8528 5.9V7.2C59.8528 9.475 61.7028 11.2 63.9028 12.025L69.4278 13.5C70.6778 13.975 71.8528 14.85 71.8528 16.15V17.4C71.8528 18.4 71.0278 19.125 70.2278 19.75C69.3278 20.45 68.3278 21 67.2028 21H66.1778C65.0778 21 64.0778 20.375 63.2028 19.7C62.4778 19.125 61.6778 18.5 61.5528 17.65L59.4028 18.775ZM77.5913 18.775C78.0663 19.7 78.9663 20.45 79.8163 21.15C81.1413 22.25 82.6413 23.25 84.3663 23.25H85.3913C87.1413 23.25 88.6913 22.325 90.0413 21.225C91.2913 20.2 92.5163 19 92.5163 17.4V16.15C92.5163 13.85 90.6663 12.075 88.4663 11.25L82.9413 9.775C81.6913 9.3 80.5163 8.475 80.5163 7.2V5.9C80.5163 5 81.1663 4.275 81.8663 3.675C82.5913 3.025 83.4663 2.5 84.4413 2.5H85.3163C86.2913 2.5 87.1163 3.1 87.8413 3.725C88.2663 4.1 88.7163 4.5 88.9913 4.975L91.2913 4.375C90.8413 3.6 90.1163 2.925 89.4163 2.3C88.2413 1.25 86.8913 0.249999 85.3163 0.249999H84.4413C82.8413 0.249999 81.4663 1.175 80.2663 2.225C79.1413 3.225 78.0413 4.4 78.0413 5.9V7.2C78.0413 9.475 79.8913 11.2 82.0913 12.025L87.6163 13.5C88.8663 13.975 90.0413 14.85 90.0413 16.15V17.4C90.0413 18.4 89.2163 19.125 88.4163 19.75C87.5163 20.45 86.5163 21 85.3913 21H84.3663C83.2663 21 82.2663 20.375 81.3913 19.7C80.6663 19.125 79.8663 18.5 79.7413 17.65L77.5913 18.775ZM96.4798 23H109.08V20.75H98.9548V11.3H107.855V9.05H98.9548V2.75H109.08V0.499999H96.4798V23ZM112.064 18.775C112.539 19.7 113.439 20.45 114.289 21.15C115.614 22.25 117.114 23.25 118.839 23.25H119.864C121.614 23.25 123.164 22.325 124.514 21.225C125.764 20.2 126.989 19 126.989 17.4V16.15C126.989 13.85 125.139 12.075 122.939 11.25L117.414 9.775C116.164 9.3 114.989 8.475 114.989 7.2V5.9C114.989 5 115.639 4.275 116.339 3.675C117.064 3.025 117.939 2.5 118.914 2.5H119.789C120.764 2.5 121.589 3.1 122.314 3.725C122.739 4.1 123.189 4.5 123.464 4.975L125.764 4.375C125.314 3.6 124.589 2.925 123.889 2.3C122.714 1.25 121.364 0.249999 119.789 0.249999H118.914C117.314 0.249999 115.939 1.175 114.739 2.225C113.614 3.225 112.514 4.4 112.514 5.9V7.2C112.514 9.475 114.364 11.2 116.564 12.025L122.089 13.5C123.339 13.975 124.514 14.85 124.514 16.15V17.4C124.514 18.4 123.689 19.125 122.889 19.75C121.989 20.45 120.989 21 119.864 21H118.839C117.739 21 116.739 20.375 115.864 19.7C115.139 19.125 114.339 18.5 114.214 17.65L112.064 18.775Z" fill="#6262F4"/>
</svg>
