<svg width="200" height="200" viewBox="0 0 243 243" fill="none" xmlns="http://www.w3.org/2000/svg">
<circle cx="121.5" cy="121.5" r="121.5" fill="url(#paint0_linear)"/>
<circle cx="121.5" cy="121.5" r="121" stroke="#6262F4" stroke-dasharray="10 10"/>
<path d="M84.4449 115.464H89.0689V129H89.9329V115.464H94.5569V114.6H84.4449V115.464ZM94.7471 114.6L99.6431 129H101.419L103.083 124.104L104.747 129H106.523L111.419 114.6H110.475L105.627 128.888L103.547 122.76L106.315 114.6H105.371L103.067 121.368L100.779 114.6H99.8671L102.619 122.712L100.523 128.888L95.6591 114.6H94.7471ZM113.408 129H114.272V114.6H113.408V129ZM116.007 115.464H120.631V129H121.495V115.464H126.119V114.6H116.007V115.464ZM127.179 115.464H131.803V129H132.667V115.464H137.291V114.6H127.179V115.464ZM138.809 129H146.697V128.136H139.673V121.368H146.265V120.504H139.673V115.464H146.697V114.6H138.809V129ZM148.997 129H149.861V122.168H153.413L157.413 129H158.453L154.261 121.992C154.997 121.768 155.685 121.336 156.309 120.856C157.141 120.2 158.005 119.448 158.005 118.392C158.005 117.336 157.141 116.584 156.309 115.928C155.381 115.208 154.325 114.6 153.141 114.6H148.997V129ZM149.861 115.464H153.141C154.101 115.464 154.981 115.928 155.749 116.488C156.437 116.984 157.141 117.56 157.141 118.392C157.141 119.224 156.437 119.784 155.749 120.28C154.981 120.84 154.101 121.304 153.141 121.304H149.861V115.464Z" fill="#6262F4"/>
<defs>
<linearGradient id="paint0_linear" x1="121.5" y1="0" x2="121.5" y2="243" gradientUnits="userSpaceOnUse">
<stop stop-color="#6F9AAD" stop-opacity="0.5"/>
<stop offset="1" stop-color="#C4C4C4" stop-opacity="0"/>
</linearGradient>
</defs>
</svg>
