<svg width="350" height="350" viewBox="0 0 350 350" fill="none" xmlns="http://www.w3.org/2000/svg">

<path class="st0" d="M116,170h7.7c1.7,0,3.1-1.1,4.3-2.3c1.2-1.2,2.4-2.5,2.4-4.2v-1.6c0-1.7-1.2-3-2.4-4.1c-0.6-0.6-1.3-1.2-2-1.6
	c0.4-0.2,0.9-0.5,1.3-0.8c0.9-0.6,2-1.3,2-2.3v-0.9c0-1.3-1.1-2.1-2-2.9c-1.1-0.9-2.2-1.7-3.6-1.7H116V170z M118.4,149.8h5.2
	c0.8,0,1.4,0.4,2,0.9c0.5,0.4,1.1,0.8,1.1,1.5v0.9c0,0.7-0.6,1.1-1.1,1.5c-0.6,0.4-1.3,0.8-2,0.8h-5.2V149.8z M118.4,157.6h5.2
	c1.1,0,2,0.8,2.7,1.5c0.8,0.8,1.5,1.6,1.5,2.7v1.6c0,1.1-0.8,1.9-1.5,2.7c-0.8,0.8-1.6,1.5-2.7,1.5h-5.2V157.6z"/>
<path class="st0" d="M134.3,170h2.5v-10.4h4.1l5.6,10.4h2.9l-6-10.8c1-0.4,1.9-1,2.7-1.6c1.3-0.9,2.6-1.9,2.6-3.5v-1.2
	c0-1.5-1.4-2.6-2.6-3.5c-1.4-1-2.9-1.9-4.6-1.9h-7.1V170z M136.8,149.8h4.7c1.1,0,2.1,0.5,3,1.1c0.8,0.5,1.7,1.1,1.7,2v1.2
	c0,0.9-0.9,1.5-1.7,2c-0.9,0.6-1.9,1.1-3,1.1h-4.7V149.8z"/>
<path class="st0" d="M162.6,149.5c1.9,0,3.4,1.4,4.7,2.8c1.4,1.4,2.7,3,2.7,5v3c0,1.9-1.3,3.5-2.7,5c-1.3,1.4-2.8,2.8-4.7,2.8H161
	c-1.9,0-3.4-1.4-4.7-2.8c-1.4-1.4-2.7-3-2.7-5v-3c0-1.9,1.3-3.5,2.7-5c1.3-1.4,2.8-2.8,4.7-2.8H162.6z M162.6,147.3H161
	c-2.5,0-4.5,1.8-6.3,3.6c-1.8,1.8-3.6,3.9-3.6,6.4v3c0,2.5,1.8,4.6,3.6,6.4c1.8,1.8,3.8,3.6,6.3,3.6h1.7c2.5,0,4.6-1.8,6.3-3.6
	c1.8-1.8,3.6-3.9,3.6-6.4v-3c0-2.5-1.8-4.6-3.6-6.4C167.2,149.1,165.2,147.3,162.6,147.3z"/>
<path class="st0" d="M174.1,147.5l7.9,22.5h2.5l2.9-8.5l2.9,8.5h2.5l7.9-22.5h-2.4l-6.6,18.8l-3-8.5l3.6-10.3h-2.5l-2.4,6.8
	l-2.3-6.8h-2.6l3.7,10.5l-2.9,8.3l-6.6-18.8H174.1z"/>
<path class="st0" d="M202.8,165.8c0.5,0.9,1.4,1.7,2.2,2.4c1.3,1.1,2.8,2.1,4.5,2.1h1c1.8,0,3.3-0.9,4.6-2c1.3-1,2.5-2.2,2.5-3.8
	v-1.3c0-2.3-1.9-4.1-4.1-4.9l-5.5-1.5c-1.3-0.5-2.4-1.3-2.4-2.6v-1.3c0-0.9,0.6-1.6,1.3-2.2c0.7-0.7,1.6-1.2,2.6-1.2h0.9
	c1,0,1.8,0.6,2.5,1.2c0.4,0.4,0.9,0.8,1.1,1.3l2.3-0.6c-0.4-0.8-1.2-1.4-1.9-2.1c-1.2-1.1-2.5-2.1-4.1-2.1h-0.9c-1.6,0-3,0.9-4.2,2
	c-1.1,1-2.2,2.2-2.2,3.7v1.3c0,2.3,1.9,4,4.1,4.8l5.5,1.5c1.3,0.5,2.4,1.4,2.4,2.6v1.3c0,1-0.8,1.7-1.6,2.4c-0.9,0.7-1.9,1.3-3,1.3
	h-1c-1.1,0-2.1-0.6-3-1.3c-0.7-0.6-1.5-1.2-1.7-2.1L202.8,165.8z"/>
<path class="st0" d="M221.7,170h12.6v-2.3h-10.1v-9.4h8.9v-2.3h-8.9v-6.3h10.1v-2.3h-12.6V170z"/>
<path class="st0" d="M100,203h2.4l2.5-7h8.6l2.5,7h2.6l-8.1-22.5h-2.5L100,203z M112.7,193.8h-7l3.5-9.7L112.7,193.8z"/>
<path class="st0" d="M121.5,203h12.6v-2.3H124v-20.3h-2.5V203z"/>
<path class="st0" d="M137.6,203h12.6v-2.3h-10.1v-20.3h-2.5V203z"/>
<path class="st0" d="M162,180.5l7.9,22.5h2.5l2.9-8.5l2.9,8.5h2.5l7.9-22.5h-2.4l-6.6,18.8l-3-8.5l3.6-10.3h-2.4l-2.4,6.8l-2.3-6.8
	h-2.6l3.7,10.5l-2.9,8.3l-6.6-18.8H162z"/>
<path class="st0" d="M201.7,182.5c1.9,0,3.4,1.4,4.7,2.8c1.4,1.4,2.7,3,2.7,5v3c0,1.9-1.3,3.5-2.7,5c-1.3,1.4-2.8,2.8-4.7,2.8h-1.7
	c-1.9,0-3.4-1.4-4.7-2.8c-1.4-1.4-2.7-3-2.7-5v-3c0-1.9,1.3-3.5,2.7-5c1.3-1.4,2.8-2.8,4.7-2.8H201.7z M201.7,180.3h-1.7
	c-2.5,0-4.6,1.8-6.3,3.6c-1.8,1.8-3.6,3.9-3.6,6.4v3c0,2.5,1.8,4.6,3.6,6.4c1.8,1.8,3.8,3.6,6.3,3.6h1.7c2.5,0,4.5-1.8,6.3-3.6
	c1.8-1.8,3.6-3.9,3.6-6.4v-3c0-2.5-1.8-4.6-3.6-6.4C206.3,182.1,204.2,180.3,201.7,180.3z"/>
<path class="st0" d="M215.6,203h2.5v-10.4h4l5.6,10.4h2.9l-6-10.8c1-0.4,1.9-1,2.7-1.6c1.3-0.9,2.6-1.9,2.6-3.5v-1.2
	c0-1.5-1.4-2.6-2.6-3.5c-1.4-1-2.9-1.9-4.6-1.9h-7.1V203z M218.1,182.8h4.7c1.1,0,2.1,0.5,3,1.1c0.8,0.5,1.7,1.1,1.7,2v1.2
	c0,0.9-0.9,1.5-1.7,2c-0.9,0.6-1.9,1.1-3,1.1h-4.7V182.8z"/>
<path class="st0" d="M233.3,180.5V203h2.5v-9.5l3.2-3.1l7.3,12.6h2.9l-8.3-14.4l8.3-8.1h-3.4l-6.1,5.9c-1.3,1.3-2.6,2.5-3.9,3.8
	v-9.7H233.3z"/>
</svg>
