<svg width="270" height="122" viewBox="0 0 270 122" fill="none" xmlns="http://www.w3.org/2000/svg">
<path d="M6.78652 0.499999L14.6365 23H17.1365L20.0865 14.525L23.0365 23H25.5365L33.3865 0.499999H30.9365L24.3865 19.3L21.4115 10.775L24.9865 0.499999H22.5365L20.1615 7.25L17.8115 0.499999H15.1865L18.8615 11L15.9615 19.3L9.41152 0.499999H6.78652ZM46.4646 2.5C48.3896 2.5 49.8646 3.9 51.1896 5.3C52.5396 6.725 53.8647 8.325 53.8647 10.275V13.225C53.8647 15.175 52.5396 16.775 51.1896 18.2C49.8646 19.6 48.3896 21 46.4646 21H44.8146C42.8896 21 41.4146 19.6 40.0896 18.2C38.7396 16.775 37.4146 15.175 37.4146 13.225V10.275C37.4146 8.325 38.7396 6.725 40.0896 5.3C41.4146 3.9 42.8896 2.5 44.8146 2.5H46.4646ZM46.4646 0.249999H44.8146C42.2896 0.249999 40.2646 2.05 38.4896 3.85C36.6896 5.675 34.9396 7.725 34.9396 10.275V13.225C34.9396 15.775 36.6896 17.825 38.4896 19.65C40.2646 21.45 42.2896 23.25 44.8146 23.25H46.4646C48.9896 23.25 51.0146 21.45 52.7896 19.65C54.5896 17.825 56.3396 15.775 56.3396 13.225V10.275C56.3396 7.725 54.5896 5.675 52.7896 3.85C51.0146 2.05 48.9896 0.249999 46.4646 0.249999ZM60.3514 23H62.8264V12.575H66.8764L72.5014 23H75.4264L69.4014 12.225C70.3764 11.85 71.2764 11.275 72.1264 10.625C73.3764 9.7 74.7264 8.675 74.7264 7.15V5.925C74.7264 4.4 73.3764 3.375 72.1264 2.45C70.7514 1.425 69.2264 0.499999 67.5014 0.499999H60.3514V23ZM62.8264 2.75H67.5014C68.6014 2.75 69.6014 3.275 70.5264 3.9C71.3264 4.425 72.2514 5.025 72.2514 5.925V7.15C72.2514 8.05 71.3264 8.65 70.5264 9.175C69.6014 9.8 68.6014 10.325 67.5014 10.325H62.8264V2.75ZM78.0271 23H85.8521C88.3771 23 90.4271 21.25 92.2521 19.475C94.0521 17.7 95.8521 15.725 95.8521 13.2V10.3C95.8521 7.775 94.0521 5.8 92.2521 4.025C90.4271 2.25 88.3771 0.499999 85.8521 0.499999H78.0271V23ZM80.5021 20.75V2.75H85.8521C87.7771 2.75 89.3271 4.1 90.6771 5.475C92.0521 6.85 93.3771 8.375 93.3771 10.3V13.2C93.3771 15.125 92.0521 16.65 90.6771 18.025C89.3271 19.4 87.7771 20.75 85.8521 20.75H80.5021ZM99.373 18.775C99.848 19.7 100.748 20.45 101.598 21.15C102.923 22.25 104.423 23.25 106.148 23.25H107.173C108.923 23.25 110.473 22.325 111.823 21.225C113.073 20.2 114.298 19 114.298 17.4V16.15C114.298 13.85 112.448 12.075 110.248 11.25L104.723 9.775C103.473 9.3 102.298 8.475 102.298 7.2V5.9C102.298 5 102.948 4.275 103.648 3.675C104.373 3.025 105.248 2.5 106.223 2.5H107.098C108.073 2.5 108.898 3.1 109.623 3.725C110.048 4.1 110.498 4.5 110.773 4.975L113.073 4.375C112.623 3.6 111.898 2.925 111.198 2.3C110.023 1.25 108.673 0.249999 107.098 0.249999H106.223C104.623 0.249999 103.248 1.175 102.048 2.225C100.923 3.225 99.823 4.4 99.823 5.9V7.2C99.823 9.475 101.673 11.2 103.873 12.025L109.398 13.5C110.648 13.975 111.823 14.85 111.823 16.15V17.4C111.823 18.4 110.998 19.125 110.198 19.75C109.298 20.45 108.298 21 107.173 21H106.148C105.048 21 104.048 20.375 103.173 19.7C102.448 19.125 101.648 18.5 101.523 17.65L99.373 18.775ZM129.085 23H131.56V0.499999H129.085V23ZM136.816 23H139.291V4.825L151.291 23H153.791V0.499999H151.316V18.675L139.316 0.499999H136.816V23ZM168.465 18.775C168.94 19.7 169.84 20.45 170.69 21.15C172.015 22.25 173.515 23.25 175.24 23.25H176.265C178.015 23.25 179.565 22.325 180.915 21.225C182.165 20.2 183.39 19 183.39 17.4V16.15C183.39 13.85 181.54 12.075 179.34 11.25L173.815 9.775C172.565 9.3 171.39 8.475 171.39 7.2V5.9C171.39 5 172.04 4.275 172.74 3.675C173.465 3.025 174.34 2.5 175.315 2.5H176.19C177.165 2.5 177.99 3.1 178.715 3.725C179.14 4.1 179.59 4.5 179.865 4.975L182.165 4.375C181.715 3.6 180.99 2.925 180.29 2.3C179.115 1.25 177.765 0.249999 176.19 0.249999H175.315C173.715 0.249999 172.34 1.175 171.14 2.225C170.015 3.225 168.915 4.4 168.915 5.9V7.2C168.915 9.475 170.765 11.2 172.965 12.025L178.49 13.5C179.74 13.975 180.915 14.85 180.915 16.15V17.4C180.915 18.4 180.09 19.125 179.29 19.75C178.39 20.45 177.39 21 176.265 21H175.24C174.14 21 173.14 20.375 172.265 19.7C171.54 19.125 170.74 18.5 170.615 17.65L168.465 18.775ZM187.353 23H189.828V13.55H194.503C196.253 13.55 197.778 12.55 199.128 11.45C200.378 10.425 201.728 9.3 201.728 7.7V6.35C201.728 4.75 200.378 3.625 199.128 2.6C197.778 1.5 196.253 0.499999 194.503 0.499999H187.353V23ZM189.828 2.75H194.503C195.628 2.75 196.628 3.375 197.528 4.05C198.353 4.675 199.253 5.35 199.253 6.35V7.7C199.253 8.7 198.353 9.375 197.528 10C196.628 10.675 195.628 11.3 194.503 11.3H189.828V2.75ZM203.1 23H205.525L208.05 16.025H216.675L219.2 23H221.825L213.725 0.499999H211.225L203.1 23ZM215.875 13.775H208.85L212.35 4.05L215.875 13.775ZM243.471 16.75L241.521 15.5C241.021 16.475 240.221 17.375 239.446 18.2C238.121 19.6 236.646 21 234.721 21H233.071C231.146 21 229.671 19.6 228.346 18.2C226.996 16.775 225.671 15.175 225.671 13.225V10.275C225.671 8.325 226.996 6.725 228.346 5.3C229.671 3.9 231.146 2.5 233.071 2.5H234.721C236.646 2.5 238.121 3.9 239.446 5.3C240.221 6.125 241.021 7.025 241.521 8L243.471 6.75C242.821 5.7 241.921 4.75 241.046 3.85C239.271 2.05 237.246 0.249999 234.721 0.249999H233.071C230.546 0.249999 228.521 2.05 226.746 3.85C224.946 5.675 223.196 7.725 223.196 10.275V13.225C223.196 15.775 224.946 17.825 226.746 19.65C228.521 21.45 230.546 23.25 233.071 23.25H234.721C237.246 23.25 239.271 21.45 241.046 19.65C241.921 18.75 242.821 17.8 243.471 16.75ZM247.729 23H260.329V20.75H250.204V11.3H259.104V9.05H250.204V2.75H260.329V0.499999H247.729V23ZM0.838086 56H3.31309V33.5H0.838086V56ZM7.86914 51.775C8.34414 52.7 9.24414 53.45 10.0941 54.15C11.4191 55.25 12.9191 56.25 14.6441 56.25H15.6691C17.4191 56.25 18.9691 55.325 20.3191 54.225C21.5691 53.2 22.7941 52 22.7941 50.4V49.15C22.7941 46.85 20.9441 45.075 18.7441 44.25L13.2191 42.775C11.9691 42.3 10.7941 41.475 10.7941 40.2V38.9C10.7941 38 11.4441 37.275 12.1441 36.675C12.8691 36.025 13.7441 35.5 14.7191 35.5H15.5941C16.5691 35.5 17.3941 36.1 18.1191 36.725C18.5441 37.1 18.9941 37.5 19.2691 37.975L21.5691 37.375C21.1191 36.6 20.3941 35.925 19.6941 35.3C18.5191 34.25 17.1691 33.25 15.5941 33.25H14.7191C13.1191 33.25 11.7441 34.175 10.5441 35.225C9.41914 36.225 8.31914 37.4 8.31914 38.9V40.2C8.31914 42.475 10.1691 44.2 12.3691 45.025L17.8941 46.5C19.1441 46.975 20.3191 47.85 20.3191 49.15V50.4C20.3191 51.4 19.4941 52.125 18.6941 52.75C17.7941 53.45 16.7941 54 15.6691 54H14.6441C13.5441 54 12.5441 53.375 11.6691 52.7C10.9441 52.125 10.1441 51.5 10.0191 50.65L7.86914 51.775ZM34.8813 35.75H41.6063V56H44.0813V35.75H50.7813V33.5H34.8813V35.75ZM53.3201 56H55.7951V44.3H66.9201V56H69.3951V33.5H66.9201V42.05H55.7951V33.5H53.3201V56ZM74.3162 56H86.9162V53.75H76.7912V44.3H85.6912V42.05H76.7912V35.75H86.9162V33.5H74.3162V56ZM98.974 33.5L106.824 56H109.324L112.274 47.525L115.224 56H117.724L125.574 33.5H123.124L116.574 52.3L113.599 43.775L117.174 33.5H114.724L112.349 40.25L109.999 33.5H107.374L111.049 44L108.149 52.3L101.599 33.5H98.974ZM128.369 56H140.969V53.75H130.844V44.3H139.744V42.05H130.844V35.75H140.969V33.5H128.369V56ZM144.653 56H152.303C154.003 56 155.378 54.85 156.603 53.675C157.803 52.5 159.028 51.175 159.028 49.5V47.9C159.028 46.225 157.803 44.925 156.603 43.75C155.978 43.15 155.303 42.55 154.578 42.1C155.028 41.875 155.453 41.625 155.878 41.35C156.803 40.75 157.903 40.025 157.903 39.025V38.125C157.903 36.875 156.853 35.975 155.878 35.175C154.828 34.3 153.653 33.5 152.303 33.5H144.653V56ZM147.128 35.75H152.303C153.053 35.75 153.703 36.15 154.303 36.6C154.828 37 155.428 37.45 155.428 38.125V39.025C155.428 39.7 154.828 40.15 154.303 40.55C153.703 41 153.053 41.4 152.303 41.4H147.128V35.75ZM147.128 43.65H152.303C153.378 43.65 154.253 44.4 155.028 45.175C155.803 45.95 156.553 46.825 156.553 47.9V49.5C156.553 50.575 155.803 51.45 155.028 52.225C154.253 53 153.378 53.75 152.303 53.75H147.128V43.65ZM162.337 51.775C162.812 52.7 163.712 53.45 164.562 54.15C165.887 55.25 167.387 56.25 169.112 56.25H170.137C171.887 56.25 173.437 55.325 174.787 54.225C176.037 53.2 177.262 52 177.262 50.4V49.15C177.262 46.85 175.412 45.075 173.212 44.25L167.687 42.775C166.437 42.3 165.262 41.475 165.262 40.2V38.9C165.262 38 165.912 37.275 166.612 36.675C167.337 36.025 168.212 35.5 169.187 35.5H170.062C171.037 35.5 171.862 36.1 172.587 36.725C173.012 37.1 173.462 37.5 173.737 37.975L176.037 37.375C175.587 36.6 174.862 35.925 174.162 35.3C172.987 34.25 171.637 33.25 170.062 33.25H169.187C167.587 33.25 166.212 34.175 165.012 35.225C163.887 36.225 162.787 37.4 162.787 38.9V40.2C162.787 42.475 164.637 44.2 166.837 45.025L172.362 46.5C173.612 46.975 174.787 47.85 174.787 49.15V50.4C174.787 51.4 173.962 52.125 173.162 52.75C172.262 53.45 171.262 54 170.137 54H169.112C168.012 54 167.012 53.375 166.137 52.7C165.412 52.125 164.612 51.5 164.487 50.65L162.337 51.775ZM181.575 56H184.05V33.5H181.575V56ZM186.956 35.75H193.681V56H196.156V35.75H202.856V33.5H186.956V35.75ZM205.395 56H217.995V53.75H207.87V44.3H216.77V42.05H207.87V35.75H217.995V33.5H205.395V56ZM242.778 35.5C244.703 35.5 246.178 36.9 247.503 38.3C248.853 39.725 250.178 41.325 250.178 43.275V46.225C250.178 48.175 248.853 49.775 247.503 51.2C246.178 52.6 244.703 54 242.778 54H241.128C239.203 54 237.728 52.6 236.403 51.2C235.053 49.775 233.728 48.175 233.728 46.225V43.275C233.728 41.325 235.053 39.725 236.403 38.3C237.728 36.9 239.203 35.5 241.128 35.5H242.778ZM242.778 33.25H241.128C238.603 33.25 236.578 35.05 234.803 36.85C233.003 38.675 231.253 40.725 231.253 43.275V46.225C231.253 48.775 233.003 50.825 234.803 52.65C236.578 54.45 238.603 56.25 241.128 56.25H242.778C245.303 56.25 247.328 54.45 249.103 52.65C250.903 50.825 252.653 48.775 252.653 46.225V43.275C252.653 40.725 250.903 38.675 249.103 36.85C247.328 35.05 245.303 33.25 242.778 33.25ZM256.665 56H259.14V44.3H268.04V42.05H259.14V35.75H269.265V33.5H256.665V56ZM61.3726 84.775C61.8476 85.7 62.7476 86.45 63.5976 87.15C64.9226 88.25 66.4226 89.25 68.1476 89.25H69.1726C70.9226 89.25 72.4726 88.325 73.8226 87.225C75.0726 86.2 76.2976 85 76.2976 83.4V82.15C76.2976 79.85 74.4476 78.075 72.2476 77.25L66.7226 75.775C65.4726 75.3 64.2976 74.475 64.2976 73.2V71.9C64.2976 71 64.9476 70.275 65.6476 69.675C66.3726 69.025 67.2476 68.5 68.2226 68.5H69.0976C70.0726 68.5 70.8976 69.1 71.6226 69.725C72.0476 70.1 72.4976 70.5 72.7726 70.975L75.0726 70.375C74.6226 69.6 73.8976 68.925 73.1976 68.3C72.0226 67.25 70.6726 66.25 69.0976 66.25H68.2226C66.6226 66.25 65.2476 67.175 64.0476 68.225C62.9226 69.225 61.8226 70.4 61.8226 71.9V73.2C61.8226 75.475 63.6726 77.2 65.8726 78.025L71.3976 79.5C72.6476 79.975 73.8226 80.85 73.8226 82.15V83.4C73.8226 84.4 72.9976 85.125 72.1976 85.75C71.2976 86.45 70.2976 87 69.1726 87H68.1476C67.0476 87 66.0476 86.375 65.1726 85.7C64.4476 85.125 63.6476 84.5 63.5226 83.65L61.3726 84.775ZM80.261 89H82.736V77.3H93.861V89H96.336V66.5H93.861V75.05H82.736V66.5H80.261V89ZM99.1571 89H101.582L104.107 82.025H112.732L115.257 89H117.882L109.782 66.5H107.282L99.1571 89ZM111.932 79.775H104.907L108.407 70.05L111.932 79.775ZM120.691 89H123.166V70.825L135.166 89H137.666V66.5H135.191V84.675L123.191 66.5H120.691V89ZM142.566 89H145.041V70.825L157.041 89H159.541V66.5H157.066V84.675L145.066 66.5H142.566V89ZM175.066 68.5C176.991 68.5 178.466 69.9 179.791 71.3C181.141 72.725 182.466 74.325 182.466 76.275V79.225C182.466 81.175 181.141 82.775 179.791 84.2C178.466 85.6 176.991 87 175.066 87H173.416C171.491 87 170.016 85.6 168.691 84.2C167.341 82.775 166.016 81.175 166.016 79.225V76.275C166.016 74.325 167.341 72.725 168.691 71.3C170.016 69.9 171.491 68.5 173.416 68.5H175.066ZM175.066 66.25H173.416C170.891 66.25 168.866 68.05 167.091 69.85C165.291 71.675 163.541 73.725 163.541 76.275V79.225C163.541 81.775 165.291 83.825 167.091 85.65C168.866 87.45 170.891 89.25 173.416 89.25H175.066C177.591 89.25 179.616 87.45 181.391 85.65C183.191 83.825 184.941 81.775 184.941 79.225V76.275C184.941 73.725 183.191 71.675 181.391 69.85C179.616 68.05 177.591 66.25 175.066 66.25ZM188.952 89H191.427V70.825L203.427 89H205.927V66.5H203.452V84.675L191.452 66.5H188.952V89ZM69.3357 122H71.8107V105.325L79.1857 122H81.6857L89.0607 105.325V122H91.5357V99.5H89.0357L80.4357 118.925L71.8357 99.5H69.3357V122ZM94.3598 122H96.7848L99.3098 115.025H107.935L110.46 122H113.085L104.985 99.5H102.485L94.3598 122ZM107.135 112.775H100.11L103.61 103.05L107.135 112.775ZM111.444 101.75H118.169V122H120.644V101.75H127.344V99.5H111.444V101.75ZM129.29 101.75H136.015V122H138.49V101.75H145.19V99.5H129.29V101.75ZM147.729 122H160.329V119.75H150.204V110.3H159.104V108.05H150.204V101.75H160.329V99.5H147.729V122ZM164.013 122H166.488V111.575H170.538L176.163 122H179.088L173.063 111.225C174.038 110.85 174.938 110.275 175.788 109.625C177.038 108.7 178.388 107.675 178.388 106.15V104.925C178.388 103.4 177.038 102.375 175.788 101.45C174.413 100.425 172.888 99.5 171.163 99.5H164.013V122ZM166.488 101.75H171.163C172.263 101.75 173.263 102.275 174.188 102.9C174.988 103.425 175.913 104.025 175.913 104.925V106.15C175.913 107.05 174.988 107.65 174.188 108.175C173.263 108.8 172.263 109.325 171.163 109.325H166.488V101.75ZM181.689 122H184.164V103.825L196.164 122H198.664V99.5H196.189V117.675L184.189 99.5H181.689V122Z" fill="#6262F4"/>
</svg>
