<svg width="243" height="243" viewBox="0 0 243 243" fill="none" xmlns="http://www.w3.org/2000/svg">
<path d="M51.3431 138H54.7969L58.3931 128.066H70.6772L74.2734 138H78.012L66.4757 105.955H62.9151L51.3431 138ZM69.5378 124.861H59.5325L64.5173 111.011L69.5378 124.861ZM82.0121 138H92.9076C95.3288 138 97.2871 136.362 99.0318 134.689C100.741 133.015 102.486 131.128 102.486 128.742V126.464C102.486 124.078 100.741 122.227 99.0318 120.553C98.1417 119.698 97.1803 118.844 96.1478 118.203C96.7887 117.883 97.394 117.527 97.9993 117.135C99.3167 116.28 100.883 115.248 100.883 113.823V112.542C100.883 110.761 99.3879 109.48 97.9993 108.34C96.5038 107.094 94.8303 105.955 92.9076 105.955H82.0121V138ZM85.5371 109.159H92.9076C93.9758 109.159 94.9015 109.729 95.7561 110.37C96.5038 110.939 97.3584 111.58 97.3584 112.542V113.823C97.3584 114.785 96.5038 115.426 95.7561 115.995C94.9015 116.636 93.9758 117.206 92.9076 117.206H85.5371V109.159ZM85.5371 120.411H92.9076C94.4387 120.411 95.6849 121.479 96.7887 122.583C97.8924 123.686 98.9606 124.933 98.9606 126.464V128.742C98.9606 130.273 97.8924 131.52 96.7887 132.623C95.6849 133.727 94.4387 134.795 92.9076 134.795H85.5371V120.411ZM123.328 108.803C126.069 108.803 128.17 110.797 130.057 112.791C131.98 114.82 133.867 117.099 133.867 119.877V124.078C133.867 126.855 131.98 129.134 130.057 131.164C128.17 133.158 126.069 135.152 123.328 135.152H120.978C118.236 135.152 116.135 133.158 114.248 131.164C112.325 129.134 110.438 126.855 110.438 124.078V119.877C110.438 117.099 112.325 114.82 114.248 112.791C116.135 110.797 118.236 108.803 120.978 108.803H123.328ZM123.328 105.598H120.978C117.381 105.598 114.497 108.162 111.969 110.726C109.406 113.325 106.913 116.245 106.913 119.877V124.078C106.913 127.71 109.406 130.63 111.969 133.229C114.497 135.792 117.381 138.356 120.978 138.356H123.328C126.924 138.356 129.808 135.792 132.336 133.229C134.9 130.63 137.392 127.71 137.392 124.078V119.877C137.392 116.245 134.9 113.325 132.336 110.726C129.808 108.162 126.924 105.598 123.328 105.598ZM165.858 105.955H162.333V128.529C162.333 130.238 161.051 131.591 159.769 132.766C158.452 133.977 156.992 135.152 155.212 135.152H153.61C151.829 135.152 150.369 133.977 149.052 132.766C147.77 131.591 146.488 130.238 146.488 128.529V105.955H142.963V128.529C142.963 131.092 144.922 133.086 146.809 134.831C148.767 136.647 150.939 138.356 153.61 138.356H155.212C157.882 138.356 160.054 136.647 162.013 134.831C163.9 133.086 165.858 131.092 165.858 128.529V105.955ZM169.384 109.159H178.962V138H182.487V109.159H192.03V105.955H169.384V109.159Z" fill="#5B5A7C"/>
</svg>
