<?xml version="1.0" encoding="utf-8"?>
<!-- Generator: Adobe Illustrator 23.0.1, SVG Export Plug-In . SVG Version: 6.00 Build 0)  -->
<svg version="1.1" id="Layer_1" xmlns="http://www.w3.org/2000/svg" xmlns:xlink="http://www.w3.org/1999/xlink" x="0px" y="0px"
	 viewBox="0 0 181 181" style="enable-background:new 0 0 181 181;" xml:space="preserve">
<style type="text/css">
	.st0{fill:#5B5A7C;}
</style>
<path class="st0" d="M84.5,94.8l-1.9-1.3c-0.5,1-1.3,1.9-2.1,2.7c-1.3,1.4-2.8,2.8-4.7,2.8h-1.7c-1.9,0-3.4-1.4-4.7-2.8
	c-1.3-1.4-2.7-3-2.7-5v-2.9c0-2,1.3-3.6,2.7-5c1.3-1.4,2.8-2.8,4.7-2.8h1.7c1.9,0,3.4,1.4,4.7,2.8c0.8,0.8,1.6,1.7,2.1,2.7l1.9-1.3
	c-0.6-1.1-1.5-2-2.4-2.9c-1.8-1.8-3.8-3.6-6.3-3.6h-1.7c-2.5,0-4.6,1.8-6.3,3.6c-1.8,1.8-3.6,3.9-3.6,6.4v2.9c0,2.6,1.8,4.6,3.6,6.4
	c1.8,1.8,3.8,3.6,6.3,3.6h1.7c2.5,0,4.5-1.8,6.3-3.6C82.9,96.8,83.8,95.8,84.5,94.8z"/>
<path class="st0" d="M90.3,97.8c-0.4,0-0.7,0.3-1,0.6c-0.3,0.3-0.6,0.7-0.6,1.1s0.3,0.7,0.6,1c0.3,0.3,0.6,0.6,1,0.6s0.7-0.3,1-0.6
	c0.3-0.3,0.6-0.6,0.6-1s-0.3-0.8-0.6-1.1C91,98.1,90.7,97.8,90.3,97.8z"/>
<path class="st0" d="M94.6,78.5l7.7,22.5h2.5l7.7-22.5H110l-6.4,18.7l-6.3-18.7H94.6z"/>
<path class="st0" d="M114.2,97.8c-0.4,0-0.7,0.3-1,0.6c-0.3,0.3-0.6,0.7-0.6,1.1s0.3,0.7,0.6,1c0.3,0.3,0.6,0.6,1,0.6
	c0.4,0,0.7-0.3,1-0.6c0.3-0.3,0.6-0.6,0.6-1s-0.3-0.8-0.6-1.1C114.9,98.1,114.6,97.8,114.2,97.8z"/>
</svg>
