<svg width="120" height="120" viewBox="0 0 243 243" fill="none" xmlns="http://www.w3.org/2000/svg">
<circle cx="121.5" cy="121.5" r="91.5" stroke="#6262F4" stroke-opacity="0.5" stroke-width="60" stroke-dasharray="3 60"/>
<path d="M56.948 126.75L54.998 125.5C54.498 126.475 53.698 127.375 52.923 128.2C51.598 129.6 50.123 131 48.198 131H46.548C44.623 131 43.148 129.6 41.823 128.2C40.473 126.775 39.148 125.175 39.148 123.225V120.275C39.148 118.325 40.473 116.725 41.823 115.3C43.148 113.9 44.623 112.5 46.548 112.5H48.198C50.123 112.5 51.598 113.9 52.923 115.3C53.698 116.125 54.498 117.025 54.998 118L56.948 116.75C56.298 115.7 55.398 114.75 54.523 113.85C52.748 112.05 50.723 110.25 48.198 110.25H46.548C44.023 110.25 41.998 112.05 40.223 113.85C38.423 115.675 36.673 117.725 36.673 120.275V123.225C36.673 125.775 38.423 127.825 40.223 129.65C41.998 131.45 44.023 133.25 46.548 133.25H48.198C50.723 133.25 52.748 131.45 54.523 129.65C55.398 128.75 56.298 127.8 56.948 126.75ZM71.8309 112.5C73.7559 112.5 75.2309 113.9 76.5559 115.3C77.9059 116.725 79.2309 118.325 79.2309 120.275V123.225C79.2309 125.175 77.9059 126.775 76.5559 128.2C75.2309 129.6 73.7559 131 71.8309 131H70.1809C68.2559 131 66.7809 129.6 65.4559 128.2C64.1059 126.775 62.7809 125.175 62.7809 123.225V120.275C62.7809 118.325 64.1059 116.725 65.4559 115.3C66.7809 113.9 68.2559 112.5 70.1809 112.5H71.8309ZM71.8309 110.25H70.1809C67.6559 110.25 65.6309 112.05 63.8559 113.85C62.0559 115.675 60.3059 117.725 60.3059 120.275V123.225C60.3059 125.775 62.0559 127.825 63.8559 129.65C65.6309 131.45 67.6559 133.25 70.1809 133.25H71.8309C74.3559 133.25 76.3809 131.45 78.1559 129.65C79.9559 127.825 81.7059 125.775 81.7059 123.225V120.275C81.7059 117.725 79.9559 115.675 78.1559 113.85C76.3809 112.05 74.3559 110.25 71.8309 110.25ZM85.7176 133H98.3176V130.75H88.1926V110.5H85.7176V133ZM111.211 112.5C113.136 112.5 114.611 113.9 115.936 115.3C117.286 116.725 118.611 118.325 118.611 120.275V123.225C118.611 125.175 117.286 126.775 115.936 128.2C114.611 129.6 113.136 131 111.211 131H109.561C107.636 131 106.161 129.6 104.836 128.2C103.486 126.775 102.161 125.175 102.161 123.225V120.275C102.161 118.325 103.486 116.725 104.836 115.3C106.161 113.9 107.636 112.5 109.561 112.5H111.211ZM111.211 110.25H109.561C107.036 110.25 105.011 112.05 103.236 113.85C101.436 115.675 99.6857 117.725 99.6857 120.275V123.225C99.6857 125.775 101.436 127.825 103.236 129.65C105.011 131.45 107.036 133.25 109.561 133.25H111.211C113.736 133.25 115.761 131.45 117.536 129.65C119.336 127.825 121.086 125.775 121.086 123.225V120.275C121.086 117.725 119.336 115.675 117.536 113.85C115.761 112.05 113.736 110.25 111.211 110.25ZM125.097 133H127.572V123.55H132.247C133.997 123.55 135.522 122.55 136.872 121.45C138.122 120.425 139.472 119.3 139.472 117.7V116.35C139.472 114.75 138.122 113.625 136.872 112.6C135.522 111.5 133.997 110.5 132.247 110.5H125.097V133ZM127.572 112.75H132.247C133.372 112.75 134.372 113.375 135.272 114.05C136.097 114.675 136.997 115.35 136.997 116.35V117.7C136.997 118.7 136.097 119.375 135.272 120C134.372 120.675 133.372 121.3 132.247 121.3H127.572V112.75ZM142.944 133H145.419V121.3H156.544V133H159.019V110.5H156.544V119.05H145.419V110.5H142.944V133ZM174.565 112.5C176.49 112.5 177.965 113.9 179.29 115.3C180.64 116.725 181.965 118.325 181.965 120.275V123.225C181.965 125.175 180.64 126.775 179.29 128.2C177.965 129.6 176.49 131 174.565 131H172.915C170.99 131 169.515 129.6 168.19 128.2C166.84 126.775 165.515 125.175 165.515 123.225V120.275C165.515 118.325 166.84 116.725 168.19 115.3C169.515 113.9 170.99 112.5 172.915 112.5H174.565ZM174.565 110.25H172.915C170.39 110.25 168.365 112.05 166.59 113.85C164.79 115.675 163.04 117.725 163.04 120.275V123.225C163.04 125.775 164.79 127.825 166.59 129.65C168.365 131.45 170.39 133.25 172.915 133.25H174.565C177.09 133.25 179.115 131.45 180.89 129.65C182.69 127.825 184.44 125.775 184.44 123.225V120.275C184.44 117.725 182.69 115.675 180.89 113.85C179.115 112.05 177.09 110.25 174.565 110.25ZM188.452 133H190.927V114.825L202.927 133H205.427V110.5H202.952V128.675L190.952 110.5H188.452V133Z" fill="#6262F4"/>
</svg>
