<?xml version="1.0" encoding="utf-8"?>
<!-- Generator: Adobe Illustrator 23.0.1, SVG Export Plug-In . SVG Version: 6.00 Build 0)  -->
<svg version="1.1" id="Layer_1" xmlns="http://www.w3.org/2000/svg" xmlns:xlink="http://www.w3.org/1999/xlink" x="0px" y="0px"
	 viewBox="0 0 181 181" style="enable-background:new 0 0 181 181;" xml:space="preserve">
<style type="text/css">
	.st0{fill-rule:evenodd;clip-rule:evenodd;fill:#9F9FD6;}
</style>
<path class="st0" d="M181,91.1l-25-0.2c0-0.1,0-0.3,0-0.4s0-0.3,0-0.4l25-0.2c0,0.2,0,0.4,0,0.6S181,90.9,181,91.1z M169.2,45.7
	l-21.7,12.4c-0.1-0.2-0.3-0.5-0.4-0.7l21.6-12.7C168.8,45.1,169,45.4,169.2,45.7z M136.3,12.4L123.6,34c-0.2-0.1-0.5-0.3-0.7-0.4
	l12.4-21.7C135.6,12,135.9,12.2,136.3,12.4z M91.1,0l-0.2,25c-0.1,0-0.3,0-0.4,0s-0.3,0-0.4,0L89.9,0c0.2,0,0.4,0,0.6,0
	S90.9,0,91.1,0z M45.7,11.8l12.4,21.7c-0.2,0.1-0.5,0.3-0.7,0.4L44.7,12.4C45.1,12.2,45.4,12,45.7,11.8z M12.4,44.7L34,57.4
	c-0.1,0.2-0.3,0.5-0.4,0.7L11.8,45.7C12,45.4,12.2,45.1,12.4,44.7z M0,89.9c0,0.2,0,0.4,0,0.6s0,0.4,0,0.6l25-0.2c0-0.1,0-0.3,0-0.4
	s0-0.3,0-0.4L0,89.9z M11.8,135.3l21.7-12.4c0.1,0.2,0.3,0.5,0.4,0.7l-21.6,12.7C12.2,135.9,12,135.6,11.8,135.3z M44.7,168.6
	L57.4,147c0.2,0.1,0.5,0.3,0.7,0.4l-12.4,21.7C45.4,169,45.1,168.8,44.7,168.6z M89.9,181l0.2-25c0.1,0,0.3,0,0.4,0s0.3,0,0.4,0
	l0.2,25c-0.2,0-0.4,0-0.6,0S90.1,181,89.9,181z M135.3,169.2c0.3-0.2,0.7-0.4,1-0.6L123.6,147c-0.2,0.1-0.5,0.3-0.7,0.4L135.3,169.2
	z M168.6,136.3L147,123.6c0.1-0.2,0.3-0.5,0.4-0.7l21.7,12.4C169,135.6,168.8,135.9,168.6,136.3z"/>
</svg>
