<svg width="350" height="350" viewBox="0 0 350 350" fill="none" xmlns="http://www.w3.org/2000/svg">
<style type="text/css">
	.st0{fill:#5B5A7C;}
</style>
<path class="st0" d="M131.3,179.8l-1.9-1.3c-0.5,1-1.3,1.9-2.1,2.7c-1.3,1.4-2.8,2.8-4.7,2.8h-1.7c-1.9,0-3.4-1.4-4.7-2.8
	c-1.3-1.4-2.7-3-2.7-5v-3c0-1.9,1.3-3.5,2.7-5c1.3-1.4,2.8-2.8,4.7-2.8h1.7c1.9,0,3.4,1.4,4.7,2.8c0.8,0.8,1.6,1.7,2.1,2.7l1.9-1.3
	c-0.6-1.1-1.6-2-2.4-2.9c-1.8-1.8-3.8-3.6-6.3-3.6h-1.7c-2.5,0-4.5,1.8-6.3,3.6c-1.8,1.8-3.6,3.9-3.6,6.4v3c0,2.5,1.8,4.6,3.6,6.4
	c1.8,1.8,3.8,3.6,6.3,3.6h1.7c2.5,0,4.6-1.8,6.3-3.6C129.8,181.8,130.7,180.8,131.3,179.8z"/>
<path class="st0" d="M135.6,186h12.6v-2.3h-10.1v-20.3h-2.5V186z"/>
<path class="st0" d="M149.6,186h2.4l2.5-7h8.6l2.5,7h2.6l-8.1-22.5h-2.5L149.6,186z M162.3,176.8h-7l3.5-9.7L162.3,176.8z"/>
<path class="st0" d="M170.4,181.8c0.5,0.9,1.4,1.7,2.2,2.4c1.3,1.1,2.8,2.1,4.5,2.1h1c1.8,0,3.3-0.9,4.6-2c1.3-1,2.5-2.2,2.5-3.8
	v-1.3c0-2.3-1.9-4.1-4.1-4.9l-5.5-1.5c-1.3-0.5-2.4-1.3-2.4-2.6v-1.3c0-0.9,0.6-1.6,1.3-2.2c0.7-0.7,1.6-1.2,2.6-1.2h0.9
	c1,0,1.8,0.6,2.5,1.2c0.4,0.4,0.9,0.8,1.1,1.3l2.3-0.6c-0.4-0.8-1.2-1.4-1.9-2.1c-1.2-1.1-2.5-2.1-4.1-2.1h-0.9c-1.6,0-3,0.9-4.2,2
	c-1.1,1-2.2,2.2-2.2,3.7v1.3c0,2.3,1.9,4,4.1,4.8l5.5,1.5c1.3,0.5,2.4,1.4,2.4,2.6v1.3c0,1-0.8,1.7-1.6,2.4c-0.9,0.7-1.9,1.3-3,1.3
	h-1c-1.1,0-2.1-0.6-3-1.3c-0.7-0.6-1.5-1.2-1.7-2.1L170.4,181.8z"/>
<path class="st0" d="M188.6,181.8c0.5,0.9,1.4,1.7,2.2,2.4c1.3,1.1,2.8,2.1,4.6,2.1h1c1.8,0,3.3-0.9,4.6-2c1.3-1,2.5-2.2,2.5-3.8
	v-1.3c0-2.3-1.9-4.1-4.1-4.9l-5.5-1.5c-1.3-0.5-2.4-1.3-2.4-2.6v-1.3c0-0.9,0.6-1.6,1.3-2.2c0.7-0.7,1.6-1.2,2.6-1.2h0.9
	c1,0,1.8,0.6,2.5,1.2c0.4,0.4,0.9,0.8,1.1,1.3l2.3-0.6c-0.4-0.8-1.2-1.4-1.9-2.1c-1.2-1.1-2.5-2.1-4.1-2.1h-0.9c-1.6,0-3,0.9-4.2,2
	c-1.1,1-2.2,2.2-2.2,3.7v1.3c0,2.3,1.9,4,4.1,4.8l5.5,1.5c1.3,0.5,2.4,1.4,2.4,2.6v1.3c0,1-0.8,1.7-1.6,2.4c-0.9,0.7-1.9,1.3-3,1.3
	h-1c-1.1,0-2.1-0.6-3-1.3c-0.7-0.6-1.5-1.2-1.7-2.1L188.6,181.8z"/>
<path class="st0" d="M207.5,186h12.6v-2.3H210v-9.4h8.9v-2.3H210v-6.3h10.1v-2.3h-12.6V186z"/>
<path class="st0" d="M223.1,181.8c0.5,0.9,1.4,1.7,2.2,2.4c1.3,1.1,2.8,2.1,4.6,2.1h1c1.8,0,3.3-0.9,4.7-2c1.3-1,2.5-2.2,2.5-3.8
	v-1.3c0-2.3-1.8-4.1-4.1-4.9l-5.5-1.5c-1.3-0.5-2.4-1.3-2.4-2.6v-1.3c0-0.9,0.7-1.6,1.4-2.2c0.7-0.7,1.6-1.2,2.6-1.2h0.9
	c1,0,1.8,0.6,2.5,1.2c0.4,0.4,0.9,0.8,1.2,1.3l2.3-0.6c-0.5-0.8-1.2-1.4-1.9-2.1c-1.2-1.1-2.5-2.1-4.1-2.1h-0.9c-1.6,0-3,0.9-4.2,2
	c-1.1,1-2.2,2.2-2.2,3.7v1.3c0,2.3,1.8,4,4,4.8l5.5,1.5c1.3,0.5,2.4,1.4,2.4,2.6v1.3c0,1-0.8,1.7-1.6,2.4c-0.9,0.7-1.9,1.3-3,1.3h-1
	c-1.1,0-2.1-0.6-3-1.3c-0.7-0.6-1.5-1.2-1.6-2.1L223.1,181.8z"/>
</svg>
