<svg width="350" height="350" viewBox="0 0 350 350" fill="none" xmlns="http://www.w3.org/2000/svg">
<style type="text/css">
	.st0{fill-rule:evenodd;clip-rule:evenodd;fill:#5B5A7C;}
</style>
<path class="st0" d="M350,176.5l-87-0.7c0-0.3,0-0.5,0-0.8s0-0.5,0-0.8l87-0.7c0,0.5,0,1,0,1.5S350,176,350,176.5z M349.6,163.4
	c-0.1-1-0.1-2-0.2-3l-86.7,7.2c0,0.5,0.1,1,0.1,1.5L349.6,163.4z M348.3,150.4l-86.2,12.1c-0.1-0.5-0.1-1-0.2-1.5l85.9-13.6
	C348,148.4,348.1,149.4,348.3,150.4z M346,137.5l-85,18.5c-0.1-0.5-0.2-1-0.3-1.5l84.7-20C345.5,135.5,345.8,136.5,346,137.5z
	 M342.7,124.8l-83.4,24.9c-0.1-0.5-0.3-1-0.4-1.4l82.9-26.3C342.1,122.9,342.4,123.9,342.7,124.8z M338.5,112.5l-81.3,31.1
	c-0.2-0.5-0.4-0.9-0.6-1.4l80.7-32.5C337.8,110.6,338.1,111.5,338.5,112.5z M333.4,100.4l-78.7,37.1c-0.2-0.5-0.4-0.9-0.7-1.4
	l78-38.5C332.5,98.6,332.9,99.5,333.4,100.4z M327.3,88.8l-75.7,42.9c-0.2-0.4-0.5-0.9-0.8-1.3l74.9-44.2
	C326.3,87,326.8,87.9,327.3,88.8z M320.5,77.7l-72.3,48.5c-0.3-0.4-0.6-0.8-0.9-1.3l71.4-49.7C319.3,76,319.9,76.8,320.5,77.7z
	 M312.8,67.1l-68.4,53.7c-0.3-0.4-0.6-0.8-1-1.2l67.5-54.9C311.5,65.5,312.1,66.3,312.8,67.1z M304.3,57.1L240,115.7
	c-0.3-0.4-0.7-0.8-1-1.1l63.3-59.7C302.9,55.6,303.6,56.3,304.3,57.1z M295.1,47.7L235.4,111c-0.4-0.3-0.7-0.7-1.1-1l58.6-64.3
	C293.7,46.4,294.4,47.1,295.1,47.7z M285.3,39.1l-54.9,67.5c-0.4-0.3-0.8-0.6-1.2-1l53.7-68.4C283.7,37.9,284.5,38.5,285.3,39.1z
	 M274.8,31.3l-49.7,71.4c-0.4-0.3-0.8-0.6-1.3-0.9l48.5-72.3C273.2,30.1,274,30.7,274.8,31.3z M263.8,24.2l-44.2,74.9
	c-0.4-0.3-0.9-0.5-1.3-0.8l42.9-75.7C262.1,23.2,263,23.7,263.8,24.2z M252.3,18l-38.5,78c-0.5-0.2-0.9-0.4-1.4-0.7l37.1-78.7
	C250.5,17.1,251.4,17.5,252.3,18z M240.4,12.6l-32.5,80.7c-0.5-0.2-0.9-0.4-1.4-0.6l31.1-81.3C238.5,11.9,239.4,12.2,240.4,12.6z
	 M228,8.2l-26.3,82.9c-0.5-0.2-1-0.3-1.4-0.4l24.9-83.4C226.1,7.6,227.1,7.9,228,8.2z M215.4,4.7l-20,84.7c-0.5-0.1-1-0.2-1.5-0.3
	l18.5-85C213.5,4.2,214.5,4.5,215.4,4.7z M202.6,2.2L189,88.1c-0.5-0.1-1-0.2-1.5-0.2l12.1-86.2C200.6,1.9,201.6,2,202.6,2.2z
	 M189.6,0.6c-1-0.1-2-0.2-3-0.2l-5.7,86.8c0.5,0,1,0.1,1.5,0.1L189.6,0.6z M176.5,0l-0.7,87c-0.3,0-0.5,0-0.8,0s-0.5,0-0.8,0
	l-0.7-87c0.5,0,1,0,1.5,0S176,0,176.5,0z M163.4,0.4l5.7,86.8c-0.5,0-1,0.1-1.5,0.1l-7.2-86.7C161.4,0.5,162.4,0.4,163.4,0.4z
	 M150.4,1.7c-1,0.1-2,0.3-3,0.4L161,88.1c0.5-0.1,1-0.2,1.5-0.2L150.4,1.7z M137.5,4c-1,0.2-2,0.4-2.9,0.7l20,84.7
	c0.5-0.1,1-0.2,1.5-0.3L137.5,4z M124.8,7.3l24.9,83.4c-0.5,0.1-1,0.3-1.4,0.4L122,8.2C122.9,7.9,123.9,7.6,124.8,7.3z M112.5,11.5
	l31.1,81.3c-0.5,0.2-0.9,0.4-1.4,0.6l-32.5-80.7C110.6,12.2,111.5,11.9,112.5,11.5z M100.4,16.6l37.1,78.7c-0.5,0.2-0.9,0.4-1.4,0.7
	L97.7,18C98.6,17.5,99.5,17.1,100.4,16.6z M88.8,22.7l42.9,75.7c-0.4,0.2-0.9,0.5-1.3,0.8L86.2,24.2C87,23.7,87.9,23.2,88.8,22.7z
	 M77.7,29.5l48.5,72.3c-0.4,0.3-0.8,0.6-1.3,0.9L75.2,31.3C76,30.7,76.8,30.1,77.7,29.5z M67.1,37.2l53.7,68.4
	c-0.4,0.3-0.8,0.6-1.2,1L64.7,39.1C65.5,38.5,66.3,37.9,67.1,37.2z M57.1,45.7l58.6,64.3c-0.4,0.3-0.8,0.7-1.1,1L54.9,47.7
	C55.6,47.1,56.3,46.4,57.1,45.7z M47.7,54.9l63.3,59.7c-0.3,0.4-0.7,0.7-1,1.1L45.7,57.1C46.4,56.3,47.1,55.6,47.7,54.9z M39.1,64.7
	l67.5,54.9c-0.3,0.4-0.6,0.8-1,1.2L37.2,67.1C37.9,66.3,38.5,65.5,39.1,64.7z M31.3,75.2l71.4,49.7c-0.3,0.4-0.6,0.8-0.9,1.3
	L29.5,77.7C30.1,76.8,30.7,76,31.3,75.2z M24.2,86.2l74.9,44.2c-0.3,0.4-0.5,0.9-0.8,1.3L22.7,88.8C23.2,87.9,23.7,87,24.2,86.2z
	 M18,97.7l78,38.5c-0.2,0.5-0.4,0.9-0.7,1.4l-78.7-37.1C17.1,99.5,17.5,98.6,18,97.7z M12.6,109.6l80.7,32.5
	c-0.2,0.5-0.4,0.9-0.6,1.4l-81.3-31.1C11.9,111.5,12.2,110.6,12.6,109.6z M8.2,122l82.9,26.3c-0.2,0.5-0.3,1-0.4,1.4L7.3,124.8
	C7.6,123.9,7.9,122.9,8.2,122z M4.7,134.6l84.7,20c-0.1,0.5-0.2,1-0.3,1.5L4,137.5C4.2,136.5,4.5,135.5,4.7,134.6z M2.2,147.4
	L88.1,161c-0.1,0.5-0.2,1-0.2,1.5L1.7,150.4C1.9,149.4,2,148.4,2.2,147.4z M0.6,160.4c-0.1,1-0.2,2-0.2,3l86.8,5.7
	c0-0.5,0.1-1,0.1-1.5L0.6,160.4z M0,173.5c0,0.5,0,1,0,1.5s0,1,0,1.5l87-0.7c0-0.3,0-0.5,0-0.8s0-0.5,0-0.8L0,173.5z M0.4,186.6
	l86.8-5.7c0,0.5,0.1,1,0.1,1.5l-86.7,7.2C0.5,188.6,0.4,187.6,0.4,186.6z M1.7,199.6l86.2-12.1c0.1,0.5,0.1,1,0.2,1.5L2.2,202.6
	C2,201.6,1.9,200.6,1.7,199.6z M4,212.5l85-18.5c0.1,0.5,0.2,1,0.3,1.5l-84.7,20C4.5,214.5,4.2,213.5,4,212.5z M7.3,225.2
	c0.3,1,0.6,1.9,0.9,2.9l82.9-26.3c-0.2-0.5-0.3-1-0.4-1.4L7.3,225.2z M11.5,237.5l81.3-31.1c0.2,0.5,0.4,0.9,0.6,1.4l-80.7,32.5
	C12.2,239.4,11.9,238.5,11.5,237.5z M16.6,249.6l78.7-37.1c0.2,0.5,0.4,0.9,0.7,1.4l-78,38.5C17.5,251.4,17.1,250.5,16.6,249.6z
	 M22.7,261.2l75.7-42.9c0.2,0.4,0.5,0.9,0.8,1.3l-74.9,44.2C23.7,263,23.2,262.1,22.7,261.2z M29.5,272.3l72.3-48.5
	c0.3,0.4,0.6,0.8,0.9,1.3l-71.4,49.7C30.7,274,30.1,273.2,29.5,272.3z M37.2,282.9l68.4-53.7c0.3,0.4,0.6,0.8,1,1.2l-67.5,54.9
	C38.5,284.5,37.9,283.7,37.2,282.9z M45.7,292.9l64.3-58.6c0.3,0.4,0.7,0.8,1,1.1l-63.3,59.7C47.1,294.4,46.4,293.7,45.7,292.9z
	 M54.9,302.3l59.7-63.3c0.4,0.3,0.7,0.7,1.1,1l-58.6,64.3C56.3,303.6,55.6,302.9,54.9,302.3z M64.7,310.9l54.9-67.5
	c0.4,0.3,0.8,0.6,1.2,1l-53.7,68.4C66.3,312.1,65.5,311.5,64.7,310.9z M75.2,318.7l49.7-71.4c0.4,0.3,0.8,0.6,1.3,0.9l-48.5,72.3
	C76.8,319.9,76,319.3,75.2,318.7z M86.2,325.8l44.2-74.9c0.4,0.3,0.9,0.5,1.3,0.8l-42.9,75.7C87.9,326.8,87,326.3,86.2,325.8z
	 M97.7,332l38.5-78c0.5,0.2,0.9,0.4,1.4,0.7l-37.1,78.7C99.5,332.9,98.6,332.5,97.7,332z M109.6,337.4l32.5-80.7
	c0.5,0.2,0.9,0.4,1.4,0.6l-31.1,81.3C111.5,338.1,110.6,337.8,109.6,337.4z M122,341.8l26.3-82.9c0.5,0.2,1,0.3,1.4,0.4l-24.9,83.4
	C123.9,342.4,122.9,342.1,122,341.8z M134.6,345.3l20-84.7c0.5,0.1,1,0.2,1.5,0.3l-18.5,85C136.5,345.8,135.5,345.5,134.6,345.3z
	 M147.4,347.8l13.6-85.9c0.5,0.1,1,0.2,1.5,0.2l-12.1,86.2C149.4,348.1,148.4,348,147.4,347.8z M160.4,349.4l7.2-86.7
	c0.5,0,1,0.1,1.5,0.1l-5.7,86.8C162.4,349.6,161.4,349.5,160.4,349.4z M173.5,350l0.7-87c0.3,0,0.5,0,0.8,0s0.5,0,0.8,0l0.7,87
	c-0.5,0-1,0-1.5,0S174,350,173.5,350z M186.6,349.6c1-0.1,2-0.1,3-0.2l-7.2-86.7c-0.5,0-1,0.1-1.5,0.1L186.6,349.6z M199.6,348.3
	l-12.1-86.2c0.5-0.1,1-0.1,1.5-0.2l13.6,85.9C201.6,348,200.6,348.1,199.6,348.3z M212.5,346l-18.5-85c0.5-0.1,1-0.2,1.5-0.3
	l20,84.7C214.5,345.5,213.5,345.8,212.5,346z M225.2,342.7l-24.9-83.4c0.5-0.1,1-0.3,1.4-0.4l26.3,82.9
	C227.1,342.1,226.1,342.4,225.2,342.7z M237.5,338.5l-31.1-81.3c0.5-0.2,0.9-0.4,1.4-0.6l32.5,80.7
	C239.4,337.8,238.5,338.1,237.5,338.5z M249.6,333.4l-37.1-78.7c0.5-0.2,0.9-0.4,1.4-0.7l38.5,78
	C251.4,332.5,250.5,332.9,249.6,333.4z M261.2,327.3l-42.9-75.7c0.4-0.2,0.9-0.5,1.3-0.8l44.2,74.9
	C263,326.3,262.1,326.8,261.2,327.3z M272.3,320.5c0.8-0.6,1.7-1.1,2.5-1.7l-49.7-71.4c-0.4,0.3-0.8,0.6-1.3,0.9L272.3,320.5z
	 M282.9,312.8l-53.7-68.4c0.4-0.3,0.8-0.6,1.2-1l54.9,67.5C284.5,311.5,283.7,312.1,282.9,312.8z M292.9,304.3L234.3,240
	c0.4-0.3,0.8-0.7,1.1-1l59.7,63.3C294.4,302.9,293.7,303.6,292.9,304.3z M302.3,295.1L239,235.4c0.3-0.4,0.7-0.7,1-1.1l64.3,58.6
	C303.6,293.7,302.9,294.4,302.3,295.1z M310.9,285.3l-67.5-54.9c0.3-0.4,0.6-0.8,1-1.2l68.4,53.7
	C312.1,283.7,311.5,284.5,310.9,285.3z M318.7,274.8l-71.4-49.7c0.3-0.4,0.6-0.8,0.9-1.3l72.3,48.5
	C319.9,273.2,319.3,274,318.7,274.8z M325.8,263.8l-74.9-44.2c0.3-0.4,0.5-0.9,0.8-1.3l75.7,42.9C326.8,262.1,326.3,263,325.8,263.8
	z M332,252.3l-78-38.5c0.2-0.5,0.4-0.9,0.7-1.4l78.7,37.1C332.9,250.5,332.5,251.4,332,252.3z M337.4,240.4l-80.7-32.5
	c0.2-0.5,0.4-0.9,0.6-1.4l81.3,31.1C338.1,238.5,337.8,239.4,337.4,240.4z M341.8,228l-82.9-26.3c0.2-0.5,0.3-1,0.4-1.4l83.4,24.9
	C342.4,226.1,342.1,227.1,341.8,228z M345.3,215.4l-84.7-20c0.1-0.5,0.2-1,0.3-1.5l85,18.5C345.8,213.5,345.5,214.5,345.3,215.4z
	 M347.8,202.6L261.9,189c0.1-0.5,0.2-1,0.2-1.5l86.2,12.1C348.1,200.6,348,201.6,347.8,202.6z M349.4,189.6l-86.7-7.2
	c0-0.5,0.1-1,0.1-1.5l86.8,5.7C349.6,187.6,349.5,188.6,349.4,189.6z"/>
</svg>
