<?xml version="1.0" encoding="utf-8"?>
<!-- Generator: Adobe Illustrator 23.0.1, SVG Export Plug-In . SVG Version: 6.00 Build 0)  -->
<svg version="1.1" id="Layer_1" xmlns="http://www.w3.org/2000/svg" xmlns:xlink="http://www.w3.org/1999/xlink" x="0px" y="0px"
	 viewBox="0 0 181 181" style="enable-background:new 0 0 181 181;" xml:space="preserve">
<style type="text/css">
	.st0{fill:#5B5A7C;}
</style>
<path class="st0" d="M22.5,102h12.6v-2.3H25v-9.4h8.9V88H25v-6.3h10.1v-2.2H22.5V102z"/>
<path class="st0" d="M38.8,102h2.5V85.3l7.4,16.7h2.5l7.3-16.7V102H61V79.5h-2.5l-8.6,19.4l-8.6-19.4h-2.5V102z"/>
<path class="st0" d="M63.8,102h2.4l2.5-7h8.6l2.5,7h2.7l-8.1-22.5h-2.5L63.8,102z M76.6,92.8h-7l3.5-9.7L76.6,92.8z"/>
<path class="st0" d="M85.7,102h2.5V79.5h-2.5V102z"/>
<path class="st0" d="M93.4,102H106v-2.3H95.9V79.5h-2.5V102z"/>
<path class="st0" d="M120,102h2.5V85.3l7.4,16.7h2.5l7.4-16.7V102h2.5V79.5h-2.5l-8.6,19.4l-8.7-19.4H120V102z"/>
<path class="st0" d="M147.1,102h12.6v-2.3h-10.1v-9.4h8.9V88h-8.9v-6.3h10.1v-2.2h-12.6V102z"/>
</svg>
