<svg width="26" height="12" viewBox="0 0 26 12" fill="none" xmlns="http://www.w3.org/2000/svg">
<path d="M10.0576 8.76514L9.09467 8.14786C8.84775 8.62934 8.45269 9.07378 8.06997 9.48119C7.41565 10.1726 6.68726 10.8639 5.73664 10.8639H4.92183C3.97121 10.8639 3.24281 10.1726 2.58849 9.48119C1.92183 8.77749 1.2675 7.98736 1.2675 7.0244V5.56761C1.2675 4.60465 1.92183 3.81453 2.58849 3.11082C3.24281 2.41946 3.97121 1.7281 4.92183 1.7281H5.73664C6.68726 1.7281 7.41565 2.41946 8.06997 3.11082C8.45269 3.51823 8.84775 3.96267 9.09467 4.44415L10.0576 3.82687C9.73664 3.30835 9.2922 2.83922 8.8601 2.39477C7.98355 1.50588 6.98355 0.616994 5.73664 0.616994H4.92183C3.67491 0.616994 2.67491 1.50588 1.79837 2.39477C0.90948 3.29601 0.0452822 4.30835 0.0452822 5.56761V7.0244C0.0452822 8.28366 0.90948 9.29601 1.79837 10.1972C2.67491 11.0861 3.67491 11.975 4.92183 11.975H5.73664C6.98355 11.975 7.98355 11.0861 8.8601 10.1972C9.2922 9.7528 9.73664 9.28366 10.0576 8.76514ZM12.9504 10.259C12.7528 10.259 12.5923 10.3948 12.4442 10.5429C12.2961 10.6911 12.1479 10.8639 12.1479 11.0614C12.1479 11.259 12.2961 11.4195 12.4442 11.5676C12.5923 11.7158 12.7528 11.8516 12.9504 11.8516C13.1479 11.8516 13.3084 11.7158 13.4565 11.5676C13.6047 11.4195 13.7405 11.259 13.7405 11.0614C13.7405 10.8639 13.6047 10.6911 13.4565 10.5429C13.3084 10.3948 13.1479 10.259 12.9504 10.259ZM15.0892 0.740451L18.8669 11.8516H20.1015L23.8916 0.740451H22.6694L19.5213 9.97502L16.3855 0.740451H15.0892ZM24.7294 10.259C24.5319 10.259 24.3714 10.3948 24.2232 10.5429C24.0751 10.6911 23.9269 10.8639 23.9269 11.0614C23.9269 11.259 24.0751 11.4195 24.2232 11.5676C24.3714 11.7158 24.5319 11.8516 24.7294 11.8516C24.9269 11.8516 25.0874 11.7158 25.2356 11.5676C25.3837 11.4195 25.5195 11.259 25.5195 11.0614C25.5195 10.8639 25.3837 10.6911 25.2356 10.5429C25.0874 10.3948 24.9269 10.259 24.7294 10.259Z" fill="#6262F4"/>
</svg>
