<?xml version="1.0" encoding="utf-8"?>
<!-- Generator: Adobe Illustrator 23.0.1, SVG Export Plug-In . SVG Version: 6.00 Build 0)  -->
<svg version="1.1" id="Layer_1" xmlns="http://www.w3.org/2000/svg" xmlns:xlink="http://www.w3.org/1999/xlink" x="0px" y="0px"
	 viewBox="0 0 181 181" style="enable-background:new 0 0 181 181;" xml:space="preserve">
<style type="text/css">
	.st0{fill-rule:evenodd;clip-rule:evenodd;fill:#9F9FD6;}
</style>
<path class="st0" d="M176.5,118.6l-57-18.6c0.1-0.2,0.1-0.4,0.2-0.6s0.1-0.4,0.2-0.6l57.7,16.6c-0.2,0.5-0.3,1.1-0.5,1.6
	C176.9,117.6,176.7,118.1,176.5,118.6z M179.1,71.8l-58.7,12.4c-0.1-0.4-0.2-0.7-0.3-1.1l58.2-14.6
	C178.6,69.7,178.8,70.7,179.1,71.8z M157.9,30l-44.7,40c-0.2-0.3-0.5-0.5-0.8-0.8l43.2-41.6C156.4,28.4,157.1,29.2,157.9,30z
	 M118.6,4.5l-18.6,57c-0.2-0.1-0.4-0.1-0.6-0.2c-0.2-0.1-0.4-0.1-0.6-0.2l16.6-57.6c0.5,0.2,1.1,0.3,1.6,0.5
	C117.6,4.1,118.1,4.3,118.6,4.5z M71.8,1.9l12.4,58.7c-0.4,0.1-0.7,0.2-1.1,0.3L68.6,2.7C69.7,2.4,70.7,2.2,71.8,1.9z M30,23.1
	l40,44.7c-0.3,0.2-0.5,0.5-0.8,0.8L27.6,25.4C28.4,24.6,29.2,23.9,30,23.1z M4.5,62.4C4.3,62.9,4.2,63.5,4,64
	c-0.2,0.5-0.3,1-0.5,1.6l57.7,16.6c0.1-0.2,0.1-0.4,0.2-0.6c0.1-0.2,0.1-0.4,0.2-0.6L4.5,62.4z M1.9,109.2l58.7-12.4
	c0.1,0.4,0.2,0.7,0.3,1.1L2.7,112.4C2.4,111.3,2.2,110.3,1.9,109.2z M23.1,151l44.7-40c0.2,0.3,0.5,0.5,0.8,0.8l-43.2,41.6
	C24.6,152.6,23.9,151.8,23.1,151z M62.4,176.5l18.6-57c0.2,0.1,0.4,0.1,0.6,0.2s0.4,0.1,0.6,0.2l-16.6,57.6
	c-0.5-0.2-1.1-0.3-1.6-0.5C63.4,176.9,62.9,176.7,62.4,176.5z M109.2,179.1l-12.4-58.7c0.4-0.1,0.7-0.2,1.1-0.3l14.6,58.2
	C111.3,178.6,110.3,178.8,109.2,179.1z M151,157.9l-40-44.7c0.3-0.2,0.5-0.5,0.8-0.8l41.6,43.2C152.6,156.4,151.8,157.1,151,157.9z"
	/>
</svg>
