<svg width="150" height="150" viewBox="0 0 243 243" fill="none" xmlns="http://www.w3.org/2000/svg" id="sticker-email">
<circle cx="121.5" cy="121.5" r="121.5" fill="url(#paint0_linear)"/>
<circle cx="121.5" cy="121.5" r="121" stroke="#6262F4" stroke-dasharray="10 10"/>
<path d="M79.2782 129H87.1662V128.136H80.1422V121.368H86.7342V120.504H80.1422V115.464H87.1662V114.6H79.2782V129ZM89.4657 129H90.3297V114.824L95.5457 129H97.3217L102.538 114.824V129H103.402V114.6H101.626L96.4257 128.712L91.2417 114.6H89.4657V129ZM105.122 129H106.05L107.986 123.416H114.034L115.97 129H116.882L111.89 114.6H110.114L105.122 129ZM113.73 122.552H108.29L111.01 114.696L113.73 122.552ZM118.83 129H119.694V114.6H118.83V129ZM122.981 129H130.869V128.136H123.845V114.6H122.981V129ZM139.622 129H140.486V114.824L145.702 129H147.478L152.694 114.824V129H153.558V114.6H151.782L146.582 128.712L141.398 114.6H139.622V129ZM156.606 129H164.494V128.136H157.47V121.368H164.062V120.504H157.47V115.464H164.494V114.6H156.606V129Z" fill="#6262F4"/>
<defs>
<linearGradient id="paint0_linear" x1="121.5" y1="0" x2="121.5" y2="243" gradientUnits="userSpaceOnUse">
<stop stop-color="#6F9AAD" stop-opacity="0.5"/>
<stop offset="1" stop-color="#C4C4C4" stop-opacity="0"/>
</linearGradient>
</defs>
</svg>
