<svg width="120" height="120" viewBox="0 0 243 243" fill="none" xmlns="http://www.w3.org/2000/svg" id='sticker-email'>
<circle cx="121.5" cy="121.5" r="91.5" stroke="#6262F4" stroke-opacity="0.5" stroke-width="60" stroke-dasharray="3 40"/>
<path d="M53.5032 133H66.1032V130.75H55.9782V121.3H64.8782V119.05H55.9782V112.75H66.1032V110.5H53.5032V133ZM69.7874 133H72.2624V116.325L79.6374 133H82.1374L89.5124 116.325V133H91.9874V110.5H89.4874L80.8874 129.925L72.2874 110.5H69.7874V133ZM94.8114 133H97.2364L99.7614 126.025H108.386L110.911 133H113.536L105.436 110.5H102.936L94.8114 133ZM107.586 123.775H100.561L104.061 114.05L107.586 123.775ZM116.695 133H119.17V110.5H116.695V133ZM124.426 133H137.026V130.75H126.901V110.5H124.426V133ZM150.989 133H153.464V116.325L160.839 133H163.339L170.714 116.325V133H173.189V110.5H170.689L162.089 129.925L153.489 110.5H150.989V133ZM178.113 133H190.713V130.75H180.588V121.3H189.488V119.05H180.588V112.75H190.713V110.5H178.113V133Z" fill="#6262F4"/>
</svg>
