<svg width="350" height="350" viewBox="0 0 350 350" fill="none" xmlns="http://www.w3.org/2000/svg">
<circle cx="175" cy="175" r="145" stroke="#6262F4" stroke-opacity="0.5" stroke-width="60" stroke-dasharray="3 20"/>
<path d="M125.762 115.775C126.237 116.7 127.137 117.45 127.987 118.15C129.312 119.25 130.812 120.25 132.537 120.25H133.562C135.312 120.25 136.862 119.325 138.212 118.225C139.462 117.2 140.687 116 140.687 114.4V113.15C140.687 110.85 138.837 109.075 136.637 108.25L131.112 106.775C129.862 106.3 128.687 105.475 128.687 104.2V102.9C128.687 102 129.337 101.275 130.037 100.675C130.762 100.025 131.637 99.5 132.612 99.5H133.487C134.462 99.5 135.287 100.1 136.012 100.725C136.437 101.1 136.887 101.5 137.162 101.975L139.462 101.375C139.012 100.6 138.287 99.925 137.587 99.3C136.412 98.25 135.062 97.25 133.487 97.25H132.612C131.012 97.25 129.637 98.175 128.437 99.225C127.312 100.225 126.212 101.4 126.212 102.9V104.2C126.212 106.475 128.062 108.2 130.262 109.025L135.787 110.5C137.037 110.975 138.212 111.85 138.212 113.15V114.4C138.212 115.4 137.387 116.125 136.587 116.75C135.687 117.45 134.687 118 133.562 118H132.537C131.437 118 130.437 117.375 129.562 116.7C128.837 116.125 128.037 115.5 127.912 114.65L125.762 115.775ZM155.275 99.5C157.2 99.5 158.675 100.9 160 102.3C161.35 103.725 162.675 105.325 162.675 107.275V110.225C162.675 112.175 161.35 113.775 160 115.2C158.675 116.6 157.2 118 155.275 118H153.625C151.7 118 150.225 116.6 148.9 115.2C147.55 113.775 146.225 112.175 146.225 110.225V107.275C146.225 105.325 147.55 103.725 148.9 102.3C150.225 100.9 151.7 99.5 153.625 99.5H155.275ZM155.275 97.25H153.625C151.1 97.25 149.075 99.05 147.3 100.85C145.5 102.675 143.75 104.725 143.75 107.275V110.225C143.75 112.775 145.5 114.825 147.3 116.65C149.075 118.45 151.1 120.25 153.625 120.25H155.275C157.8 120.25 159.825 118.45 161.6 116.65C163.4 114.825 165.15 112.775 165.15 110.225V107.275C165.15 104.725 163.4 102.675 161.6 100.85C159.825 99.05 157.8 97.25 155.275 97.25ZM169.162 120H171.637V109.575H175.687L181.312 120H184.237L178.212 109.225C179.187 108.85 180.047 108.275 180.937 107.625C182.187 106.7 183.537 105.675 183.537 104.15V102.925C183.537 101.4 182.187 100.375 180.937 99.45C179.562 98.425 178.037 97.5 176.312 97.5H169.162V120ZM171.637 99.75H176.312C177.412 99.75 178.412 100.275 179.337 100.9C180.137 101.425 181.062 102.025 181.062 102.925V104.15C181.062 105.05 180.137 105.65 179.337 106.175C178.412 106.8 177.412 107.325 176.312 107.325H171.637V99.75ZM186.838 120H189.313V109.575H193.363L198.988 120H201.913L195.888 109.225C196.863 108.85 197.763 108.275 198.613 107.625C199.863 106.7 201.213 105.675 201.213 104.15V102.925C201.213 101.4 199.863 100.375 198.613 99.45C197.238 98.425 195.713 97.5 193.988 97.5H186.838V120ZM189.313 99.75H193.988C195.048 99.75 196.048 100.275 197.013 100.9C197.813 101.425 198.738 102.025 198.738 102.925V104.15C198.738 105.05 197.813 105.65 197.013 106.175C196.048 106.8 195.048 107.325 193.988 107.325H189.313V99.75ZM202.263 97.5L209.938 110.125V120H212.413V110.125L220.048 97.5H217.313L211.238 107.5L205.138 97.5H202.263ZM219.936 117.075L217.186 124.4H219.211L222.661 117.075H219.936ZM101.873 148.775C102.348 149.7 103.248 150.45 104.098 151.15C105.423 152.25 106.923 153.25 108.648 153.25H109.673C111.423 153.25 112.973 152.325 114.323 151.225C115.573 150.2 116.798 149 116.798 147.4V146.15C116.798 143.85 114.948 142.075 112.748 141.25L107.223 139.775C105.973 139.3 104.798 138.475 104.798 137.2V135.9C104.798 135 105.448 134.275 106.148 133.675C106.873 133.025 107.748 132.5 108.723 132.5H109.598C110.573 132.5 111.398 133.1 112.123 133.725C112.548 134.1 112.998 134.5 113.273 134.975L115.573 134.375C115.123 133.6 114.398 132.925 113.698 132.3C112.523 131.25 111.173 130.25 109.598 130.25H108.723C107.123 130.25 105.748 131.175 104.548 132.225C103.423 133.225 102.323 134.4 102.323 135.9V137.2C102.323 139.475 104.173 141.2 106.373 142.025L111.898 143.5C113.148 143.975 114.323 144.85 114.323 146.15V147.4C114.323 148.4 113.498 149.125 112.698 149.75C111.798 150.45 110.798 151 109.673 151H108.648C107.548 151 106.548 150.375 105.673 149.7C104.948 149.125 104.148 148.5 104.023 147.65L101.873 148.775ZM120.761 153H123.236V141.3H134.361V153H136.836V130.5H134.361V139.05H123.236V130.5H120.761V153ZM139.657 153H142.042L144.607 146.025H153.232L155.757 153H158.382L150.282 130.5H147.782L139.657 153ZM152.432 143.775H145.407L148.907 134.05L152.432 143.775ZM161.191 153H163.666V134.825L175.666 153H178.166V130.5H175.691V148.675L163.691 130.5H161.191V153ZM183.066 153H185.541V134.825L197.541 153H200.041V130.5H197.566V148.675L185.566 130.5H183.066V153ZM215.566 132.5C217.491 132.5 218.966 133.9 220.291 135.3C221.641 136.725 222.966 138.325 222.966 140.275V143.225C222.966 145.175 221.641 146.775 220.291 148.2C218.966 149.6 217.491 151 215.566 151H213.916C211.991 151 210.516 149.6 209.191 148.2C207.841 146.775 206.516 145.175 206.516 143.225V140.275C206.516 138.325 207.841 136.725 209.191 135.3C210.516 133.9 211.991 132.5 213.916 132.5H215.566ZM215.566 130.25H213.916C211.391 130.25 209.366 132.05 207.591 133.85C205.791 135.675 204.041 137.725 204.041 140.275V143.225C204.041 145.775 205.791 147.825 207.591 149.65C209.366 151.45 211.391 153.25 213.916 153.25H215.566C218.091 153.25 220.116 151.45 221.891 149.65C223.691 147.825 225.441 145.775 225.441 143.225V140.275C225.441 137.725 223.691 135.675 221.891 133.85C220.116 132.05 218.091 130.25 215.566 130.25ZM229.452 153H231.927V134.825L243.927 153H246.427V130.5H243.952V148.675L231.952 130.5H229.452V153ZM111.606 186H114.041V174.3H125.206V186H127.681V163.5H125.206V172.05H114.041V163.5H111.606V186ZM130.502 186H132.927L135.452 179.025H144.077L146.602 186H149.227L141.127 163.5H138.627L130.502 186ZM143.277 176.775H136.252L139.752 167.05L143.277 176.775ZM151.335 181.775C151.81 182.7 152.71 183.45 153.56 184.15C154.885 185.25 156.385 186.25 158.11 186.25H159.135C160.885 186.25 162.435 185.325 163.785 184.225C165.035 183.2 166.26 182 166.26 180.4V179.15C166.26 176.85 164.41 175.075 162.21 174.25L156.685 172.775C155.435 172.3 154.26 171.475 154.26 170.2V168.9C154.26 168 154.91 167.275 155.61 166.675C156.335 166.025 157.21 165.5 158.185 165.5H159.06C160.035 165.5 160.86 166.1 161.585 166.725C162.01 167.1 162.46 167.5 162.735 167.975L165.035 167.375C164.585 166.6 163.86 165.925 163.16 165.3C161.985 164.25 160.635 163.25 159.06 163.25H158.185C156.585 163.25 155.21 164.175 154.01 165.225C152.885 166.225 151.785 167.4 151.785 168.9V170.2C151.785 172.475 153.635 174.2 155.835 175.025L161.36 176.5C162.61 176.975 163.785 177.85 163.785 179.15V180.4C163.785 181.4 162.96 182.125 162.16 182.75C161.26 183.45 160.26 184 159.135 184H158.11C157.01 184 156.01 183.375 155.135 182.7C154.41 182.125 153.61 181.5 153.485 180.65L151.335 181.775ZM180.698 186H183.173V167.825L195.173 186H197.673V163.5H195.198V181.675L183.198 163.5H180.698V186ZM213.198 165.5C215.123 165.5 216.598 166.9 217.923 168.3C219.273 169.725 220.598 171.325 220.598 173.275V176.225C220.598 178.175 219.273 179.775 217.923 181.2C216.598 182.6 215.123 184 213.198 184H211.548C209.623 184 208.148 182.6 206.823 181.2C205.473 179.775 204.148 178.175 204.148 176.225V173.275C204.148 171.325 205.473 169.725 206.823 168.3C208.148 166.9 209.623 165.5 211.548 165.5H213.198ZM213.198 163.25H211.548C209.023 163.25 206.998 165.05 205.223 166.85C203.423 168.675 201.673 170.725 201.673 173.275V176.225C201.673 178.775 203.423 180.825 205.223 182.65C206.998 184.45 209.023 186.25 211.548 186.25H213.198C215.723 186.25 217.748 184.45 219.523 182.65C221.323 180.825 223.073 178.775 223.073 176.225V173.275C223.073 170.725 221.323 168.675 219.523 166.85C217.748 165.05 215.723 163.25 213.198 163.25ZM223.855 165.75H230.58V186H233.055V165.75H239.755V163.5H223.855V165.75ZM102.347 198.75H109.072V219H111.547V198.75H118.247V196.5H102.347V198.75ZM120.785 219H123.26V207.3H134.385V219H136.86V196.5H134.385V205.05H123.26V196.5H120.785V219ZM152.407 198.5C154.332 198.5 155.807 199.9 157.132 201.3C158.482 202.725 159.807 204.325 159.807 206.275V209.225C159.807 211.175 158.482 212.775 157.132 214.2C155.807 215.6 154.332 217 152.407 217H150.757C148.832 217 147.357 215.6 146.032 214.2C144.682 212.775 143.357 211.175 143.357 209.225V206.275C143.357 204.325 144.682 202.725 146.032 201.3C147.357 199.9 148.832 198.5 150.757 198.5H152.407ZM152.407 196.25H150.757C148.232 196.25 146.207 198.05 144.432 199.85C142.632 201.675 140.882 203.725 140.882 206.275V209.225C140.882 211.775 142.632 213.825 144.432 215.65C146.207 217.45 148.232 219.25 150.757 219.25H152.407C154.932 219.25 156.957 217.45 158.732 215.65C160.532 213.825 162.282 211.775 162.282 209.225V206.275C162.282 203.725 160.532 201.675 158.732 199.85C156.957 198.05 154.932 196.25 152.407 196.25ZM182.268 196.5H179.793V212.35C179.793 213.55 178.893 214.5 177.993 215.325C177.068 216.175 176.043 217 174.793 217H173.668C172.418 217 171.393 216.175 170.468 215.325C169.568 214.5 168.668 213.55 168.668 212.35V196.5H166.193V212.35C166.193 214.15 167.568 215.55 168.893 216.775C170.268 218.05 171.793 219.25 173.668 219.25H174.793C176.668 219.25 178.193 218.05 179.568 216.775C180.893 215.55 182.268 214.15 182.268 212.35V196.5ZM207.594 219V205.05H196.894V207.3H205.119V210.775C205.119 212.45 203.744 213.675 202.444 214.75C201.069 215.9 199.519 217 197.719 217H196.069C194.144 217 192.669 215.6 191.344 214.2C189.994 212.775 188.669 211.175 188.669 209.225V206.275C188.669 204.325 189.994 202.725 191.344 201.3C192.669 199.9 194.144 198.5 196.069 198.5H197.719C199.644 198.5 201.119 199.9 202.444 201.3C202.969 201.85 203.494 202.45 203.944 203.075L205.669 201.675C205.169 201.05 204.619 200.425 204.044 199.85C202.269 198.05 200.244 196.25 197.719 196.25H196.069C193.544 196.25 191.519 198.05 189.744 199.85C187.944 201.675 186.194 203.725 186.194 206.275V209.225C186.194 211.775 187.944 213.825 189.744 215.65C191.519 217.45 193.544 219.25 196.069 219.25H197.719C199.919 219.25 201.669 217.725 203.244 216.2C203.919 215.55 204.569 214.875 205.119 214.125V219H207.594ZM212.118 219H214.593V207.3H225.718V219H228.193V196.5H225.718V205.05H214.593V196.5H212.118V219ZM230.765 198.75H237.49V219H239.965V198.75H246.665V196.5H230.765V198.75ZM97.2918 231.5C99.2168 231.5 100.692 232.9 102.017 234.3C103.367 235.725 104.692 237.325 104.692 239.275V242.225C104.692 244.175 103.367 245.775 102.017 247.2C100.692 248.6 99.2168 250 97.2918 250H95.6418C93.7168 250 92.2418 248.6 90.9168 247.2C89.5668 245.775 88.2418 244.175 88.2418 242.225V239.275C88.2418 237.325 89.5668 235.725 90.9168 234.3C92.2418 232.9 93.7168 231.5 95.6418 231.5H97.2918ZM97.2918 229.25H95.6418C93.1168 229.25 91.0918 231.05 89.3168 232.85C87.5168 234.675 85.7668 236.725 85.7668 239.275V242.225C85.7668 244.775 87.5168 246.825 89.3168 248.65C91.0918 250.45 93.1168 252.25 95.6418 252.25H97.2918C99.8168 252.25 101.842 250.45 103.617 248.65C105.417 246.825 107.167 244.775 107.167 242.225V239.275C107.167 236.725 105.417 234.675 103.617 232.85C101.842 231.05 99.8168 229.25 97.2918 229.25ZM111.179 252H113.654V240.3H122.554V238.05H113.654V231.75H123.779V229.5H111.179V252ZM135.049 231.75H141.774V252H144.249V231.75H150.949V229.5H135.049V231.75ZM153.488 252H155.963V240.3H167.048V252H169.563V229.5H167.048V238.05H155.963V229.5H153.488V252ZM174.834 252H177.309V229.5H174.834V252ZM181.865 247.775C182.34 248.7 183.24 249.45 184.09 250.15C185.415 251.25 186.915 252.25 188.64 252.25H189.665C191.415 252.25 192.965 251.325 194.315 250.225C195.565 249.2 196.79 248 196.79 246.4V245.15C196.79 242.85 194.94 241.075 192.74 240.25L187.215 238.775C185.965 238.3 184.79 237.475 184.79 236.2V234.9C184.79 234 185.44 233.275 186.14 232.675C186.865 232.025 187.74 231.5 188.715 231.5H189.59C190.565 231.5 191.39 232.1 192.115 232.725C192.54 233.1 192.99 233.5 193.265 233.975L195.565 233.375C195.115 232.6 194.39 231.925 193.69 231.3C192.515 230.25 191.165 229.25 189.59 229.25H188.715C187.115 229.25 185.74 230.175 184.54 231.225C183.415 232.225 182.315 233.4 182.315 234.9V236.2C182.315 238.475 184.165 240.2 186.365 241.025L191.89 242.5C193.14 242.975 194.315 243.85 194.315 245.15V246.4C194.315 247.4 193.49 248.125 192.69 248.75C191.79 249.45 190.79 250 189.665 250H188.64C187.54 250 186.54 249.375 185.665 248.7C184.94 248.125 184.14 247.5 184.015 246.65L181.865 247.775ZM208.977 229.5L216.652 242.125V252H219.127V242.125L226.802 229.5H224.027L217.952 239.5L211.852 229.5H208.977ZM229.416 252H242.016V249.75H231.891V240.3H240.791V238.05H231.891V231.75H242.016V229.5H229.416V252ZM243.35 231.75H250.075V252H252.55V231.75H259.25V229.5H243.35V231.75ZM260.752 248.775C260.352 248.775 260.027 249.05 259.727 249.35C259.427 249.65 259.127 250 259.127 250.4C259.127 250.8 259.427 251.125 259.727 251.425C260.027 251.725 260.352 252 260.752 252C261.152 252 261.477 251.725 261.777 251.425C262.077 251.125 262.352 250.8 262.352 250.4C262.352 250 262.077 249.65 261.777 249.35C261.477 249.05 261.152 248.775 260.752 248.775Z" fill="#6262F4"/>
</svg>
