<?xml version="1.0" encoding="utf-8"?>
<!-- Generator: Adobe Illustrator 23.0.1, SVG Export Plug-In . SVG Version: 6.00 Build 0)  -->
<svg version="1.1" id="Layer_1" xmlns="http://www.w3.org/2000/svg" xmlns:xlink="http://www.w3.org/1999/xlink" x="0px" y="0px"
	 viewBox="0 0 181 181" style="enable-background:new 0 0 181 181;" xml:space="preserve">
<style type="text/css">
	.st0{fill:#5B5A7C;}
</style>
<path class="st0" d="M30.8,77.8h6.7V98H40V77.8h6.7v-2.3H30.8V77.8z"/>
<path class="st0" d="M47.2,75.5L55,98h2.5l3-8.5l3,8.5h2.5l7.9-22.5h-2.5l-6.5,18.8l-3-8.5l3.6-10.3h-2.5l-2.4,6.8l-2.4-6.8h-2.6
	L59.2,86l-2.9,8.3l-6.5-18.8H47.2z"/>
<path class="st0" d="M76.9,98h2.5V75.5h-2.5V98z"/>
<path class="st0" d="M82.3,77.8H89V98h2.5V77.8h6.7v-2.3H82.3V77.8z"/>
<path class="st0" d="M100.1,77.8h6.7V98h2.5V77.8h6.7v-2.3h-15.9V77.8z"/>
<path class="st0" d="M118.6,98h12.6v-2.3h-10.1v-9.4h8.9v-2.3h-8.9v-6.3h10.1v-2.3h-12.6V98z"/>
<path class="st0" d="M134.9,98h2.5V87.6h4.1L147,98h2.9l-6-10.8c1-0.4,1.9-0.9,2.7-1.6c1.3-0.9,2.6-1.9,2.6-3.5v-1.2
	c0-1.5-1.3-2.6-2.6-3.5c-1.4-1-2.9-1.9-4.6-1.9h-7.2V98z M137.3,77.8h4.7c1.1,0,2.1,0.5,3,1.2c0.8,0.5,1.7,1.1,1.7,2v1.2
	c0,0.9-0.9,1.5-1.7,2c-0.9,0.6-1.9,1.1-3,1.1h-4.7V77.8z"/>
</svg>
