<svg width="389" height="389" viewBox="0 0 389 389" fill="none" xmlns="http://www.w3.org/2000/svg">
<circle cx="194.5" cy="194.5" r="194.5" fill="url(#paint0_linear)"/>
<circle cx="194.5" cy="194.5" r="99" stroke="#6262F4" stroke-width="191" stroke-dasharray="0.5 10"/>
<path d="M153.581 191.296C153.885 191.888 154.461 192.368 155.005 192.816C155.853 193.52 156.813 194.16 157.917 194.16H158.573C159.693 194.16 160.685 193.568 161.549 192.864C162.349 192.208 163.133 191.44 163.133 190.416V189.616C163.133 188.144 161.949 187.008 160.541 186.48L157.005 185.536C156.205 185.232 155.453 184.704 155.453 183.888V183.056C155.453 182.48 155.869 182.016 156.317 181.632C156.781 181.216 157.341 180.88 157.965 180.88H158.525C159.149 180.88 159.677 181.264 160.141 181.664C160.413 181.904 160.701 182.16 160.877 182.464L162.349 182.08C162.061 181.584 161.597 181.152 161.149 180.752C160.397 180.08 159.533 179.44 158.525 179.44H157.965C156.941 179.44 156.061 180.032 155.293 180.704C154.573 181.344 153.869 182.096 153.869 183.056V183.888C153.869 185.344 155.053 186.448 156.461 186.976L159.997 187.92C160.797 188.224 161.549 188.784 161.549 189.616V190.416C161.549 191.056 161.021 191.52 160.509 191.92C159.933 192.368 159.293 192.72 158.573 192.72H157.917C157.213 192.72 156.573 192.32 156.013 191.888C155.549 191.52 155.037 191.12 154.957 190.576L153.581 191.296ZM164.166 181.04H168.47V194H170.054V181.04H174.342V179.6H164.166V181.04ZM186.19 179.6H184.606V189.744C184.606 190.512 184.03 191.12 183.454 191.648C182.862 192.192 182.206 192.72 181.406 192.72H180.686C179.886 192.72 179.23 192.192 178.638 191.648C178.062 191.12 177.486 190.512 177.486 189.744V179.6H175.902V189.744C175.902 190.896 176.782 191.792 177.63 192.576C178.51 193.392 179.486 194.16 180.686 194.16H181.406C182.606 194.16 183.582 193.392 184.462 192.576C185.31 191.792 186.19 190.896 186.19 189.744V179.6ZM189.279 194H194.287C195.903 194 197.215 192.88 198.383 191.744C199.535 190.608 200.687 189.344 200.687 187.728V185.872C200.687 184.256 199.535 182.992 198.383 181.856C197.215 180.72 195.903 179.6 194.287 179.6H189.279V194ZM190.863 192.56V181.04H194.287C195.519 181.04 196.511 181.904 197.375 182.784C198.255 183.664 199.103 184.64 199.103 185.872V187.728C199.103 188.96 198.255 189.936 197.375 190.816C196.511 191.696 195.519 192.56 194.287 192.56H190.863ZM203.388 194H211.452V192.56H204.972V186.512H210.668V185.072H204.972V181.04H211.452V179.6H203.388V194ZM213.81 194H215.394V182.368L223.074 194H224.674V179.6H223.09V191.232L215.41 179.6H213.81V194ZM226.306 181.04H230.61V194H232.194V181.04H236.482V179.6H226.306V181.04ZM140.631 213H142.215V206.328H144.807L148.407 213H150.279L146.423 206.104C147.047 205.864 147.623 205.496 148.167 205.08C148.967 204.488 149.831 203.832 149.831 202.856V202.072C149.831 201.096 148.967 200.44 148.167 199.848C147.286 199.192 146.311 198.6 145.207 198.6H140.631V213ZM142.215 200.04H145.207C145.911 200.04 146.551 200.376 147.142 200.776C147.655 201.112 148.247 201.496 148.247 202.072V202.856C148.247 203.432 147.655 203.816 147.142 204.152C146.551 204.552 145.911 204.888 145.207 204.888H142.215V200.04ZM151.943 213H160.007V211.56H153.527V205.512H159.223V204.072H153.527V200.04H160.007V198.6H151.943V213ZM161.917 210.296C162.221 210.888 162.797 211.368 163.341 211.816C164.189 212.52 165.149 213.16 166.253 213.16H166.909C168.029 213.16 169.021 212.568 169.885 211.864C170.685 211.208 171.469 210.44 171.469 209.416V208.616C171.469 207.144 170.285 206.008 168.877 205.48L165.341 204.536C164.541 204.232 163.789 203.704 163.789 202.888V202.056C163.789 201.48 164.205 201.016 164.653 200.632C165.117 200.216 165.677 199.88 166.301 199.88H166.861C167.485 199.88 168.013 200.264 168.477 200.664C168.749 200.904 169.037 201.16 169.213 201.464L170.685 201.08C170.397 200.584 169.933 200.152 169.485 199.752C168.733 199.08 167.869 198.44 166.861 198.44H166.301C165.277 198.44 164.397 199.032 163.629 199.704C162.909 200.344 162.205 201.096 162.205 202.056V202.888C162.205 204.344 163.389 205.448 164.797 205.976L168.333 206.92C169.133 207.224 169.885 207.784 169.885 208.616V209.416C169.885 210.056 169.357 210.52 168.845 210.92C168.269 211.368 167.629 211.72 166.909 211.72H166.253C165.549 211.72 164.909 211.32 164.349 210.888C163.885 210.52 163.373 210.12 163.293 209.576L161.917 210.296ZM180.806 199.88C182.038 199.88 182.982 200.776 183.83 201.672C184.694 202.584 185.542 203.608 185.542 204.856V206.744C185.542 207.992 184.694 209.016 183.83 209.928C182.982 210.824 182.038 211.72 180.806 211.72H179.75C178.518 211.72 177.574 210.824 176.726 209.928C175.862 209.016 175.014 207.992 175.014 206.744V204.856C175.014 203.608 175.862 202.584 176.726 201.672C177.574 200.776 178.518 199.88 179.75 199.88H180.806ZM180.806 198.44H179.75C178.134 198.44 176.838 199.592 175.702 200.744C174.549 201.912 173.43 203.224 173.43 204.856V206.744C173.43 208.376 174.549 209.688 175.702 210.856C176.838 212.008 178.134 213.16 179.75 213.16H180.806C182.422 213.16 183.718 212.008 184.854 210.856C186.006 209.688 187.126 208.376 187.126 206.744V204.856C187.126 203.224 186.006 201.912 184.854 200.744C183.718 199.592 182.422 198.44 180.806 198.44ZM199.917 198.6H198.333V208.744C198.333 209.512 197.757 210.12 197.181 210.648C196.589 211.192 195.933 211.72 195.133 211.72H194.413C193.613 211.72 192.957 211.192 192.365 210.648C191.789 210.12 191.213 209.512 191.213 208.744V198.6H189.629V208.744C189.629 209.896 190.509 210.792 191.357 211.576C192.237 212.392 193.213 213.16 194.413 213.16H195.133C196.333 213.16 197.309 212.392 198.189 211.576C199.037 210.792 199.917 209.896 199.917 208.744V198.6ZM203.006 213H204.59V206.328H207.182L210.782 213H212.654L208.798 206.104C209.422 205.864 209.998 205.496 210.542 205.08C211.342 204.488 212.206 203.832 212.206 202.856V202.072C212.206 201.096 211.342 200.44 210.542 199.848C209.661 199.192 208.686 198.6 207.582 198.6H203.006V213ZM204.59 200.04H207.582C208.286 200.04 208.926 200.376 209.517 200.776C210.03 201.112 210.622 201.496 210.622 202.072V202.856C210.622 203.432 210.03 203.816 209.517 204.152C208.926 204.552 208.286 204.888 207.582 204.888H204.59V200.04ZM226.718 209L225.47 208.2C225.15 208.824 224.638 209.4 224.142 209.928C223.294 210.824 222.35 211.72 221.118 211.72H220.062C218.83 211.72 217.886 210.824 217.038 209.928C216.174 209.016 215.326 207.992 215.326 206.744V204.856C215.326 203.608 216.174 202.584 217.038 201.672C217.886 200.776 218.83 199.88 220.062 199.88H221.118C222.35 199.88 223.294 200.776 224.142 201.672C224.638 202.2 225.15 202.776 225.47 203.4L226.718 202.6C226.302 201.928 225.726 201.32 225.166 200.744C224.03 199.592 222.734 198.44 221.118 198.44H220.062C218.446 198.44 217.15 199.592 216.014 200.744C214.862 201.912 213.742 203.224 213.742 204.856V206.744C213.742 208.376 214.862 209.688 216.014 210.856C217.15 212.008 218.446 213.16 220.062 213.16H221.118C222.734 213.16 224.03 212.008 225.166 210.856C225.726 210.28 226.302 209.672 226.718 209ZM229.443 213H237.507V211.56H231.027V205.512H236.723V204.072H231.027V200.04H237.507V198.6H229.443V213ZM239.417 210.296C239.721 210.888 240.297 211.368 240.841 211.816C241.689 212.52 242.649 213.16 243.753 213.16H244.409C245.529 213.16 246.521 212.568 247.385 211.864C248.185 211.208 248.969 210.44 248.969 209.416V208.616C248.969 207.144 247.785 206.008 246.377 205.48L242.841 204.536C242.041 204.232 241.289 203.704 241.289 202.888V202.056C241.289 201.48 241.705 201.016 242.153 200.632C242.617 200.216 243.177 199.88 243.801 199.88H244.361C244.985 199.88 245.513 200.264 245.977 200.664C246.249 200.904 246.537 201.16 246.713 201.464L248.185 201.08C247.897 200.584 247.433 200.152 246.985 199.752C246.233 199.08 245.369 198.44 244.361 198.44H243.801C242.777 198.44 241.897 199.032 241.129 199.704C240.409 200.344 239.705 201.096 239.705 202.056V202.888C239.705 204.344 240.889 205.448 242.297 205.976L245.833 206.92C246.633 207.224 247.385 207.784 247.385 208.616V209.416C247.385 210.056 246.857 210.52 246.345 210.92C245.769 211.368 245.129 211.72 244.409 211.72H243.753C243.049 211.72 242.409 211.32 241.849 210.888C241.385 210.52 240.873 210.12 240.793 209.576L239.417 210.296Z" fill="#6262F4"/>
<defs>
<linearGradient id="paint0_linear" x1="194.5" y1="0" x2="194.5" y2="389" gradientUnits="userSpaceOnUse">
<stop stop-color="#F4D792" stop-opacity="0.57"/>
<stop offset="1" stop-color="#C4C4C4" stop-opacity="0"/>
</linearGradient>
</defs>
</svg>
