<svg width="350" height="350" viewBox="0 0 350 350" fill="none" xmlns="http://www.w3.org/2000/svg">
<path d="M71.4935 186H73.9685V176.55H78.6435C80.3935 176.55 81.9185 175.55 83.2685 174.45C84.5185 173.425 85.8685 172.3 85.8685 170.7V169.35C85.8685 167.75 84.5185 166.625 83.2685 165.6C81.9185 164.5 80.3935 163.5 78.6435 163.5H71.4935V186ZM73.9685 165.75H78.6435C79.7685 165.75 80.7685 166.375 81.6685 167.05C82.4935 167.675 83.3935 168.35 83.3935 169.35V170.7C83.3935 171.7 82.4935 172.375 81.6685 173C80.7685 173.675 79.7685 174.3 78.6435 174.3H73.9685V165.75ZM105.315 163.5H102.84V179.35C102.84 180.55 101.94 181.5 101.04 182.325C100.115 183.175 99.0901 184 97.8401 184H96.7151C95.4651 184 94.4401 183.175 93.5151 182.325C92.6151 181.5 91.7151 180.55 91.7151 179.35V163.5H89.2401V179.35C89.2401 181.15 90.6151 182.55 91.9401 183.775C93.3151 185.05 94.8401 186.25 96.7151 186.25H97.8401C99.7151 186.25 101.24 185.05 102.615 183.775C103.94 182.55 105.315 181.15 105.315 179.35V163.5ZM110.141 186H117.791C119.491 186 120.866 184.85 122.091 183.675C123.291 182.5 124.516 181.175 124.516 179.5V177.9C124.516 176.225 123.291 174.925 122.091 173.75C121.466 173.15 120.791 172.55 120.066 172.1C120.516 171.875 120.941 171.625 121.366 171.35C122.291 170.75 123.391 170.025 123.391 169.025V168.125C123.391 166.875 122.341 165.975 121.366 165.175C120.316 164.3 119.141 163.5 117.791 163.5H110.141V186ZM112.616 165.75H117.791C118.541 165.75 119.191 166.15 119.791 166.6C120.316 167 120.916 167.45 120.916 168.125V169.025C120.916 169.7 120.316 170.15 119.791 170.55C119.191 171 118.541 171.4 117.791 171.4H112.616V165.75ZM112.616 173.65H117.791C118.866 173.65 119.741 174.4 120.516 175.175C121.291 175.95 122.041 176.825 122.041 177.9V179.5C122.041 180.575 121.291 181.45 120.516 182.225C119.741 183 118.866 183.75 117.791 183.75H112.616V173.65ZM128.525 186H141.125V183.75H131V163.5H128.525V186ZM144.964 186H147.439V163.5H144.964V186ZM172.07 179.75L170.12 178.5C169.62 179.475 168.82 180.375 168.045 181.2C166.72 182.6 165.245 184 163.32 184H161.67C159.745 184 158.27 182.6 156.945 181.2C155.595 179.775 154.27 178.175 154.27 176.225V173.275C154.27 171.325 155.595 169.725 156.945 168.3C158.27 166.9 159.745 165.5 161.67 165.5H163.32C165.245 165.5 166.72 166.9 168.045 168.3C168.82 169.125 169.62 170.025 170.12 171L172.07 169.75C171.42 168.7 170.52 167.75 169.645 166.85C167.87 165.05 165.845 163.25 163.32 163.25H161.67C159.145 163.25 157.12 165.05 155.345 166.85C153.545 168.675 151.795 170.725 151.795 173.275V176.225C151.795 178.775 153.545 180.825 155.345 182.65C157.12 184.45 159.145 186.25 161.67 186.25H163.32C165.845 186.25 167.87 184.45 169.645 182.65C170.52 181.75 171.42 180.8 172.07 179.75ZM174.227 186H176.652L179.177 179.025H187.802L190.327 186H192.952L184.852 163.5H182.352L174.227 186ZM187.002 176.775H179.977L183.477 167.05L187.002 176.775ZM191.311 165.75H198.036V186H200.511V165.75H207.211V163.5H191.311V165.75ZM210.1 186H212.575V163.5H210.1V186ZM228.456 165.5C230.381 165.5 231.856 166.9 233.181 168.3C234.531 169.725 235.856 171.325 235.856 173.275V176.225C235.856 178.175 234.531 179.775 233.181 181.2C231.856 182.6 230.381 184 228.456 184H226.806C224.881 184 223.406 182.6 222.081 181.2C220.731 179.775 219.406 178.175 219.406 176.225V173.275C219.406 171.325 220.731 169.725 222.081 168.3C223.406 166.9 224.881 165.5 226.806 165.5H228.456ZM228.456 163.25H226.806C224.281 163.25 222.256 165.05 220.481 166.85C218.681 168.675 216.931 170.725 216.931 173.275V176.225C216.931 178.775 218.681 180.825 220.481 182.65C222.256 184.45 224.281 186.25 226.806 186.25H228.456C230.981 186.25 233.006 184.45 234.781 182.65C236.581 180.825 238.331 178.775 238.331 176.225V173.275C238.331 170.725 236.581 168.675 234.781 166.85C233.006 165.05 230.981 163.25 228.456 163.25ZM242.343 186H244.818V167.825L256.818 186H259.318V163.5H256.843V181.675L244.843 163.5H242.343V186ZM263.518 181.775C263.993 182.7 264.893 183.45 265.743 184.15C267.068 185.25 268.568 186.25 270.293 186.25H271.318C273.068 186.25 274.618 185.325 275.968 184.225C277.218 183.2 278.443 182 278.443 180.4V179.15C278.443 176.85 276.593 175.075 274.393 174.25L268.868 172.775C267.618 172.3 266.443 171.475 266.443 170.2V168.9C266.443 168 267.093 167.275 267.793 166.675C268.518 166.025 269.393 165.5 270.368 165.5H271.243C272.218 165.5 273.043 166.1 273.768 166.725C274.193 167.1 274.643 167.5 274.918 167.975L277.218 167.375C276.768 166.6 276.043 165.925 275.343 165.3C274.168 164.25 272.818 163.25 271.243 163.25H270.368C268.768 163.25 267.393 164.175 266.193 165.225C265.068 166.225 263.968 167.4 263.968 168.9V170.2C263.968 172.475 265.818 174.2 268.018 175.025L273.543 176.5C274.793 176.975 275.968 177.85 275.968 179.15V180.4C275.968 181.4 275.143 182.125 274.343 182.75C273.443 183.45 272.443 184 271.318 184H270.293C269.193 184 268.193 183.375 267.318 182.7C266.593 182.125 265.793 181.5 265.668 180.65L263.518 181.775Z" fill="#5B5A7C"/>
</svg>
