<svg width="350" height="350" viewBox="0 0 350 350" fill="none" xmlns="http://www.w3.org/2000/svg">
	<path class="st0" d="M350,176.5l-60-0.5c0-0.3,0-0.7,0-1c0-0.3,0-0.7,0-1l60-0.5c0,0.5,0,1,0,1.5S350,176,350,176.5z M349.6,163.4
		l-59.9,3.9c0-0.7-0.1-1.3-0.1-2l59.8-4.9C349.5,161.4,349.6,162.4,349.6,163.4z M348.3,150.4l-59.4,8.4c-0.1-0.7-0.2-1.3-0.3-2
		l59.3-9.4C348,148.4,348.1,149.4,348.3,150.4z M346,137.5l-58.6,12.8c-0.1-0.6-0.3-1.3-0.4-1.9l58.4-13.8
		C345.5,135.5,345.8,136.5,346,137.5z M342.7,124.8L285.2,142c-0.2-0.6-0.4-1.3-0.6-1.9l57.2-18.2
		C342.1,122.9,342.4,123.9,342.7,124.8z M338.5,112.5l-56,21.5c-0.2-0.6-0.5-1.2-0.7-1.8l55.7-22.4
		C337.8,110.6,338.1,111.5,338.5,112.5z M333.4,100.4L279.1,126c-0.3-0.6-0.6-1.2-0.9-1.8L332,97.7
		C332.5,98.6,332.9,99.5,333.4,100.4z M327.3,88.8l-52.2,29.6c-0.3-0.6-0.7-1.1-1-1.7l51.7-30.5C326.3,87,326.8,87.9,327.3,88.8z
		 M320.5,77.7l-49.8,33.4c-0.4-0.6-0.7-1.1-1.1-1.6l49.3-34.3C319.3,76,319.9,76.8,320.5,77.7z M312.8,67.1l-47.2,37
		c-0.4-0.5-0.8-1-1.2-1.6l46.6-37.8C311.5,65.5,312.1,66.3,312.8,67.1z M304.3,57.1L260,97.5c-0.4-0.5-0.9-1-1.4-1.5l43.6-41.2
		C302.9,55.6,303.6,56.3,304.3,57.1z M295.1,47.7l-41.2,43.6c-0.5-0.5-1-0.9-1.5-1.4l40.4-44.3C293.7,46.4,294.4,47.1,295.1,47.7z
		 M285.3,39.1l-37.8,46.6c-0.5-0.4-1-0.8-1.6-1.2l37-47.2C283.7,37.9,284.5,38.5,285.3,39.1z M274.8,31.3l-34.3,49.3
		c-0.5-0.4-1.1-0.8-1.6-1.1l33.4-49.8C273.2,30.1,274,30.7,274.8,31.3z M263.8,24.2l-30.5,51.7c-0.6-0.3-1.1-0.7-1.7-1l29.6-52.2
		C262.1,23.2,263,23.7,263.8,24.2z M252.3,18l-26.5,53.8c-0.6-0.3-1.2-0.6-1.8-0.9l25.6-54.3C250.5,17.1,251.4,17.5,252.3,18z
		 M240.4,12.6l-22.4,55.7c-0.6-0.2-1.2-0.5-1.8-0.7l21.5-56C238.5,11.9,239.4,12.2,240.4,12.6z M228,8.2l-18.2,57.2
		c-0.6-0.2-1.3-0.4-1.9-0.6l17.2-57.5C226.1,7.6,227.1,7.9,228,8.2z M215.4,4.7c-1-0.2-2-0.5-2.9-0.7l-12.8,58.6
		c0.6,0.1,1.3,0.3,1.9,0.4L215.4,4.7z M202.6,2.2l-9.4,59.3c-0.7-0.1-1.3-0.2-2-0.3l8.4-59.4C200.6,1.9,201.6,2,202.6,2.2z
		 M189.6,0.6l-4.9,59.8c-0.7-0.1-1.3-0.1-2-0.1l3.9-59.9C187.6,0.4,188.6,0.5,189.6,0.6z M176.5,0L176,60c-0.3,0-0.7,0-1,0
		c-0.3,0-0.7,0-1,0l-0.5-60c0.5,0,1,0,1.5,0S176,0,176.5,0z M163.4,0.4l3.9,59.9c-0.7,0-1.3,0.1-2,0.1l-4.9-59.8
		C161.4,0.5,162.4,0.4,163.4,0.4z M150.4,1.7l8.4,59.4c-0.7,0.1-1.3,0.2-2,0.3l-9.4-59.3C148.4,2,149.4,1.9,150.4,1.7z M137.5,4
		l12.8,58.6c-0.6,0.1-1.3,0.3-1.9,0.4L134.6,4.7C135.5,4.5,136.5,4.2,137.5,4z M124.8,7.3L142,64.8c-0.6,0.2-1.3,0.4-1.9,0.6L122,8.2
		C122.9,7.9,123.9,7.6,124.8,7.3z M112.5,11.5l21.5,56c-0.6,0.2-1.2,0.5-1.8,0.7l-22.4-55.7C110.6,12.2,111.5,11.9,112.5,11.5z
		 M100.4,16.6L126,70.9c-0.6,0.3-1.2,0.6-1.8,0.9L97.7,18C98.6,17.5,99.5,17.1,100.4,16.6z M88.8,22.7l29.6,52.2
		c-0.6,0.3-1.1,0.7-1.7,1L86.2,24.2C87,23.7,87.9,23.2,88.8,22.7z M77.7,29.5l33.4,49.8c-0.6,0.4-1.1,0.7-1.6,1.1L75.2,31.3
		C76,30.7,76.8,30.1,77.7,29.5z M67.1,37.2l37,47.2c-0.5,0.4-1,0.8-1.6,1.2L64.7,39.1C65.5,38.5,66.3,37.9,67.1,37.2z M57.1,45.7
		L97.5,90c-0.5,0.4-1,0.9-1.5,1.4L54.9,47.7C55.6,47.1,56.3,46.4,57.1,45.7z M47.7,54.9l43.6,41.2c-0.5,0.5-0.9,1-1.4,1.5L45.7,57.1
		C46.4,56.3,47.1,55.6,47.7,54.9z M39.1,64.7l46.6,37.8c-0.4,0.5-0.8,1-1.2,1.6l-47.2-37C37.9,66.3,38.5,65.5,39.1,64.7z M31.3,75.2
		l49.3,34.3c-0.4,0.5-0.8,1.1-1.1,1.6L29.5,77.7C30.1,76.8,30.7,76,31.3,75.2z M24.2,86.2l51.7,30.5c-0.3,0.6-0.7,1.1-1,1.7
		L22.7,88.8C23.2,87.9,23.7,87,24.2,86.2z M18,97.7l53.8,26.5c-0.3,0.6-0.6,1.2-0.9,1.8l-54.3-25.6C17.1,99.5,17.5,98.6,18,97.7z
		 M12.6,109.6l55.7,22.4c-0.2,0.6-0.5,1.2-0.7,1.8l-56-21.5C11.9,111.5,12.2,110.6,12.6,109.6z M8.2,122l57.2,18.2
		c-0.2,0.6-0.4,1.3-0.6,1.9L7.3,124.8C7.6,123.9,7.9,122.9,8.2,122z M4.7,134.6c-0.2,1-0.5,2-0.7,2.9l58.6,12.8
		c0.1-0.6,0.3-1.3,0.4-1.9L4.7,134.6z M2.2,147.4l59.3,9.4c-0.1,0.7-0.2,1.3-0.3,2l-59.4-8.4C1.9,149.4,2,148.4,2.2,147.4z
		 M0.6,160.4l59.8,4.9c-0.1,0.7-0.1,1.3-0.1,2l-59.9-3.9C0.4,162.4,0.5,161.4,0.6,160.4z M0,173.5c0,0.5,0,1,0,1.5s0,1,0,1.5l60-0.5
		c0-0.3,0-0.7,0-1c0-0.3,0-0.7,0-1L0,173.5z M0.4,186.6l59.9-3.9c0,0.7,0.1,1.3,0.1,2l-59.8,4.9C0.5,188.6,0.4,187.6,0.4,186.6z
		 M1.7,199.6l59.4-8.4c0.1,0.7,0.2,1.3,0.3,2l-59.3,9.4C2,201.6,1.9,200.6,1.7,199.6z M4,212.5l58.6-12.8c0.1,0.6,0.3,1.3,0.4,1.9
		L4.7,215.4C4.5,214.5,4.2,213.5,4,212.5z M7.3,225.2c0.3,1,0.6,1.9,0.9,2.9l57.2-18.2c-0.2-0.6-0.4-1.3-0.6-1.9L7.3,225.2z
		 M11.5,237.5l56-21.5c0.2,0.6,0.5,1.2,0.7,1.8l-55.7,22.4C12.2,239.4,11.9,238.5,11.5,237.5z M16.6,249.6L70.9,224
		c0.3,0.6,0.6,1.2,0.9,1.8L18,252.3C17.5,251.4,17.1,250.5,16.6,249.6z M22.7,261.2l52.2-29.6c0.3,0.6,0.7,1.1,1,1.7l-51.7,30.5
		C23.7,263,23.2,262.1,22.7,261.2z M29.5,272.3l49.8-33.4c0.4,0.6,0.7,1.1,1.1,1.6l-49.3,34.3C30.7,274,30.1,273.2,29.5,272.3z
		 M37.2,282.9l47.2-37c0.4,0.5,0.8,1,1.2,1.6l-46.6,37.8C38.5,284.5,37.9,283.7,37.2,282.9z M45.7,292.9L90,252.5
		c0.4,0.5,0.9,1,1.4,1.5l-43.6,41.2C47.1,294.4,46.4,293.7,45.7,292.9z M54.9,302.3l41.2-43.6c0.5,0.5,1,0.9,1.5,1.4l-40.4,44.3
		C56.3,303.6,55.6,302.9,54.9,302.3z M64.7,310.9l37.8-46.6c0.5,0.4,1,0.8,1.6,1.2l-37,47.2C66.3,312.1,65.5,311.5,64.7,310.9z
		 M75.2,318.7l34.3-49.3c0.5,0.4,1.1,0.8,1.6,1.1l-33.4,49.8C76.8,319.9,76,319.3,75.2,318.7z M86.2,325.8l30.5-51.7
		c0.6,0.3,1.1,0.7,1.7,1l-29.6,52.2C87.9,326.8,87,326.3,86.2,325.8z M97.7,332l26.5-53.8c0.6,0.3,1.2,0.6,1.8,0.9l-25.6,54.3
		C99.5,332.9,98.6,332.5,97.7,332z M109.6,337.4l22.4-55.7c0.6,0.2,1.2,0.5,1.8,0.7l-21.5,56C111.5,338.1,110.6,337.8,109.6,337.4z
		 M122,341.8l18.2-57.2c0.6,0.2,1.3,0.4,1.9,0.6l-17.2,57.5C123.9,342.4,122.9,342.1,122,341.8z M134.6,345.3c1,0.2,2,0.5,2.9,0.7
		l12.8-58.6c-0.6-0.1-1.3-0.3-1.9-0.4L134.6,345.3z M147.4,347.8l9.4-59.3c0.7,0.1,1.3,0.2,2,0.3l-8.4,59.4
		C149.4,348.1,148.4,348,147.4,347.8z M160.4,349.4l4.9-59.8c0.7,0.1,1.3,0.1,2,0.1l-3.9,59.9C162.4,349.6,161.4,349.5,160.4,349.4z
		 M173.5,350l0.5-60c0.3,0,0.7,0,1,0c0.2,0,0.4,0,0.6,0c0.1,0,0.3,0,0.4,0l0.5,60c-0.5,0-1,0-1.5,0S174,350,173.5,350z M186.6,349.6
		l-3.9-59.9c0.7,0,1.3-0.1,2-0.1l4.9,59.8C188.6,349.5,187.6,349.6,186.6,349.6z M199.6,348.3l-8.4-59.4c0.7-0.1,1.3-0.2,2-0.3
		l9.4,59.3C201.6,348,200.6,348.1,199.6,348.3z M212.5,346l-12.8-58.6c0.6-0.1,1.3-0.3,1.9-0.4l13.8,58.4
		C214.5,345.5,213.5,345.8,212.5,346z M225.2,342.7L208,285.2c0.6-0.2,1.3-0.4,1.9-0.6l18.2,57.2
		C227.1,342.1,226.1,342.4,225.2,342.7z M237.5,338.5l-21.5-56c0.6-0.2,1.2-0.5,1.8-0.7l22.4,55.7
		C239.4,337.8,238.5,338.1,237.5,338.5z M249.6,333.4L224,279.1c0.6-0.3,1.2-0.6,1.8-0.9l26.5,53.8
		C251.4,332.5,250.5,332.9,249.6,333.4z M261.2,327.3l-29.6-52.2c0.6-0.3,1.1-0.7,1.7-1l30.5,51.7C263,326.3,262.1,326.8,261.2,327.3
		z M272.3,320.5l-33.4-49.8c0.6-0.4,1.1-0.7,1.6-1.1l34.3,49.3C274,319.3,273.2,319.9,272.3,320.5z M282.9,312.8l-37-47.2
		c0.5-0.4,1-0.8,1.6-1.2l37.8,46.6C284.5,311.5,283.7,312.1,282.9,312.8z M292.9,304.3L252.5,260c0.5-0.4,1-0.9,1.5-1.4l41.2,43.6
		C294.4,302.9,293.7,303.6,292.9,304.3z M302.3,295.1l-43.6-41.2c0.5-0.5,0.9-1,1.4-1.5l44.3,40.4
		C303.6,293.7,302.9,294.4,302.3,295.1z M310.9,285.3l-46.6-37.8c0.4-0.5,0.8-1,1.2-1.6l47.2,37C312.1,283.7,311.5,284.5,310.9,285.3
		z M318.7,274.8l-49.3-34.3c0.4-0.5,0.8-1.1,1.1-1.6l49.8,33.4C319.9,273.2,319.3,274,318.7,274.8z M325.8,263.8l-51.7-30.5
		c0.3-0.6,0.7-1.1,1-1.7l52.2,29.6C326.8,262.1,326.3,263,325.8,263.8z M332,252.3l-53.8-26.5c0.3-0.6,0.6-1.2,0.9-1.8l54.3,25.6
		C332.9,250.5,332.5,251.4,332,252.3z M337.4,240.4l-55.7-22.4c0.2-0.6,0.5-1.2,0.7-1.8l56,21.5C338.1,238.5,337.8,239.4,337.4,240.4
		z M341.8,228c0.3-1,0.6-1.9,0.9-2.9L285.2,208c-0.2,0.6-0.4,1.3-0.6,1.9L341.8,228z M345.3,215.4c0.2-1,0.5-2,0.7-2.9l-58.6-12.8
		c-0.1,0.6-0.3,1.3-0.4,1.9L345.3,215.4z M347.8,202.6l-59.3-9.4c0.1-0.7,0.2-1.3,0.3-2l59.4,8.4C348.1,200.6,348,201.6,347.8,202.6z
		 M349.4,189.6l-59.8-4.9c0.1-0.7,0.1-1.3,0.1-2l59.9,3.9C349.6,187.6,349.5,188.6,349.4,189.6z"/></svg>
