<svg width="100" height="100" viewBox="0 0 389 389" fill="none" xmlns="http://www.w3.org/2000/svg" id="sticker-words-mobile">
<circle cx="194.5" cy="194.5" r="194.5" fill="url(#paint0_linear)"/>
<circle cx="194.5" cy="194.5" r="194" stroke="#6262F4" stroke-dasharray="10 10"/>
<path d="M105.419 159.6L110.315 174H112.091L113.755 169.104L115.419 174H117.195L122.091 159.6H121.147L116.299 173.888L114.219 167.76L116.987 159.6H116.043L113.739 166.368L111.451 159.6H110.539L113.291 167.712L111.195 173.888L106.331 159.6H105.419ZM129.782 160.304C131.318 160.304 132.534 161.424 133.574 162.576C134.662 163.776 135.606 165.184 135.606 166.8C135.606 168.416 134.662 169.824 133.574 171.024C132.534 172.176 131.318 173.296 129.782 173.296C128.246 173.296 127.03 172.176 125.99 171.024C124.902 169.824 123.958 168.416 123.958 166.8C123.958 165.184 124.902 163.776 125.99 162.576C127.03 161.424 128.246 160.304 129.782 160.304ZM129.782 159.44C128.022 159.44 126.614 160.704 125.43 162.016C124.198 163.376 123.094 164.96 123.094 166.8C123.094 168.64 124.198 170.224 125.43 171.584C126.614 172.896 128.022 174.16 129.782 174.16C131.542 174.16 132.95 172.896 134.134 171.584C135.366 170.224 136.47 168.64 136.47 166.8C136.47 164.96 135.366 163.376 134.134 162.016C132.95 160.704 131.542 159.44 129.782 159.44ZM138.981 174H139.845V167.168H143.397L147.397 174H148.437L144.245 166.992C144.981 166.768 145.669 166.336 146.293 165.856C147.125 165.2 147.989 164.448 147.989 163.392C147.989 162.336 147.125 161.584 146.293 160.928C145.365 160.208 144.309 159.6 143.125 159.6H138.981V174ZM139.845 160.464H143.125C144.085 160.464 144.965 160.928 145.733 161.488C146.421 161.984 147.125 162.56 147.125 163.392C147.125 164.224 146.421 164.784 145.733 165.28C144.965 165.84 144.085 166.304 143.125 166.304H139.845V160.464ZM150.059 174H154.235C156.043 174 157.531 172.768 158.795 171.472C160.075 170.16 161.259 168.624 161.259 166.8C161.259 164.976 160.075 163.44 158.795 162.128C157.531 160.832 156.043 159.6 154.235 159.6H150.059V174ZM150.923 173.136V160.464H154.235C155.819 160.464 157.115 161.536 158.235 162.688C159.355 163.84 160.395 165.184 160.395 166.8C160.395 168.416 159.355 169.76 158.235 170.912C157.115 172.064 155.819 173.136 154.235 173.136H150.923ZM163.744 171.584C164.064 172.016 164.48 172.4 164.896 172.752C165.792 173.504 166.816 174.16 167.984 174.16C169.168 174.16 170.24 173.568 171.152 172.8C171.984 172.096 172.752 171.232 172.752 170.144C172.752 168.448 171.6 166.976 169.952 166.576L166.656 166.064C165.36 165.744 164.384 164.656 164.384 163.344C164.384 162.528 164.976 161.856 165.6 161.328C166.288 160.752 167.088 160.304 167.984 160.304C168.864 160.304 169.664 160.784 170.336 161.36C170.608 161.584 170.864 161.824 171.088 162.096L171.824 161.76C171.552 161.424 171.232 161.088 170.896 160.8C170.064 160.08 169.088 159.44 167.984 159.44C166.864 159.44 165.872 160.016 165.024 160.752C164.24 161.44 163.52 162.304 163.52 163.344C163.52 165.072 164.768 166.512 166.448 166.928L169.744 167.44C170.992 167.744 171.888 168.864 171.888 170.144C171.888 171.008 171.248 171.696 170.576 172.24C169.824 172.848 168.944 173.296 167.984 173.296C167.04 173.296 166.192 172.784 165.456 172.192C165.056 171.872 164.656 171.52 164.4 171.104L163.744 171.584ZM182.049 174H182.913V159.6H182.049V174ZM186.2 174H187.064V159.92L195.048 174H196.824V159.6H195.96V173.68L187.976 159.6H186.2V174ZM206.338 171.584C206.658 172.016 207.074 172.4 207.49 172.752C208.386 173.504 209.41 174.16 210.578 174.16C211.762 174.16 212.834 173.568 213.746 172.8C214.578 172.096 215.346 171.232 215.346 170.144C215.346 168.448 214.194 166.976 212.546 166.576L209.25 166.064C207.954 165.744 206.978 164.656 206.978 163.344C206.978 162.528 207.57 161.856 208.194 161.328C208.882 160.752 209.682 160.304 210.578 160.304C211.458 160.304 212.258 160.784 212.93 161.36C213.202 161.584 213.458 161.824 213.682 162.096L214.418 161.76C214.146 161.424 213.826 161.088 213.49 160.8C212.658 160.08 211.682 159.44 210.578 159.44C209.458 159.44 208.466 160.016 207.618 160.752C206.834 161.44 206.114 162.304 206.114 163.344C206.114 165.072 207.362 166.512 209.042 166.928L212.338 167.44C213.586 167.744 214.482 168.864 214.482 170.144C214.482 171.008 213.842 171.696 213.17 172.24C212.418 172.848 211.538 173.296 210.578 173.296C209.634 173.296 208.786 172.784 208.05 172.192C207.65 171.872 207.25 171.52 206.994 171.104L206.338 171.584ZM217.856 174H218.72V167.776H221.984C223.184 167.776 224.224 167.12 225.136 166.352C225.984 165.632 226.832 164.8 226.832 163.696C226.832 162.592 225.984 161.744 225.136 161.024C224.224 160.256 223.184 159.6 221.984 159.6H217.856V174ZM218.72 160.464H221.984C222.96 160.464 223.824 160.992 224.576 161.6C225.264 162.16 225.968 162.816 225.968 163.696C225.968 164.576 225.264 165.232 224.576 165.792C223.824 166.4 222.96 166.912 221.984 166.912H218.72V160.464ZM227.716 174H228.644L230.58 168.416H236.628L238.564 174H239.476L234.484 159.6H232.708L227.716 174ZM236.324 167.552H230.884L233.604 159.696L236.324 167.552ZM252.472 170.192L251.816 169.728C251.512 170.176 251.16 170.608 250.792 171.024C249.752 172.176 248.536 173.296 247 173.296C245.464 173.296 244.248 172.176 243.208 171.024C242.12 169.824 241.176 168.416 241.176 166.8C241.176 165.184 242.12 163.776 243.208 162.576C244.248 161.424 245.464 160.304 247 160.304C248.536 160.304 249.752 161.424 250.792 162.576C251.16 162.992 251.512 163.424 251.816 163.872L252.472 163.408C252.136 162.912 251.752 162.464 251.352 162.016C250.168 160.704 248.76 159.44 247 159.44C245.24 159.44 243.832 160.704 242.648 162.016C241.416 163.376 240.312 164.96 240.312 166.8C240.312 168.64 241.416 170.224 242.648 171.584C243.832 172.896 245.24 174.16 247 174.16C248.76 174.16 250.168 172.896 251.352 171.584C251.752 171.136 252.136 170.688 252.472 170.192ZM255.653 174H263.541V173.136H256.517V166.368H263.109V165.504H256.517V160.464H263.541V159.6H255.653V174ZM272.531 174H273.395V164.64H272.531V174ZM272.339 161.072C272.339 161.344 272.691 161.68 272.963 161.68C273.235 161.68 273.571 161.344 273.571 161.072C273.571 160.8 273.235 160.448 272.963 160.448C272.691 160.448 272.339 160.8 272.339 161.072ZM275.983 172.288C276.239 172.64 276.623 172.944 276.991 173.216C277.711 173.744 278.511 174.16 279.407 174.16C280.303 174.16 281.151 173.776 281.871 173.248C282.495 172.784 283.135 172.224 283.135 171.456C283.135 170.208 282.159 169.184 280.911 169.024L278.431 168.72C277.567 168.608 276.847 167.968 276.847 167.12C276.847 166.608 277.279 166.24 277.711 165.936C278.207 165.584 278.799 165.344 279.407 165.344C280.015 165.344 280.575 165.616 281.071 165.968C281.375 166.176 281.679 166.4 281.839 166.688L282.479 166.192C282.255 165.904 281.935 165.648 281.631 165.408C280.975 164.912 280.239 164.48 279.407 164.48C278.575 164.48 277.791 164.864 277.135 165.376C276.543 165.824 275.983 166.384 275.983 167.12C275.983 168.4 277.039 169.424 278.335 169.584L280.799 169.888C281.615 169.984 282.271 170.64 282.271 171.456C282.271 172 281.775 172.368 281.311 172.672C280.735 173.04 280.079 173.296 279.407 173.296C278.735 173.296 278.111 173.024 277.551 172.656C277.199 172.432 276.799 172.176 276.639 171.824L275.983 172.288ZM133.042 191.504H135.458V200H136.322V191.504H138.722V190.64H136.322V184.8H135.458V190.64H133.042V191.504ZM140.292 200H141.156V193.936C141.156 193.216 141.748 192.704 142.324 192.256C142.964 191.76 143.684 191.344 144.5 191.344C145.092 191.344 145.556 191.792 145.956 192.256C146.372 192.736 146.74 193.296 146.74 193.936V200H147.604V193.936C147.604 193.072 147.092 192.336 146.516 191.696C145.972 191.088 145.316 190.48 144.5 190.48C143.556 190.48 142.74 191.056 142.036 191.696C141.716 192 141.396 192.32 141.156 192.672V184.8H140.292V200ZM158.036 198.032L157.46 197.504C157.252 197.744 156.996 197.968 156.74 198.176C156.036 198.768 155.236 199.296 154.308 199.296C153.332 199.296 152.548 198.624 151.876 197.904C151.284 197.28 150.756 196.56 150.612 195.744H158.916V195.328C158.916 194.112 158.148 193.072 157.3 192.176C156.468 191.312 155.508 190.48 154.308 190.48C153.108 190.48 152.148 191.312 151.316 192.176C150.468 193.072 149.716 194.112 149.716 195.328C149.716 196.544 150.468 197.568 151.316 198.464C152.148 199.328 153.108 200.16 154.308 200.16C155.444 200.16 156.436 199.504 157.3 198.752C157.556 198.528 157.812 198.288 158.036 198.032ZM158.02 194.896H150.612C150.756 194.08 151.284 193.36 151.876 192.736C152.548 192.016 153.332 191.344 154.308 191.344C155.284 191.344 156.068 192.016 156.74 192.736C157.332 193.36 157.876 194.08 158.02 194.896ZM166.339 190.64L170.307 200H172.083L173.299 197.152L174.499 200H176.275L180.243 190.64H179.283L175.379 199.856L173.763 196.048L176.067 190.64H175.107L173.283 194.928L171.475 190.64H170.531L172.819 196.032L171.187 199.856L167.283 190.64H166.339ZM189.583 198.032L189.007 197.504C188.799 197.744 188.543 197.968 188.287 198.176C187.583 198.768 186.783 199.296 185.855 199.296C184.879 199.296 184.095 198.624 183.423 197.904C182.831 197.28 182.303 196.56 182.159 195.744H190.463V195.328C190.463 194.112 189.695 193.072 188.847 192.176C188.015 191.312 187.055 190.48 185.855 190.48C184.655 190.48 183.695 191.312 182.863 192.176C182.015 193.072 181.263 194.112 181.263 195.328C181.263 196.544 182.015 197.568 182.863 198.464C183.695 199.328 184.655 200.16 185.855 200.16C186.991 200.16 187.983 199.504 188.847 198.752C189.103 198.528 189.359 198.288 189.583 198.032ZM189.567 194.896H182.159C182.303 194.08 182.831 193.36 183.423 192.736C184.095 192.016 184.879 191.344 185.855 191.344C186.831 191.344 187.615 192.016 188.287 192.736C188.879 193.36 189.423 194.08 189.567 194.896ZM192.651 200H193.515V197.008C193.771 197.52 194.107 198.016 194.491 198.464C195.195 199.312 196.027 200.16 197.115 200.16C198.283 200.16 199.227 199.328 200.027 198.464C200.859 197.568 201.595 196.544 201.595 195.328C201.595 194.112 200.859 193.072 200.027 192.176C199.227 191.312 198.283 190.48 197.115 190.48C196.027 190.48 195.195 191.328 194.491 192.176C194.107 192.624 193.771 193.12 193.515 193.632V184.8H192.651V200ZM197.115 191.344C198.059 191.344 198.827 192.032 199.467 192.736C200.139 193.472 200.731 194.336 200.731 195.328C200.731 196.32 200.139 197.168 199.467 197.904C198.827 198.608 198.059 199.296 197.115 199.296C196.171 199.296 195.419 198.608 194.779 197.904C194.107 197.168 193.515 196.32 193.515 195.328C193.515 194.336 194.107 193.472 194.779 192.736C195.419 192.032 196.171 191.344 197.115 191.344ZM203.468 198.288C203.724 198.64 204.108 198.944 204.476 199.216C205.196 199.744 205.996 200.16 206.892 200.16C207.788 200.16 208.636 199.776 209.356 199.248C209.98 198.784 210.62 198.224 210.62 197.456C210.62 196.208 209.644 195.184 208.396 195.024L205.916 194.72C205.052 194.608 204.332 193.968 204.332 193.12C204.332 192.608 204.764 192.24 205.196 191.936C205.692 191.584 206.284 191.344 206.892 191.344C207.5 191.344 208.06 191.616 208.556 191.968C208.86 192.176 209.164 192.4 209.324 192.688L209.964 192.192C209.74 191.904 209.42 191.648 209.116 191.408C208.46 190.912 207.724 190.48 206.892 190.48C206.06 190.48 205.276 190.864 204.62 191.376C204.028 191.824 203.468 192.384 203.468 193.12C203.468 194.4 204.524 195.424 205.82 195.584L208.284 195.888C209.1 195.984 209.756 196.64 209.756 197.456C209.756 198 209.26 198.368 208.796 198.672C208.22 199.04 207.564 199.296 206.892 199.296C206.22 199.296 205.596 199.024 205.036 198.656C204.684 198.432 204.284 198.176 204.124 197.824L203.468 198.288ZM212.937 200H213.801V190.64H212.937V200ZM212.745 187.072C212.745 187.344 213.097 187.68 213.369 187.68C213.641 187.68 213.977 187.344 213.977 187.072C213.977 186.8 213.641 186.448 213.369 186.448C213.097 186.448 212.745 186.8 212.745 187.072ZM215.542 191.504H217.958V200H218.822V191.504H221.222V190.64H218.822V184.8H217.958V190.64H215.542V191.504ZM230.458 198.032L229.882 197.504C229.674 197.744 229.418 197.968 229.162 198.176C228.458 198.768 227.658 199.296 226.73 199.296C225.754 199.296 224.97 198.624 224.298 197.904C223.706 197.28 223.178 196.56 223.034 195.744H231.338V195.328C231.338 194.112 230.57 193.072 229.722 192.176C228.89 191.312 227.93 190.48 226.73 190.48C225.53 190.48 224.57 191.312 223.738 192.176C222.89 193.072 222.138 194.112 222.138 195.328C222.138 196.544 222.89 197.568 223.738 198.464C224.57 199.328 225.53 200.16 226.73 200.16C227.866 200.16 228.858 199.504 229.722 198.752C229.978 198.528 230.234 198.288 230.458 198.032ZM230.442 194.896H223.034C223.178 194.08 223.706 193.36 224.298 192.736C224.97 192.016 225.754 191.344 226.73 191.344C227.706 191.344 228.49 192.016 229.162 192.736C229.754 193.36 230.298 194.08 230.442 194.896ZM244.12 191.344C245.096 191.344 245.88 192.016 246.552 192.736C247.24 193.472 247.848 194.32 247.848 195.328C247.848 196.336 247.24 197.168 246.552 197.904C245.88 198.624 245.096 199.296 244.12 199.296C243.144 199.296 242.376 198.624 241.704 197.904C241.016 197.168 240.408 196.336 240.408 195.328C240.408 194.32 241.016 193.472 241.704 192.736C242.376 192.016 243.144 191.344 244.12 191.344ZM244.12 190.48C242.92 190.48 241.976 191.312 241.144 192.176C240.296 193.072 239.544 194.112 239.544 195.328C239.544 196.544 240.296 197.568 241.144 198.464C241.976 199.328 242.92 200.16 244.12 200.16C245.32 200.16 246.28 199.328 247.112 198.464C247.96 197.568 248.712 196.544 248.712 195.328C248.712 194.112 247.96 193.072 247.112 192.176C246.28 191.312 245.32 190.48 244.12 190.48ZM250.13 191.504H252.29V200H253.154V191.504H255.298V190.64H253.154V186.784C253.154 186.464 253.314 186.192 253.522 185.952C253.714 185.728 253.938 185.504 254.226 185.504C254.514 185.504 254.738 185.728 254.93 185.952C255.138 186.192 255.298 186.464 255.298 186.784H256.162C256.162 186.256 255.842 185.792 255.49 185.392C255.138 185.008 254.738 184.64 254.226 184.64C253.714 184.64 253.314 185.008 252.962 185.392C252.61 185.792 252.29 186.256 252.29 186.784V190.64H250.13V191.504ZM122.017 223.584C122.337 224.016 122.753 224.4 123.169 224.752C124.065 225.504 125.089 226.16 126.257 226.16C127.441 226.16 128.513 225.568 129.425 224.8C130.257 224.096 131.025 223.232 131.025 222.144C131.025 220.448 129.873 218.976 128.225 218.576L124.929 218.064C123.633 217.744 122.657 216.656 122.657 215.344C122.657 214.528 123.249 213.856 123.873 213.328C124.561 212.752 125.361 212.304 126.257 212.304C127.137 212.304 127.937 212.784 128.609 213.36C128.881 213.584 129.137 213.824 129.361 214.096L130.097 213.76C129.825 213.424 129.505 213.088 129.169 212.8C128.337 212.08 127.361 211.44 126.257 211.44C125.137 211.44 124.145 212.016 123.297 212.752C122.513 213.44 121.793 214.304 121.793 215.344C121.793 217.072 123.041 218.512 124.721 218.928L128.017 219.44C129.265 219.744 130.161 220.864 130.161 222.144C130.161 223.008 129.521 223.696 128.849 224.24C128.097 224.848 127.217 225.296 126.257 225.296C125.313 225.296 124.465 224.784 123.729 224.192C123.329 223.872 122.929 223.52 122.673 223.104L122.017 223.584ZM133.44 226H134.304V219.936C134.304 219.216 134.896 218.704 135.472 218.256C136.112 217.76 136.832 217.344 137.648 217.344C138.24 217.344 138.704 217.792 139.104 218.256C139.52 218.736 139.888 219.296 139.888 219.936V226H140.752V219.936C140.752 219.072 140.24 218.336 139.664 217.696C139.12 217.088 138.464 216.48 137.648 216.48C136.704 216.48 135.888 217.056 135.184 217.696C134.864 218 134.544 218.32 134.304 218.672V210.8H133.44V226ZM143.841 218.224L144.417 218.768C145.025 218.112 145.921 217.344 146.913 217.344C147.713 217.344 148.401 217.824 148.993 218.368C149.569 218.88 150.113 219.488 150.113 220.256V222.096C149.873 221.792 149.585 221.536 149.281 221.296C148.593 220.736 147.793 220.256 146.913 220.256C145.937 220.256 145.057 220.72 144.273 221.296C143.585 221.792 142.865 222.352 142.865 223.2C142.865 224.048 143.585 224.624 144.273 225.12C145.057 225.696 145.937 226.16 146.913 226.16C147.793 226.16 148.593 225.68 149.281 225.12C149.585 224.88 149.873 224.624 150.113 224.32V226H150.977V220.256C150.977 219.264 150.273 218.48 149.553 217.808C148.801 217.12 147.937 216.48 146.913 216.48C145.697 216.48 144.609 217.424 143.841 218.224ZM146.913 221.12C147.665 221.12 148.369 221.44 148.993 221.856C149.521 222.208 150.113 222.576 150.113 223.2C150.113 223.824 149.521 224.208 148.993 224.56C148.369 224.976 147.665 225.296 146.913 225.296C146.161 225.296 145.457 224.976 144.833 224.56C144.305 224.208 143.729 223.824 143.729 223.2C143.729 222.576 144.305 222.208 144.833 221.856C145.457 221.44 146.161 221.12 146.913 221.12ZM153.578 226H154.442V219.936C154.442 219.184 155.114 218.688 155.738 218.256C156.458 217.744 157.258 217.344 158.138 217.344C158.778 217.344 159.29 217.792 159.738 218.256C160.186 218.736 160.602 219.28 160.602 219.936V226H161.466V219.936C161.466 219.056 160.906 218.336 160.298 217.696C159.69 217.072 159.002 216.48 158.138 216.48C157.13 216.48 156.234 217.04 155.45 217.696C155.082 218 154.714 218.336 154.442 218.72V216.64H153.578V226ZM164 226H164.864V219.936C164.864 219.184 165.536 218.688 166.16 218.256C166.88 217.744 167.68 217.344 168.56 217.344C169.2 217.344 169.712 217.792 170.16 218.256C170.608 218.736 171.024 219.28 171.024 219.936V226H171.888V219.936C171.888 219.056 171.328 218.336 170.72 217.696C170.112 217.072 169.424 216.48 168.56 216.48C167.552 216.48 166.656 217.04 165.872 217.696C165.504 218 165.136 218.336 164.864 218.72V216.64H164V226ZM178.581 217.344C179.557 217.344 180.341 218.016 181.013 218.736C181.701 219.472 182.309 220.32 182.309 221.328C182.309 222.336 181.701 223.168 181.013 223.904C180.341 224.624 179.557 225.296 178.581 225.296C177.605 225.296 176.837 224.624 176.165 223.904C175.477 223.168 174.869 222.336 174.869 221.328C174.869 220.32 175.477 219.472 176.165 218.736C176.837 218.016 177.605 217.344 178.581 217.344ZM178.581 216.48C177.381 216.48 176.437 217.312 175.605 218.176C174.757 219.072 174.005 220.112 174.005 221.328C174.005 222.544 174.757 223.568 175.605 224.464C176.437 225.328 177.381 226.16 178.581 226.16C179.781 226.16 180.741 225.328 181.573 224.464C182.421 223.568 183.173 222.544 183.173 221.328C183.173 220.112 182.421 219.072 181.573 218.176C180.741 217.312 179.781 216.48 178.581 216.48ZM185.375 226H186.239V219.936C186.239 219.184 186.911 218.688 187.535 218.256C188.255 217.744 189.055 217.344 189.935 217.344C190.575 217.344 191.087 217.792 191.535 218.256C191.983 218.736 192.399 219.28 192.399 219.936V226H193.263V219.936C193.263 219.056 192.703 218.336 192.095 217.696C191.487 217.072 190.799 216.48 189.935 216.48C188.927 216.48 188.031 217.04 187.247 217.696C186.879 218 186.511 218.336 186.239 218.72V216.64H185.375V226ZM202.583 226H203.447V211.824L208.663 226H210.439L215.655 211.824V226H216.519V211.6H214.743L209.543 225.712L204.359 211.6H202.583V226ZM219.903 218.224L220.479 218.768C221.087 218.112 221.983 217.344 222.975 217.344C223.775 217.344 224.463 217.824 225.055 218.368C225.631 218.88 226.175 219.488 226.175 220.256V222.096C225.935 221.792 225.647 221.536 225.343 221.296C224.655 220.736 223.855 220.256 222.975 220.256C221.999 220.256 221.119 220.72 220.335 221.296C219.647 221.792 218.927 222.352 218.927 223.2C218.927 224.048 219.647 224.624 220.335 225.12C221.119 225.696 221.999 226.16 222.975 226.16C223.855 226.16 224.655 225.68 225.343 225.12C225.647 224.88 225.935 224.624 226.175 224.32V226H227.039V220.256C227.039 219.264 226.335 218.48 225.615 217.808C224.863 217.12 223.999 216.48 222.975 216.48C221.759 216.48 220.671 217.424 219.903 218.224ZM222.975 221.12C223.727 221.12 224.431 221.44 225.055 221.856C225.583 222.208 226.175 222.576 226.175 223.2C226.175 223.824 225.583 224.208 225.055 224.56C224.431 224.976 223.727 225.296 222.975 225.296C222.223 225.296 221.519 224.976 220.895 224.56C220.367 224.208 219.791 223.824 219.791 223.2C219.791 222.576 220.367 222.208 220.895 221.856C221.519 221.44 222.223 221.12 222.975 221.12ZM228.44 217.504H230.856V226H231.72V217.504H234.12V216.64H231.72V210.8H230.856V216.64H228.44V217.504ZM234.909 217.504H237.325V226H238.189V217.504H240.589V216.64H238.189V210.8H237.325V216.64H234.909V217.504ZM249.825 224.032L249.249 223.504C249.041 223.744 248.785 223.968 248.529 224.176C247.825 224.768 247.025 225.296 246.097 225.296C245.121 225.296 244.337 224.624 243.665 223.904C243.073 223.28 242.545 222.56 242.401 221.744H250.705V221.328C250.705 220.112 249.937 219.072 249.089 218.176C248.257 217.312 247.297 216.48 246.097 216.48C244.897 216.48 243.937 217.312 243.105 218.176C242.257 219.072 241.505 220.112 241.505 221.328C241.505 222.544 242.257 223.568 243.105 224.464C243.937 225.328 244.897 226.16 246.097 226.16C247.233 226.16 248.225 225.504 249.089 224.752C249.345 224.528 249.601 224.288 249.825 224.032ZM249.809 220.896H242.401C242.545 220.08 243.073 219.36 243.665 218.736C244.337 218.016 245.121 217.344 246.097 217.344C247.073 217.344 247.857 218.016 248.529 218.736C249.121 219.36 249.665 220.08 249.809 220.896ZM252.765 226H253.629V220.368C253.629 219.6 254.125 218.96 254.653 218.4C255.181 217.856 255.789 217.344 256.541 217.344C256.909 217.344 257.245 217.456 257.549 217.648L258.013 216.976C257.565 216.672 257.085 216.48 256.541 216.48C255.645 216.48 254.957 217.152 254.365 217.84C254.093 218.16 253.837 218.496 253.629 218.864V216.64H252.765V226ZM259.281 226H260.145V219.936C260.145 219.184 260.817 218.688 261.441 218.256C262.161 217.744 262.961 217.344 263.841 217.344C264.481 217.344 264.993 217.792 265.441 218.256C265.889 218.736 266.305 219.28 266.305 219.936V226H267.169V219.936C267.169 219.056 266.609 218.336 266.001 217.696C265.393 217.072 264.705 216.48 263.841 216.48C262.833 216.48 261.937 217.04 261.153 217.696C260.785 218 260.417 218.336 260.145 218.72V216.64H259.281V226Z" fill="#6262F4"/>
<defs>
<linearGradient id="paint0_linear" x1="194.5" y1="0" x2="194.5" y2="389" gradientUnits="userSpaceOnUse">
<stop stop-color="#6F9AAD" stop-opacity="0.5"/>
<stop offset="1" stop-color="#C4C4C4" stop-opacity="0"/>
</linearGradient>
</defs>
</svg>
