<svg width="165" height="57" viewBox="0 0 165 57" fill="none" xmlns="http://www.w3.org/2000/svg">
<path d="M16.4768 0.499999H14.0018V16.35C14.0018 17.55 13.1018 18.5 12.2018 19.325C11.2768 20.175 10.2518 21 9.00176 21H7.87676C6.62676 21 5.60176 20.175 4.67676 19.325C3.77676 18.5 2.87676 17.55 2.87676 16.35V0.499999H0.401758V16.35C0.401758 18.15 1.77676 19.55 3.10176 20.775C4.47676 22.05 6.00176 23.25 7.87676 23.25H9.00176C10.8768 23.25 12.4018 22.05 13.7768 20.775C15.1018 19.55 16.4768 18.15 16.4768 16.35V0.499999ZM21.3025 23H23.7775V13.55H28.4525C30.2025 13.55 31.7275 12.55 33.0775 11.45C34.3275 10.425 35.6775 9.3 35.6775 7.7V6.35C35.6775 4.75 34.3275 3.625 33.0775 2.6C31.7275 1.5 30.2025 0.499999 28.4525 0.499999H21.3025V23ZM23.7775 2.75H28.4525C29.5775 2.75 30.5775 3.375 31.4775 4.05C32.3025 4.675 33.2025 5.35 33.2025 6.35V7.7C33.2025 8.7 32.3025 9.375 31.4775 10C30.5775 10.675 29.5775 11.3 28.4525 11.3H23.7775V2.75ZM58.5242 16.75L56.5742 15.5C56.0742 16.475 55.2742 17.375 54.4992 18.2C53.1742 19.6 51.6992 21 49.7742 21H48.1242C46.1992 21 44.7242 19.6 43.3992 18.2C42.0492 16.775 40.7242 15.175 40.7242 13.225V10.275C40.7242 8.325 42.0492 6.725 43.3992 5.3C44.7242 3.9 46.1992 2.5 48.1242 2.5H49.7742C51.6992 2.5 53.1742 3.9 54.4992 5.3C55.2742 6.125 56.0742 7.025 56.5742 8L58.5242 6.75C57.8742 5.7 56.9742 4.75 56.0992 3.85C54.3242 2.05 52.2992 0.249999 49.7742 0.249999H48.1242C45.5992 0.249999 43.5742 2.05 41.7992 3.85C39.9992 5.675 38.2492 7.725 38.2492 10.275V13.225C38.2492 15.775 39.9992 17.825 41.7992 19.65C43.5742 21.45 45.5992 23.25 48.1242 23.25H49.7742C52.2992 23.25 54.3242 21.45 56.0992 19.65C56.9742 18.75 57.8742 17.8 58.5242 16.75ZM73.407 2.5C75.332 2.5 76.807 3.9 78.132 5.3C79.482 6.725 80.807 8.325 80.807 10.275V13.225C80.807 15.175 79.482 16.775 78.132 18.2C76.807 19.6 75.332 21 73.407 21H71.757C69.832 21 68.357 19.6 67.032 18.2C65.682 16.775 64.357 15.175 64.357 13.225V10.275C64.357 8.325 65.682 6.725 67.032 5.3C68.357 3.9 69.832 2.5 71.757 2.5H73.407ZM73.407 0.249999H71.757C69.232 0.249999 67.207 2.05 65.432 3.85C63.632 5.675 61.882 7.725 61.882 10.275V13.225C61.882 15.775 63.632 17.825 65.432 19.65C67.207 21.45 69.232 23.25 71.757 23.25H73.407C75.932 23.25 77.957 21.45 79.732 19.65C81.532 17.825 83.282 15.775 83.282 13.225V10.275C83.282 7.725 81.532 5.675 79.732 3.85C77.957 2.05 75.932 0.249999 73.407 0.249999ZM87.2938 23H89.7688V6.325L97.1438 23H99.6438L107.019 6.325V23H109.494V0.499999H106.994L98.3938 19.925L89.7938 0.499999H87.2938V23ZM114.768 23H117.243V0.499999H114.768V23ZM122.499 23H124.974V4.825L136.974 23H139.474V0.499999H136.999V18.675L124.999 0.499999H122.499V23ZM164.874 23V9.05H154.174V11.3H162.399V14.775C162.399 16.45 161.024 17.675 159.724 18.75C158.349 19.9 156.799 21 154.999 21H153.349C151.424 21 149.949 19.6 148.624 18.2C147.274 16.775 145.949 15.175 145.949 13.225V10.275C145.949 8.325 147.274 6.725 148.624 5.3C149.949 3.9 151.424 2.5 153.349 2.5H154.999C156.924 2.5 158.399 3.9 159.724 5.3C160.249 5.85 160.774 6.45 161.224 7.075L162.949 5.675C162.449 5.05 161.899 4.425 161.324 3.85C159.549 2.05 157.524 0.249999 154.999 0.249999H153.349C150.824 0.249999 148.799 2.05 147.024 3.85C145.224 5.675 143.474 7.725 143.474 10.275V13.225C143.474 15.775 145.224 17.825 147.024 19.65C148.799 21.45 150.824 23.25 153.349 23.25H154.999C157.199 23.25 158.949 21.725 160.524 20.2C161.199 19.55 161.849 18.875 162.399 18.125V23H164.874ZM31.3855 56H43.9855V53.75H33.8605V44.3H42.7605V42.05H33.8605V35.75H43.9855V33.5H31.3855V56ZM45.5197 33.5L53.1697 56H55.6697L63.3447 33.5H60.8697L54.4947 52.2L48.1447 33.5H45.5197ZM66.0779 56H78.6779V53.75H68.5529V44.3H77.4529V42.05H68.5529V35.75H78.6779V33.5H66.0779V56ZM82.3621 56H84.8371V37.825L96.8371 56H99.3371V33.5H96.8621V51.675L84.8621 33.5H82.3621V56ZM101.887 35.75H108.612V56H111.087V35.75H117.787V33.5H101.887V35.75ZM119.626 51.775C120.101 52.7 121.001 53.45 121.851 54.15C123.176 55.25 124.676 56.25 126.401 56.25H127.426C129.176 56.25 130.726 55.325 132.076 54.225C133.326 53.2 134.551 52 134.551 50.4V49.15C134.551 46.85 132.701 45.075 130.501 44.25L124.976 42.775C123.726 42.3 122.551 41.475 122.551 40.2V38.9C122.551 38 123.201 37.275 123.901 36.675C124.626 36.025 125.501 35.5 126.476 35.5H127.351C128.326 35.5 129.151 36.1 129.876 36.725C130.301 37.1 130.751 37.5 131.026 37.975L133.326 37.375C132.876 36.6 132.151 35.925 131.451 35.3C130.276 34.25 128.926 33.25 127.351 33.25H126.476C124.876 33.25 123.501 34.175 122.301 35.225C121.176 36.225 120.076 37.4 120.076 38.9V40.2C120.076 42.475 121.926 44.2 124.126 45.025L129.651 46.5C130.901 46.975 132.076 47.85 132.076 49.15V50.4C132.076 51.4 131.251 52.125 130.451 52.75C129.551 53.45 128.551 54 127.426 54H126.401C125.301 54 124.301 53.375 123.426 52.7C122.701 52.125 121.901 51.5 121.776 50.65L119.626 51.775Z" fill="#6262F4"/>
</svg>
