<svg width="350" height="350" viewBox="0 0 350 350" fill="none" xmlns="http://www.w3.org/2000/svg">
<style type="text/css">
	.st0{fill:#5B5A7C;}
</style>
<path class="st0" d="M46.8,127.5l7.9,22.5h2.5l3-8.5L63,150h2.5l7.8-22.5h-2.4l-6.6,18.8l-3-8.5l3.6-10.3h-2.5l-2.4,6.8l-2.3-6.8
	h-2.6l3.7,10.5l-2.9,8.3l-6.6-18.8H46.8z"/>
<path class="st0" d="M86.5,129.5c1.9,0,3.4,1.4,4.7,2.8c1.4,1.4,2.7,3,2.7,5v3c0,1.9-1.3,3.5-2.7,5c-1.3,1.4-2.8,2.8-4.7,2.8h-1.7
	c-1.9,0-3.4-1.4-4.7-2.8c-1.3-1.4-2.7-3-2.7-5v-3c0-1.9,1.3-3.5,2.7-5c1.3-1.4,2.8-2.8,4.7-2.8H86.5z M86.5,127.3h-1.7
	c-2.5,0-4.5,1.8-6.3,3.6c-1.8,1.8-3.6,3.9-3.6,6.4v3c0,2.5,1.8,4.6,3.6,6.4c1.8,1.8,3.8,3.6,6.3,3.6h1.7c2.5,0,4.6-1.8,6.3-3.6
	c1.8-1.8,3.5-3.9,3.5-6.4v-3c0-2.5-1.8-4.6-3.5-6.4C91,129.1,89,127.3,86.5,127.3z"/>
<path class="st0" d="M100.4,150h2.5v-10.4h4.1l5.6,10.4h2.9l-6-10.8c1-0.4,1.9-1,2.7-1.6c1.3-0.9,2.6-1.9,2.6-3.5v-1.2
	c0-1.5-1.3-2.6-2.6-3.5c-1.4-1-2.9-1.9-4.6-1.9h-7.2V150z M102.8,129.8h4.7c1.1,0,2.1,0.5,3,1.1c0.8,0.5,1.7,1.1,1.7,2v1.2
	c0,0.9-0.9,1.5-1.7,2c-0.9,0.6-1.9,1.1-3,1.1h-4.7V129.8z"/>
<path class="st0" d="M118,150h7.8c2.5,0,4.6-1.8,6.4-3.5c1.8-1.8,3.6-3.8,3.6-6.3v-2.9c0-2.5-1.8-4.5-3.6-6.3
	c-1.8-1.8-3.9-3.5-6.4-3.5H118V150z M120.5,147.8v-18h5.3c1.9,0,3.5,1.4,4.8,2.7c1.4,1.4,2.7,2.9,2.7,4.8v2.9c0,1.9-1.3,3.4-2.7,4.8
	c-1.4,1.4-2.9,2.7-4.8,2.7H120.5z"/>
<path class="st0" d="M139.4,145.8c0.5,0.9,1.4,1.7,2.2,2.4c1.3,1.1,2.8,2.1,4.5,2.1h1c1.8,0,3.3-0.9,4.6-2c1.3-1,2.5-2.2,2.5-3.8
	v-1.3c0-2.3-1.9-4.1-4.1-4.9l-5.5-1.5c-1.3-0.5-2.4-1.3-2.4-2.6v-1.3c0-0.9,0.6-1.6,1.3-2.2c0.7-0.7,1.6-1.2,2.6-1.2h0.9
	c1,0,1.8,0.6,2.5,1.2c0.4,0.4,0.9,0.8,1.1,1.3l2.3-0.6c-0.4-0.8-1.2-1.4-1.9-2.1c-1.2-1.1-2.5-2.1-4.1-2.1h-0.9c-1.6,0-3,0.9-4.2,2
	c-1.1,1-2.2,2.2-2.2,3.7v1.3c0,2.3,1.9,4,4.1,4.8l5.5,1.5c1.3,0.5,2.4,1.4,2.4,2.6v1.3c0,1-0.8,1.7-1.6,2.4c-0.9,0.7-1.9,1.3-3,1.3
	h-1c-1.1,0-2.1-0.6-3-1.3c-0.7-0.6-1.5-1.2-1.7-2.1L139.4,145.8z"/>
<path class="st0" d="M169.1,150h2.5v-22.5h-2.5V150z"/>
<path class="st0" d="M176.8,150h2.5v-18.2l12,18.2h2.5v-22.5h-2.5v18.2l-12-18.2h-2.5V150z"/>
<path class="st0" d="M208.5,145.8c0.5,0.9,1.4,1.7,2.2,2.4c1.3,1.1,2.8,2.1,4.6,2.1h1c1.8,0,3.3-0.9,4.6-2c1.3-1,2.5-2.2,2.5-3.8
	v-1.3c0-2.3-1.9-4.1-4.1-4.9l-5.5-1.5c-1.3-0.5-2.4-1.3-2.4-2.6v-1.3c0-0.9,0.6-1.6,1.4-2.2c0.7-0.7,1.6-1.2,2.6-1.2h0.9
	c1,0,1.8,0.6,2.5,1.2c0.4,0.4,0.9,0.8,1.2,1.3l2.3-0.6c-0.4-0.8-1.2-1.4-1.9-2.1c-1.2-1.1-2.5-2.1-4.1-2.1h-0.9c-1.6,0-3,0.9-4.2,2
	c-1.1,1-2.2,2.2-2.2,3.7v1.3c0,2.3,1.9,4,4.1,4.8l5.5,1.5c1.3,0.5,2.4,1.4,2.4,2.6v1.3c0,1-0.8,1.7-1.6,2.4c-0.9,0.7-1.9,1.3-3,1.3
	h-1c-1.1,0-2.1-0.6-3-1.3c-0.7-0.6-1.5-1.2-1.6-2.1L208.5,145.8z"/>
<path class="st0" d="M227.4,150h2.5v-9.4h4.7c1.8,0,3.3-1,4.6-2.1c1.3-1,2.6-2.1,2.6-3.8v-1.3c0-1.6-1.3-2.7-2.6-3.8
	c-1.4-1.1-2.9-2.1-4.6-2.1h-7.2V150z M229.8,129.8h4.7c1.1,0,2.1,0.6,3,1.3c0.8,0.6,1.7,1.3,1.7,2.3v1.3c0,1-0.9,1.7-1.7,2.3
	c-0.9,0.7-1.9,1.3-3,1.3h-4.7V129.8z"/>
<path class="st0" d="M243.1,150h2.4l2.5-7h8.6l2.5,7h2.6l-8.1-22.5h-2.5L243.1,150z M255.9,140.8h-7l3.5-9.7L255.9,140.8z"/>
<path class="st0" d="M283.5,143.8l-1.9-1.3c-0.5,1-1.3,1.9-2.1,2.7c-1.3,1.4-2.8,2.8-4.7,2.8h-1.6c-1.9,0-3.4-1.4-4.7-2.8
	c-1.3-1.4-2.7-3-2.7-5v-3c0-1.9,1.3-3.5,2.7-5c1.3-1.4,2.8-2.8,4.7-2.8h1.6c1.9,0,3.4,1.4,4.7,2.8c0.8,0.8,1.6,1.7,2.1,2.7l1.9-1.3
	c-0.6-1.1-1.5-2-2.4-2.9c-1.8-1.8-3.8-3.6-6.3-3.6h-1.6c-2.5,0-4.5,1.8-6.3,3.6c-1.8,1.8-3.6,3.9-3.6,6.4v3c0,2.5,1.8,4.6,3.6,6.4
	c1.8,1.8,3.8,3.6,6.3,3.6h1.6c2.5,0,4.6-1.8,6.3-3.6C281.9,145.8,282.8,144.8,283.5,143.8z"/>
<path class="st0" d="M287.7,150h12.6v-2.3h-10.1v-9.4h8.9v-2.3h-8.9v-6.3h10.1v-2.3h-12.6V150z"/>
<path class="st0" d="M40.8,183h2.5v-22.5h-2.5V183z"/>
<path class="st0" d="M47.9,178.8c0.5,0.9,1.4,1.7,2.2,2.4c1.3,1.1,2.8,2.1,4.5,2.1h1c1.8,0,3.3-0.9,4.6-2c1.3-1,2.5-2.2,2.5-3.8
	v-1.3c0-2.3-1.9-4.1-4-4.9l-5.5-1.5c-1.3-0.5-2.4-1.3-2.4-2.6v-1.3c0-0.9,0.6-1.6,1.3-2.2c0.7-0.7,1.6-1.2,2.6-1.2h0.9
	c1,0,1.8,0.6,2.5,1.2c0.4,0.4,0.9,0.8,1.1,1.3l2.3-0.6c-0.4-0.8-1.2-1.4-1.9-2.1c-1.2-1.1-2.5-2.1-4.1-2.1h-0.9c-1.6,0-3,0.9-4.2,2
	c-1.1,1-2.2,2.2-2.2,3.7v1.3c0,2.3,1.9,4,4.1,4.8l5.5,1.5c1.3,0.5,2.4,1.4,2.4,2.6v1.3c0,1-0.8,1.7-1.6,2.4c-0.9,0.7-1.9,1.3-3,1.3
	h-1c-1.1,0-2.1-0.6-3-1.3c-0.7-0.6-1.5-1.2-1.7-2.1L47.9,178.8z"/>
<path class="st0" d="M74.9,162.8h6.7V183h2.5v-20.3h6.7v-2.3H74.9V162.8z"/>
<path class="st0" d="M93.3,183h2.5v-11.7h11.1V183h2.5v-22.5h-2.5v8.6H95.8v-8.6h-2.5V183z"/>
<path class="st0" d="M114.3,183h12.6v-2.3h-10.1v-9.4h8.9v-2.3h-8.9v-6.3h10.1v-2.3h-12.6V183z"/>
<path class="st0" d="M139,160.5l7.9,22.5h2.5l2.9-8.5l2.9,8.5h2.5l7.9-22.5h-2.5l-6.5,18.8l-3-8.5l3.6-10.3h-2.4l-2.4,6.8l-2.4-6.8
	h-2.6L151,171l-2.9,8.3l-6.6-18.8H139z"/>
<path class="st0" d="M168.4,183H181v-2.3h-10.1v-9.4h8.9v-2.3h-8.9v-6.3H181v-2.3h-12.6V183z"/>
<path class="st0" d="M184.7,183h7.6c1.7,0,3.1-1.1,4.3-2.3c1.2-1.2,2.4-2.5,2.4-4.2v-1.6c0-1.7-1.2-3-2.4-4.1
	c-0.6-0.6-1.3-1.2-2-1.6c0.4-0.2,0.9-0.5,1.3-0.8c0.9-0.6,2-1.3,2-2.3v-0.9c0-1.3-1.1-2.1-2-2.9c-1.1-0.9-2.2-1.7-3.6-1.7h-7.6V183z
	 M187.1,162.8h5.2c0.8,0,1.4,0.4,2,0.9c0.5,0.4,1.1,0.8,1.1,1.5v0.9c0,0.7-0.6,1.1-1.1,1.5c-0.6,0.4-1.3,0.8-2,0.8h-5.2V162.8z
	 M187.1,170.6h5.2c1.1,0,2,0.8,2.7,1.5c0.8,0.8,1.5,1.6,1.5,2.7v1.6c0,1.1-0.8,1.9-1.5,2.7c-0.8,0.8-1.6,1.5-2.7,1.5h-5.2V170.6z"/>
<path class="st0" d="M202.3,178.8c0.5,0.9,1.4,1.7,2.2,2.4c1.3,1.1,2.8,2.1,4.6,2.1h1c1.8,0,3.3-0.9,4.7-2c1.3-1,2.5-2.2,2.5-3.8
	v-1.3c0-2.3-1.8-4.1-4-4.9l-5.5-1.5c-1.3-0.5-2.4-1.3-2.4-2.6v-1.3c0-0.9,0.7-1.6,1.4-2.2c0.7-0.7,1.6-1.2,2.6-1.2h0.9
	c1,0,1.8,0.6,2.5,1.2c0.4,0.4,0.9,0.8,1.1,1.3l2.3-0.6c-0.4-0.8-1.2-1.4-1.9-2.1c-1.2-1.1-2.5-2.1-4.1-2.1h-0.9c-1.6,0-3,0.9-4.2,2
	c-1.1,1-2.2,2.2-2.2,3.7v1.3c0,2.3,1.8,4,4.1,4.8l5.5,1.5c1.3,0.5,2.4,1.4,2.4,2.6v1.3c0,1-0.8,1.7-1.6,2.4c-0.9,0.7-1.9,1.3-3,1.3
	h-1c-1.1,0-2.1-0.6-3-1.3c-0.7-0.6-1.5-1.2-1.6-2.1L202.3,178.8z"/>
<path class="st0" d="M221.6,183h2.5v-22.5h-2.5V183z"/>
<path class="st0" d="M227,162.8h6.7V183h2.5v-20.3h6.7v-2.3H227V162.8z"/>
<path class="st0" d="M245.4,183H258v-2.3h-10.1v-9.4h8.9v-2.3h-8.9v-6.3H258v-2.3h-12.6V183z"/>
<path class="st0" d="M282.8,162.5c1.9,0,3.4,1.4,4.7,2.8c1.4,1.4,2.7,3,2.7,5v3c0,1.9-1.3,3.5-2.7,5c-1.3,1.4-2.8,2.8-4.7,2.8h-1.7
	c-1.9,0-3.4-1.4-4.7-2.8c-1.4-1.4-2.7-3-2.7-5v-3c0-1.9,1.3-3.5,2.7-5c1.3-1.4,2.8-2.8,4.7-2.8H282.8z M282.8,160.3h-1.7
	c-2.5,0-4.5,1.8-6.3,3.6c-1.8,1.8-3.6,3.9-3.6,6.4v3c0,2.5,1.8,4.6,3.6,6.4c1.8,1.8,3.8,3.6,6.3,3.6h1.7c2.5,0,4.5-1.8,6.3-3.6
	c1.8-1.8,3.6-3.9,3.6-6.4v-3c0-2.5-1.8-4.6-3.6-6.4C287.3,162.1,285.3,160.3,282.8,160.3z"/>
<path class="st0" d="M296.7,183h2.5v-11.7h8.9v-2.3h-8.9v-6.3h10.1v-2.3h-12.6V183z"/>
<path class="st0" d="M101.4,211.8c0.5,0.9,1.4,1.7,2.2,2.4c1.3,1.1,2.8,2.1,4.6,2.1h1c1.8,0,3.3-0.9,4.7-2c1.3-1,2.5-2.2,2.5-3.8
	v-1.3c0-2.3-1.8-4.1-4-4.9l-5.5-1.5c-1.3-0.5-2.4-1.3-2.4-2.6v-1.3c0-0.9,0.7-1.6,1.4-2.2c0.7-0.7,1.6-1.2,2.6-1.2h0.9
	c1,0,1.8,0.6,2.5,1.2c0.4,0.4,0.9,0.8,1.2,1.3l2.3-0.6c-0.4-0.8-1.2-1.4-1.9-2.1c-1.2-1.1-2.5-2.1-4.1-2.1h-0.9c-1.6,0-3,0.9-4.2,2
	c-1.1,1-2.2,2.2-2.2,3.7v1.3c0,2.3,1.8,4,4.1,4.8l5.5,1.5c1.3,0.5,2.4,1.4,2.4,2.6v1.3c0,1-0.8,1.7-1.6,2.4c-0.9,0.7-1.9,1.3-3,1.3
	h-1c-1.1,0-2.1-0.6-3-1.3c-0.7-0.6-1.5-1.2-1.6-2.1L101.4,211.8z"/>
<path class="st0" d="M120.3,216h2.5v-11.7h11.1V216h2.5v-22.5h-2.5v8.6h-11.1v-8.6h-2.5V216z"/>
<path class="st0" d="M139.2,216h2.4l2.5-7h8.6l2.5,7h2.6l-8.1-22.5h-2.5L139.2,216z M151.9,206.8h-7l3.5-9.7L151.9,206.8z"/>
<path class="st0" d="M160.7,216h2.5v-18.2l12,18.2h2.5v-22.5h-2.5v18.2l-12-18.2h-2.5V216z"/>
<path class="st0" d="M182.6,216h2.5v-18.2l12,18.2h2.5v-22.5h-2.5v18.2l-12-18.2h-2.5V216z"/>
<path class="st0" d="M215.1,195.5c1.9,0,3.4,1.4,4.7,2.8c1.4,1.4,2.7,3,2.7,5v3c0,1.9-1.3,3.5-2.7,5c-1.3,1.4-2.8,2.8-4.7,2.8h-1.6
	c-1.9,0-3.4-1.4-4.7-2.8c-1.3-1.4-2.7-3-2.7-5v-3c0-1.9,1.3-3.5,2.7-5c1.3-1.4,2.8-2.8,4.7-2.8H215.1z M215.1,193.3h-1.6
	c-2.5,0-4.6,1.8-6.3,3.6c-1.8,1.8-3.6,3.9-3.6,6.4v3c0,2.5,1.8,4.6,3.6,6.4c1.8,1.8,3.8,3.6,6.3,3.6h1.6c2.5,0,4.6-1.8,6.3-3.6
	c1.8-1.8,3.5-3.9,3.5-6.4v-3c0-2.5-1.8-4.6-3.5-6.4C219.6,195.1,217.6,193.3,215.1,193.3z"/>
<path class="st0" d="M229,216h2.5v-18.2l12,18.2h2.5v-22.5h-2.5v18.2l-12-18.2H229V216z"/>
<path class="st0" d="M109.3,249h2.5v-16.7l7.4,16.7h2.5l7.4-16.7V249h2.5v-22.5H129l-8.6,19.4l-8.6-19.4h-2.5V249z"/>
<path class="st0" d="M134.4,249h2.4l2.5-7h8.6l2.5,7h2.6l-8.1-22.5h-2.5L134.4,249z M147.1,239.8h-7l3.5-9.7L147.1,239.8z"/>
<path class="st0" d="M151.4,228.8h6.7V249h2.5v-20.3h6.7v-2.3h-15.9V228.8z"/>
<path class="st0" d="M169.3,228.8h6.7V249h2.5v-20.3h6.7v-2.3h-15.9V228.8z"/>
<path class="st0" d="M187.7,249h12.6v-2.3h-10.1v-9.4h8.9v-2.3h-8.9v-6.3h10.1v-2.3h-12.6V249z"/>
<path class="st0" d="M204,249h2.5v-10.4h4.1l5.6,10.4h2.9l-6-10.8c1-0.4,1.9-1,2.7-1.6c1.3-0.9,2.6-1.9,2.6-3.5v-1.2
	c0-1.5-1.4-2.6-2.6-3.5c-1.4-1-2.9-1.9-4.6-1.9H204V249z M206.5,228.8h4.7c1.1,0,2.1,0.5,3,1.1c0.8,0.5,1.7,1.1,1.7,2v1.2
	c0,0.9-0.9,1.5-1.7,2c-0.9,0.6-1.9,1.1-3,1.1h-4.7V228.8z"/>
<path class="st0" d="M221.7,249h2.5v-18.2l12,18.2h2.5v-22.5h-2.5v18.2l-12-18.2h-2.5V249z"/>
</svg>
