<svg width="150" height="150" viewBox="0 0 243 243" fill="none" xmlns="http://www.w3.org/2000/svg" id="sticker-CV">
<circle cx="121.5" cy="121.5" r="121.5" fill="url(#paint0_linear)"/>
<circle cx="121.5" cy="121.5" r="121" stroke="#6262F4" stroke-dasharray="10 10"/>
<path d="M117.933 125.192L117.277 124.728C116.973 125.176 116.621 125.608 116.253 126.024C115.213 127.176 113.997 128.296 112.461 128.296C110.925 128.296 109.709 127.176 108.669 126.024C107.581 124.824 106.637 123.416 106.637 121.8C106.637 120.184 107.581 118.776 108.669 117.576C109.709 116.424 110.925 115.304 112.461 115.304C113.997 115.304 115.213 116.424 116.253 117.576C116.621 117.992 116.973 118.424 117.277 118.872L117.933 118.408C117.597 117.912 117.213 117.464 116.813 117.016C115.629 115.704 114.221 114.44 112.461 114.44C110.701 114.44 109.293 115.704 108.109 117.016C106.877 118.376 105.773 119.96 105.773 121.8C105.773 123.64 106.877 125.224 108.109 126.584C109.293 127.896 110.701 129.16 112.461 129.16C114.221 129.16 115.629 127.896 116.813 126.584C117.213 126.136 117.597 125.688 117.933 125.192ZM121.162 128.408C121.162 128.664 121.514 129 121.77 129C122.026 129 122.362 128.664 122.362 128.408C122.362 128.152 122.026 127.8 121.77 127.8C121.514 127.8 121.162 128.152 121.162 128.408ZM124.129 114.6L128.833 129H130.609L135.313 114.6H134.369L129.697 128.888L125.041 114.6H124.129ZM135.428 128.408C135.428 128.664 135.78 129 136.036 129C136.292 129 136.628 128.664 136.628 128.408C136.628 128.152 136.292 127.8 136.036 127.8C135.78 127.8 135.428 128.152 135.428 128.408Z" fill="#6262F4"/>
<defs>
<linearGradient id="paint0_linear" x1="121.5" y1="0" x2="121.5" y2="243" gradientUnits="userSpaceOnUse">
<stop stop-color="#6F9AAD" stop-opacity="0.5"/>
<stop offset="1" stop-color="#C4C4C4" stop-opacity="0"/>
</linearGradient>
</defs>
</svg>
