<svg width="150" height="150" viewBox="0 0 243 243" fill="none" xmlns="http://www.w3.org/2000/svg" id="sticker-pinboard">
<circle cx="121.5" cy="121.5" r="121.5" fill="url(#paint0_linear)"/>
<circle cx="121.5" cy="121.5" r="121" stroke="#6262F4" stroke-dasharray="10 10"/>
<path d="M76.4579 129H77.3219V122.776H80.5859C81.7859 122.776 82.8259 122.12 83.7379 121.352C84.5859 120.632 85.4339 119.8 85.4339 118.696C85.4339 117.592 84.5859 116.744 83.7379 116.024C82.8259 115.256 81.7859 114.6 80.5859 114.6H76.4579V129ZM77.3219 115.464H80.5859C81.5619 115.464 82.4259 115.992 83.1779 116.6C83.8659 117.16 84.5699 117.816 84.5699 118.696C84.5699 119.576 83.8659 120.232 83.1779 120.792C82.4259 121.4 81.5619 121.912 80.5859 121.912H77.3219V115.464ZM87.8694 129H88.7334V114.6H87.8694V129ZM92.0204 129H92.8844V114.92L100.868 129H102.644V114.6H101.78V128.68L93.7964 114.6H92.0204V129ZM105.724 129H110.204C111.356 129 112.316 128.264 113.132 127.448C113.948 126.648 114.7 125.688 114.7 124.552C114.7 123.416 113.948 122.456 113.132 121.656C112.604 121.128 112.012 120.632 111.34 120.344C111.868 120.168 112.38 119.896 112.844 119.576C113.532 119.112 114.268 118.6 114.268 117.784C114.268 116.904 113.548 116.264 112.844 115.72C112.076 115.112 111.18 114.6 110.204 114.6H105.724V129ZM106.588 115.464H110.204C110.972 115.464 111.66 115.832 112.284 116.28C112.828 116.68 113.404 117.128 113.404 117.784C113.404 118.44 112.828 118.888 112.284 119.288C111.66 119.736 110.972 120.104 110.204 120.104H106.588V115.464ZM106.588 120.968H110.204C111.132 120.968 111.916 121.56 112.572 122.216C113.227 122.872 113.836 123.624 113.836 124.552C113.836 125.48 113.227 126.232 112.572 126.888C111.916 127.544 111.132 128.136 110.204 128.136H106.588V120.968ZM123.368 115.304C124.904 115.304 126.12 116.424 127.16 117.576C128.248 118.776 129.192 120.184 129.192 121.8C129.192 123.416 128.248 124.824 127.16 126.024C126.12 127.176 124.904 128.296 123.368 128.296C121.832 128.296 120.616 127.176 119.576 126.024C118.488 124.824 117.544 123.416 117.544 121.8C117.544 120.184 118.488 118.776 119.576 117.576C120.616 116.424 121.832 115.304 123.368 115.304ZM123.368 114.44C121.608 114.44 120.2 115.704 119.016 117.016C117.784 118.376 116.68 119.96 116.68 121.8C116.68 123.64 117.784 125.224 119.016 126.584C120.2 127.896 121.608 129.16 123.368 129.16C125.128 129.16 126.536 127.896 127.72 126.584C128.952 125.224 130.056 123.64 130.056 121.8C130.056 119.96 128.952 118.376 127.72 117.016C126.536 115.704 125.128 114.44 123.368 114.44ZM131.239 129H132.167L134.103 123.416H140.151L142.087 129H142.999L138.007 114.6H136.231L131.239 129ZM139.847 122.552H134.407L137.127 114.696L139.847 122.552ZM144.724 129H145.588V122.168H149.14L153.14 129H154.18L149.988 121.992C150.724 121.768 151.411 121.336 152.036 120.856C152.868 120.2 153.732 119.448 153.732 118.392C153.732 117.336 152.868 116.584 152.036 115.928C151.108 115.208 150.052 114.6 148.868 114.6H144.724V129ZM145.588 115.464H148.868C149.828 115.464 150.708 115.928 151.476 116.488C152.164 116.984 152.868 117.56 152.868 118.392C152.868 119.224 152.164 119.784 151.476 120.28C150.708 120.84 149.828 121.304 148.868 121.304H145.588V115.464ZM155.802 129H159.978C161.786 129 163.274 127.768 164.538 126.472C165.818 125.16 167.002 123.624 167.002 121.8C167.002 119.976 165.818 118.44 164.538 117.128C163.274 115.832 161.786 114.6 159.978 114.6H155.802V129ZM156.666 128.136V115.464H159.978C161.562 115.464 162.858 116.536 163.978 117.688C165.098 118.84 166.138 120.184 166.138 121.8C166.138 123.416 165.098 124.76 163.978 125.912C162.858 127.064 161.562 128.136 159.978 128.136H156.666Z" fill="#6262F4"/>
<defs>
<linearGradient id="paint0_linear" x1="121.5" y1="0" x2="121.5" y2="243" gradientUnits="userSpaceOnUse">
<stop stop-color="#6F9AAD" stop-opacity="0.5"/>
<stop offset="1" stop-color="#C4C4C4" stop-opacity="0"/>
</linearGradient>
</defs>
</svg>
