<svg width="200" height="200" viewBox="0 0 350 350" fill="none" xmlns="http://www.w3.org/2000/svg">
<path d="M115.951 170H123.601C125.301 170 126.676 168.85 127.901 167.675C129.101 166.5 130.326 165.175 130.326 163.5V161.9C130.326 160.225 129.101 158.925 127.901 157.75C127.276 157.15 126.601 156.55 125.876 156.1C126.326 155.875 126.751 155.625 127.176 155.35C128.101 154.75 129.201 154.025 129.201 153.025V152.125C129.201 150.875 128.151 149.975 127.176 149.175C126.126 148.3 124.951 147.5 123.601 147.5H115.951V170ZM118.426 149.75H123.601C124.351 149.75 125.001 150.15 125.601 150.6C126.126 151 126.726 151.45 126.726 152.125V153.025C126.726 153.7 126.126 154.15 125.601 154.55C125.001 155 124.351 155.4 123.601 155.4H118.426V149.75ZM118.426 157.65H123.601C124.676 157.65 125.551 158.4 126.326 159.175C127.101 159.95 127.851 160.825 127.851 161.9V163.5C127.851 164.575 127.101 165.45 126.326 166.225C125.551 167 124.676 167.75 123.601 167.75H118.426V157.65ZM134.335 170H136.81V159.575H140.86L146.485 170H149.41L143.385 159.225C144.36 158.85 145.26 158.275 146.11 157.625C147.36 156.7 148.71 155.675 148.71 154.15V152.925C148.71 151.4 147.36 150.375 146.11 149.45C144.735 148.425 143.21 147.5 141.485 147.5H134.335V170ZM136.81 149.75H141.485C142.585 149.75 143.585 150.275 144.51 150.9C145.31 151.425 146.235 152.025 146.235 152.925V154.15C146.235 155.05 145.31 155.65 144.51 156.175C143.585 156.8 142.585 157.325 141.485 157.325H136.81V149.75ZM162.636 149.5C164.561 149.5 166.036 150.9 167.361 152.3C168.711 153.725 170.036 155.325 170.036 157.275V160.225C170.036 162.175 168.711 163.775 167.361 165.2C166.036 166.6 164.561 168 162.636 168H160.986C159.061 168 157.586 166.6 156.261 165.2C154.911 163.775 153.586 162.175 153.586 160.225V157.275C153.586 155.325 154.911 153.725 156.261 152.3C157.586 150.9 159.061 149.5 160.986 149.5H162.636ZM162.636 147.25H160.986C158.461 147.25 156.436 149.05 154.661 150.85C152.861 152.675 151.111 154.725 151.111 157.275V160.225C151.111 162.775 152.861 164.825 154.661 166.65C156.436 168.45 158.461 170.25 160.986 170.25H162.636C165.161 170.25 167.186 168.45 168.961 166.65C170.761 164.825 172.511 162.775 172.511 160.225V157.275C172.511 154.725 170.761 152.675 168.961 150.85C167.186 149.05 165.161 147.25 162.636 147.25ZM174.081 147.5L181.931 170H184.431L187.381 161.525L190.331 170H192.831L200.681 147.5H198.231L191.681 166.3L188.706 157.775L192.281 147.5H189.831L187.456 154.25L185.106 147.5H182.481L186.156 158L183.256 166.3L176.706 147.5H174.081ZM202.776 165.775C203.251 166.7 204.151 167.45 205.001 168.15C206.326 169.25 207.826 170.25 209.551 170.25H210.576C212.326 170.25 213.876 169.325 215.226 168.225C216.476 167.2 217.701 166 217.701 164.4V163.15C217.701 160.85 215.851 159.075 213.651 158.25L208.126 156.775C206.876 156.3 205.701 155.475 205.701 154.2V152.9C205.701 152 206.351 151.275 207.051 150.675C207.776 150.025 208.651 149.5 209.626 149.5H210.501C211.476 149.5 212.301 150.1 213.026 150.725C213.451 151.1 213.901 151.5 214.176 151.975L216.476 151.375C216.026 150.6 215.301 149.925 214.601 149.3C213.426 148.25 212.076 147.25 210.501 147.25H209.626C208.026 147.25 206.651 148.175 205.451 149.225C204.326 150.225 203.226 151.4 203.226 152.9V154.2C203.226 156.475 205.076 158.2 207.276 159.025L212.801 160.5C214.051 160.975 215.226 161.85 215.226 163.15V164.4C215.226 165.4 214.401 166.125 213.601 166.75C212.701 167.45 211.701 168 210.576 168H209.551C208.451 168 207.451 167.375 206.576 166.7C205.851 166.125 205.051 165.5 204.926 164.65L202.776 165.775ZM221.664 170H234.264V167.75H224.139V158.3H233.039V156.05H224.139V149.75H234.264V147.5H221.664V170ZM87.4969 203H100.097V200.75H89.9719V191.3H98.8719V189.05H89.9719V182.75H100.097V180.5H87.4969V203ZM101.631 180.5L109.281 203H111.781L119.456 180.5H116.981L110.606 199.2L104.256 180.5H101.631ZM122.189 203H134.789V200.75H124.664V191.3H133.564V189.05H124.664V182.75H134.789V180.5H122.189V203ZM138.473 203H140.948V192.575H144.998L150.623 203H153.548L147.523 192.225C148.498 191.85 149.398 191.275 150.248 190.625C151.498 189.7 152.848 188.675 152.848 187.15V185.925C152.848 184.4 151.498 183.375 150.248 182.45C148.873 181.425 147.348 180.5 145.623 180.5H138.473V203ZM140.948 182.75H145.623C146.723 182.75 147.723 183.275 148.648 183.9C149.448 184.425 150.373 185.025 150.373 185.925V187.15C150.373 188.05 149.448 188.65 148.648 189.175C147.723 189.8 146.723 190.325 145.623 190.325H140.948V182.75ZM153.899 180.5L161.574 193.125V203H164.049V193.125L171.724 180.5H168.949L162.874 190.5L156.774 180.5H153.899ZM171.988 182.75H178.713V203H181.188V182.75H187.888V180.5H171.988V182.75ZM190.427 203H192.902V191.3H204.027V203H206.502V180.5H204.027V189.05H192.902V180.5H190.427V203ZM211.773 203H214.248V180.5H211.773V203ZM219.504 203H221.979V184.825L233.979 203H236.479V180.5H234.004V198.675L222.004 180.5H219.504V203ZM261.879 203V189.05H251.179V191.3H259.404V194.775C259.404 196.45 258.029 197.675 256.729 198.75C255.354 199.9 253.804 201 252.004 201H250.354C248.429 201 246.954 199.6 245.629 198.2C244.279 196.775 242.954 195.175 242.954 193.225V190.275C242.954 188.325 244.279 186.725 245.629 185.3C246.954 183.9 248.429 182.5 250.354 182.5H252.004C253.929 182.5 255.404 183.9 256.729 185.3C257.254 185.85 257.779 186.45 258.229 187.075L259.954 185.675C259.454 185.05 258.904 184.425 258.329 183.85C256.554 182.05 254.529 180.25 252.004 180.25H250.354C247.829 180.25 245.804 182.05 244.029 183.85C242.229 185.675 240.479 187.725 240.479 190.275V193.225C240.479 195.775 242.229 197.825 244.029 199.65C245.804 201.45 247.829 203.25 250.354 203.25H252.004C254.204 203.25 255.954 201.725 257.529 200.2C258.204 199.55 258.854 198.875 259.404 198.125V203H261.879Z" fill="#6262F4"/>
<circle cx="175" cy="175" r="145" stroke="#6262F4" stroke-opacity="0.5" stroke-width="60" stroke-dasharray="3 10"/>
</svg>
